<?xml version="1.0" encoding="utf-8"?>
<!-- Generator: Adobe Illustrator 28.0.0, SVG Export Plug-In . SVG Version: 6.00 Build 0)  -->
<svg version="1.1" id="Layer_1" xmlns="http://www.w3.org/2000/svg" xmlns:xlink="http://www.w3.org/1999/xlink" x="0px" y="0px"
	 viewBox="0 0 405.1 120" style="enable-background:new 0 0 405.1 120;" xml:space="preserve">
<style type="text/css">
	.st0{fill:#234391;}
</style>
<g>
	<g>
		<path class="st0" d="M-1749.2-646.7c-2.8-3.1-5.5-6.4-8.4-9.4c-57.2-57.3-114.5-114.5-171.8-171.8c-42.7-42.7-85.3-85.4-128-128.1
			c-3.4-3.4-6.7-6.9-10.2-10.3c-1.6-1.5-1.7-2.7-0.6-4.8c2.5-5.1,4.5-10.5,6.4-15.9c0.8-2.2,1.7-3,4-3c68.1,0.1,136.3,0.2,204.4,0.2
			c35.7,0,71.4,0.1,107.2-0.1c4.6,0,7.6,1.3,10.7,4.4c28.6,28.8,57.3,57.4,86,86c1.5,1.5,3.1,2.9,4.6,4.4c3.1,3,3.1,3.5,0,6.5
			c-9.5,9.4-19,18.7-28.4,28.1c-24,23.8-48,47.6-71.9,71.6c-1.5,1.5-2.5,4.1-2.5,6.1c-0.1,44.3,0,88.6,0,133c0,0.7-0.1,1.4-0.2,2.1
			C-1748.3-647.3-1748.8-647-1749.2-646.7z"/>
		<path class="st0" d="M-2003.3-531.2c-5.7-5.5-11.3-10.7-16.7-16.1c-26.8-26.7-53.7-53.4-80.4-80.2c-1.3-1.3-2.3-3.7-2.3-5.5
			c0.2-104.1,0.4-208.2,0.6-312.3c0-3,1.1-3.8,3.9-4.6c4.9-1.4,9.8-3.4,14.3-5.9c2.8-1.5,4.2-1.3,6.3,0.8
			c11.1,11.3,22.3,22.4,33.4,33.6c48.1,48.1,96.2,96.2,144.3,144.3c35.2,35.2,70.4,70.4,105.6,105.5c10.8,10.7,21.5,21.5,32.3,32.2
			c0.6,0.6,1.1,1.4,2,2.5c-1.4,0.1-2.3,0.2-3.1,0.2c-43.5,0-87,0-130.5,0c-2.7,0-4.6,0.8-6.5,2.7c-32.1,32.1-64.2,64.2-96.3,96.2
			C-1998.8-535.4-2001.2-533.2-2003.3-531.2z"/>
		<path class="st0" d="M-1904.5-1005.2c-51.2,0-102.3,0-153.5,0c-2.4,0-3.6-0.5-4-3.1c-0.4-2.5-1.4-5-2.6-7.3
			c-1.5-2.8-0.2-4.2,2-5.7c12.4-8.8,24.7-17.7,37-26.6c45-32.5,89.9-65.1,134.9-97.5c1.3-1,3.2-1.6,4.9-1.6
			c44.9-0.1,89.8,0,134.7-0.1c2.5,0,3.3,0.9,3.3,3.3c-0.1,45.1-0.1,90.3,0,135.4c0,2.8-1.1,3.2-3.6,3.2
			C-1802.4-1005.2-1853.4-1005.2-1904.5-1005.2C-1904.5-1005.2-1904.5-1005.2-1904.5-1005.2z"/>
		<path class="st0" d="M-2118-777.3c0,35.1,0,85.7,0.1,136.2c0,3.6-1,4.5-4.5,4.5c-44-0.1-87.9-0.1-131.9-0.1c-4.8,0-4.8,0-4.8-4.8
			c0-42.7,0.1-85.3-0.1-128c0-4.5,1.3-8,4-11.6c16.6-22.7,33-45.6,49.5-68.4c23.7-32.9,47.5-65.7,71.2-98.5
			c3.9-5.4,3.9-5.4,10.1-3.1c2.5,0.9,6.5,1,7.3,2.7c1.3,2.7,0.7,6.4,0.6,9.7C-2117-890.1-2117.4-841.5-2118-777.3z"/>
		<path class="st0" d="M-2074.6-1031.2c-7.1-6.9-15.5-11.1-25.1-12.9c-1.8-0.4-2.4-1.3-2.4-3.2c0.1-19.8,0.1-39.6,0.2-59.4
			c0.1-15.1,0.3-30.2,0.7-45.2c0.1-2.1,1.1-4.6,2.6-6.1c30.9-31.1,61.9-62,92.9-93.1c2-2,3.2-1.5,4.9,0.2
			c29,29.3,58.1,58.5,87.2,87.8c2.9,2.9,5.7,5.8,9,9.2C-1961.3-1113.1-2017.7-1072.3-2074.6-1031.2z"/>
		<path class="st0" d="M-2265.9-792.8c-1-0.9-1.8-1.5-2.5-2.2c-31.6-31.6-63.2-63.2-94.8-94.7c-1.8-1.8-1.6-2.8,0.1-4.5
			c26.1-25.9,52.2-51.8,78.2-77.7c5.3-5.3,10.7-10.7,16.2-15.8c1.2-1.1,3.3-2,5-2c34.3-0.1,68.6-0.1,102.9-0.1
			c2.7,0,4.2,0.6,4.8,3.7c1.5,8,5.1,15.2,10.8,21.1c1.9,1.9,1.8,3.3,0.3,5.4c-20.4,28.1-40.7,56.3-61.1,84.5
			c-19,26.4-38.1,52.7-57.1,79C-2263.9-795.1-2264.9-794.1-2265.9-792.8z"/>
		<path class="st0" d="M-2248-1147.1c3.9,0,6.9,0,9.9,0c39,0,78,0,117-0.1c3.5,0,4.6,0.9,4.6,4.5c-0.4,31.6-0.5,63.2-0.7,94.7
			c0,2.4-0.8,3.3-3.2,4.1c-4.7,1.6-9.5,3.6-13.8,6.1c-2.5,1.4-3.7,1.5-5.7-0.5c-11.8-11.9-23.7-23.6-35.5-35.5
			c-23.3-23.4-46.5-46.8-69.8-70.2C-2245.9-1144.6-2246.6-1145.5-2248-1147.1z"/>
		<path class="st0" d="M-2259-1005.4c0-43.4,0-86.4,0-128.6c36.3,36.4,72.9,73.1,109.3,109.6c-1.9,5.2-4.2,11.4-6.6,17.6
			c-0.3,0.7-1.5,1.4-2.3,1.4c-2.8,0.2-5.7,0.1-8.5,0.1c-29.6,0-59.2,0-88.7,0C-2256.8-1005.2-2257.7-1005.3-2259-1005.4z"/>
	</g>
</g>
<g>
	<path class="st0" d="M54.5,114.6c-0.1-0.2-0.3-0.3-0.4-0.5c-4.7-4.7-9.3-9.3-14-14c-0.3-0.3-0.4-0.6-0.4-1c0-12.5,0-25,0-37.6
		c0-3.2,0-6.4,0-9.6c0-0.1,0-0.3,0-0.4c0-0.2,0.1-0.3,0.3-0.3c1-0.2,1.9-0.6,2.7-1.1c0.2-0.1,0.3-0.1,0.4,0c0.1,0.1,0.2,0.2,0.3,0.3
		C59.3,66.3,75.2,82.2,91,98c0.1,0.1,0.3,0.3,0.4,0.5c-0.2,0.1-0.4,0.1-0.6,0.1c-3.1,0-6.3,0-9.4,0c-3.5,0-7,0-10.4,0
		c-0.3,0-0.5,0.1-0.8,0.3c-5.2,5.2-10.4,10.4-15.5,15.6c-0.1,0.1-0.1,0.1-0.1,0.2C54.5,114.6,54.5,114.6,54.5,114.6z"/>
	<path class="st0" d="M109.1,60c-0.1,0.2-0.3,0.3-0.4,0.5c-5,5-10,10-15.1,15c-0.4,0.4-0.5,0.7-0.5,1.2c0,6.5,0,13,0,19.5
		c0,0.2,0,0.4-0.1,0.6c-0.2-0.1-0.3-0.2-0.4-0.3C76.7,80.6,60.8,64.7,44.9,48.8c-0.1-0.1-0.1-0.2-0.2-0.2c-0.1-0.1-0.1-0.2,0-0.4
		c0.6-0.8,1-1.7,1.1-2.7c0-0.2,0.1-0.3,0.4-0.3c0.1,0,0.3,0,0.4,0c15.7,0,31.4,0,47.1,0c0.5,0,0.8,0.1,1.1,0.5
		c4.6,4.7,9.3,9.3,13.9,13.9C108.8,59.7,109,59.8,109.1,60z"/>
	<path class="st0" d="M69.4,42.9c-7.6,0-15.2,0-22.8,0c-0.1,0-0.3,0-0.4,0c-0.3,0-0.4-0.1-0.5-0.4c-0.1-0.5-0.2-1-0.5-1.4
		c-0.2-0.3-0.1-0.4,0.2-0.6c1.4-1,2.8-2,4.1-3c7.3-5.3,14.6-10.6,21.9-15.8c0.3-0.2,0.7-0.3,1-0.3c6.7,0,13.3,0,20,0
		c0.7,0,0.7-0.1,0.7,0.7c0,6.7,0,13.5,0,20.2c0,0.7,0,0.7-0.7,0.7C84.8,42.9,77.1,42.9,69.4,42.9z"/>
	<path class="st0" d="M37.5,74.9c0,7.7,0,15.3,0,23c0,0.8,0.1,0.7-0.7,0.7c-6.7,0-13.4,0-20.1,0c-0.7,0-0.7,0.1-0.7-0.7
		c0-6.6,0-13.2,0-19.8c0-0.4,0.1-0.7,0.3-1C22.5,68.5,28.8,59.8,35,51c0.1-0.1,0.1-0.2,0.2-0.3c0.1-0.1,0.2-0.2,0.4-0.1
		c0.5,0.2,1.1,0.4,1.7,0.5c0.2,0,0.3,0.1,0.3,0.3c0,0.2,0,0.3,0,0.5C37.5,59.6,37.5,67.3,37.5,74.9C37.5,74.9,37.5,74.9,37.5,74.9z"
		/>
	<path class="st0" d="M15,75c-0.2-0.1-0.3-0.3-0.5-0.4c-4.7-4.7-9.4-9.4-14.2-14.2c-0.5-0.5-0.5-0.4,0-0.9c4.7-4.7,9.3-9.3,14-14
		c0.3-0.3,0.6-0.4,1-0.4c5.2,0,10.3,0,15.5,0c0.1,0,0.2,0,0.3,0c0.2,0,0.3,0.1,0.4,0.3c0.3,1.4,0.9,2.6,1.8,3.6
		c0.3,0.3,0.1,0.4-0.1,0.6c-1.6,2.2-3.1,4.3-4.7,6.5c-4.4,6.1-8.8,12.2-13.1,18.3C15.3,74.6,15.2,74.9,15,75z"/>
	<path class="st0" d="M69.5,20.3c-0.1,0.2-0.3,0.2-0.4,0.4c-8.2,6-16.5,11.9-24.7,17.9c0,0-0.1,0.1-0.1,0.1c-0.4,0.3-0.4,0.3-0.8,0
		c-0.9-0.8-2-1.4-3.2-1.6c-0.5-0.1-0.5-0.1-0.5-0.6c0-5.2,0-10.5,0-15.7c0-0.4,0.1-0.7,0.4-1c4.6-4.6,9.3-9.3,13.9-13.9
		c0.5-0.5,0.4-0.5,0.9,0c4.7,4.7,9.4,9.4,14.1,14.1C69.2,20,69.4,20.1,69.5,20.3z"/>
	<path class="st0" d="M16,23.1c0.2,0.1,0.3,0.2,0.5,0.4c5.3,5.3,10.6,10.6,15.9,15.9c0.1,0.1,0.1,0.1,0.2,0.2
		c0.2,0.2,0.2,0.3,0.1,0.5c-0.5,0.7-0.9,1.6-1.1,2.4c-0.1,0.4-0.1,0.4-0.5,0.4c-1.1,0-2.2,0-3.4,0c-3.7,0-7.4,0-11,0
		c-0.8,0-0.7,0-0.7-0.7c0-6.2,0-12.4,0-18.6C15.9,23.4,15.9,23.3,16,23.1z"/>
	<path class="st0" d="M17.7,21.4c0.2-0.1,0.4-0.1,0.6-0.1c6.2,0,12.5,0,18.7,0c0.1,0,0.1,0,0.2,0c0.4,0,0.4,0,0.4,0.4
		c0,0.9,0,1.9,0,2.8c0,2,0,3.9,0,5.9c0,2,0,4,0,6c0,0.5,0,0.5-0.4,0.6c-0.8,0.2-1.6,0.5-2.3,1c-0.3,0.2-0.5,0.2-0.6-0.1
		c-0.1-0.1-0.2-0.2-0.2-0.2c-5.3-5.3-10.5-10.5-15.8-15.8C17.9,21.8,17.8,21.6,17.7,21.4z"/>
	<path class="st0" d="M386.4,41.7c-1,0-1.9,0-2.8,0c-0.2,0-0.3-0.2-0.4-0.3c-0.3-0.7-0.6-1.4-0.8-2.1c-0.1-0.3-0.3-0.4-0.6-0.4
		c-1.7,0-3.4,0-5.2,0c-0.4,0-0.5,0.1-0.7,0.5c-0.3,0.7-0.6,1.3-0.8,2c-0.1,0.3-0.3,0.4-0.5,0.3c-1.7,0-3.3,0-5,0
		c-0.3,0-0.5-0.2-0.6-0.4c-1.2-1.4-2.3-2.9-3.5-4.3c-0.1-0.2-0.2-0.3-0.5-0.5c-0.5,0.6-1.1,1.1-1.6,1.7c-0.1,0.1-0.1,0.3-0.1,0.5
		c0,0.8,0,1.6,0,2.4c0,0.4,0,0.4-0.4,0.4c-0.7,0-1.5,0-2.2,0c-0.3,0-0.4-0.1-0.4-0.4c0-0.1,0-0.2,0-0.3c0-3.9,0-7.9,0-11.8
		c0-0.7,0-0.7,0.6-0.7c0.6,0,1.2,0,1.8,0c0.5,0,0.5,0,0.5,0.5c0,1.6,0,3.3,0,4.9c0,0.2,0,0.4,0.1,0.5c0.2,0,0.3-0.2,0.4-0.4
		c1.6-1.7,3.2-3.4,4.8-5.1c0.4-0.4,0.7-0.5,1.2-0.5c0.8,0,1.6,0,2.5,0c0,0.3-0.2,0.4-0.3,0.5c-1.5,1.6-3,3.2-4.4,4.8
		c-0.1,0.1-0.1,0.2-0.2,0.2c-0.3,0.4-0.3,0.3,0,0.7c1.5,1.9,2.9,3.7,4.4,5.5c0.1,0.2,0.3,0.4,0.5,0.6c0.2-0.1,0.2-0.3,0.3-0.5
		c1.6-3.7,3.3-7.4,4.9-11.1c0.4-0.8,0.2-0.7,1.1-0.7c0.6,0,1.2,0,1.8,0c0.3,0,0.5,0.1,0.7,0.4c0.9,2.1,1.8,4.1,2.8,6.2
		c0.9,2,1.8,4,2.7,6C386.4,41.3,386.5,41.5,386.4,41.7z M379.1,31.7c-0.7,1.6-1.4,3.2-2,4.9c0.2,0,0.3,0,0.3,0c1.1,0,2.2,0,3.3,0
		c0.1,0,0.1,0,0.2,0c0.2,0,0.3-0.1,0.2-0.3c0-0.1-0.1-0.1-0.1-0.2c-0.6-1.4-1.1-2.7-1.7-4.1C379.3,31.9,379.3,31.8,379.1,31.7z"/>
	<path class="st0" d="M387,64.3c-0.9,0-1.8,0-2.8,0c-0.3,0-0.3-0.1-0.4-0.3c-0.3-0.7-0.6-1.4-0.8-2.1c-0.1-0.3-0.3-0.4-0.6-0.4
		c-1.8,0-3.5,0-5.3,0c-0.3,0-0.5,0.1-0.6,0.4c-0.2,0.6-0.5,1.3-0.8,1.9c-0.1,0.3-0.3,0.5-0.7,0.5c-0.9-0.1-1.7,0-2.6-0.1
		c-0.3,0-0.5,0-0.8,0c-2.7,0-5.4,0-8.2,0c-0.1,0-0.3,0-0.4,0c-0.2,0-0.3-0.1-0.3-0.3c0-0.1,0-0.2,0-0.3c0-3.9,0-7.9,0-11.8
		c0-0.7,0-0.7,0.6-0.7c0.7,0,1.3,0,2,0c0.4,0,0.4,0,0.4,0.4c0,0.1,0,0.3,0,0.4c0,3,0,6,0,9c0,0.1,0,0.3,0,0.4c0,0.5,0,0.5,0.5,0.5
		c0.2,0,0.4,0,0.7,0c1.6,0,3.2,0,4.7,0c0.7,0,0.7,0,0.7,0.7c0,0.4,0,0.7,0,1.1c0,0.1,0,0.3,0.1,0.4c0.2-0.1,0.2-0.3,0.3-0.4
		c1.2-2.7,2.4-5.4,3.6-8c0.6-1.3,1.2-2.6,1.8-4c0.1-0.3,0.3-0.5,0.7-0.4c0.7,0,1.4,0,2.1,0c0.3,0,0.4,0.1,0.5,0.3
		c1.9,4.2,3.7,8.3,5.6,12.5C387,64,387,64.1,387,64.3z M377.6,59.1c1.4,0,2.6,0,3.9,0c0,0,0,0,0.1,0c0.1,0,0.2-0.1,0.2-0.2
		c0-0.1-0.1-0.2-0.1-0.3c-0.6-1.3-1.1-2.7-1.7-4c-0.1-0.1-0.1-0.3-0.3-0.4C379,55.8,378.3,57.4,377.6,59.1z"/>
	<path class="st0" d="M159,64.1c1,1.2,2.3,1.2,3.9,0c0.4,0.5,0.8,0.9,1.2,1.4c0.1,0.1,0.1,0.3-0.1,0.4c-0.3,0.4-0.7,0.7-1.1,0.9
		c-1.8,0.8-3.5,0.7-5.2-0.3c-0.7-0.4-1.4-1-1.9-1.6c-0.3-0.4-0.7-0.5-1.2-0.6c-1.9-0.4-3.4-1.4-4.5-3.1c-2-3.3-0.9-8.8,4.3-10.1
		c1.9-0.5,3.7-0.3,5.5,0.6c2.6,1.3,4,4,3.5,6.9c-0.4,2.6-1.8,4.3-4.2,5.3c-0.1,0-0.2,0.1-0.3,0.1C159.1,64.1,159.1,64.1,159,64.1z
		 M156.5,61.9c2.4,0,4.1-1.8,4.1-4.2c0-2.4-1.7-4.2-4.1-4.2c-2.4,0-4.2,1.8-4.1,4.2C152.4,60.1,154.1,61.9,156.5,61.9z"/>
	<path class="st0" d="M192.1,56.5c-0.3,0.2-0.4,0.4-0.5,0.6c-1.1,1.8-2.1,3.5-3.1,5.3c-0.2,0.3-0.4,0.5-0.8,0.5
		c-1,0-0.7,0.1-1.3-0.7c-1-1.6-2-3.3-3-4.9c-0.1-0.2-0.2-0.4-0.4-0.5c-0.1,0.2-0.1,0.4-0.1,0.5c0,2.1,0,4.2,0,6.3c0,0.1,0,0.3,0,0.4
		c0,0.2-0.1,0.3-0.3,0.3c-0.7,0-1.5,0-2.2,0c-0.2,0-0.3-0.1-0.3-0.3c0-0.1,0-0.3,0-0.4c0-3.9,0-7.8,0-11.7c0-0.1,0-0.1,0-0.2
		c0-0.5,0-0.5,0.5-0.5c0.5,0,1.1,0,1.6,0c0.3,0,0.5,0.1,0.7,0.4c1.4,2.4,2.8,4.7,4.2,7c0.1,0.2,0.2,0.4,0.4,0.6
		c0.2-0.2,0.3-0.4,0.4-0.6c1.4-2.3,2.8-4.6,4.1-7c0.2-0.4,0.4-0.5,0.9-0.5c0.5,0,1,0,1.5,0c0.4,0,0.4,0,0.4,0.4c0,1,0,2.1,0,3.1
		c0,3,0,6,0,9c0,0.1,0,0.2,0,0.3c0,0.2-0.1,0.3-0.3,0.3c-0.8,0-1.6,0-2.3,0c-0.2,0-0.2-0.1-0.2-0.2c0-0.1,0-0.3,0-0.4
		c0-2.1,0-4.2,0-6.4C192.1,57,192.1,56.8,192.1,56.5z"/>
	<path class="st0" d="M165.1,34.9c0.2,0.1,0.4,0.2,0.5,0.2c1.2,0.6,1.7,1.6,1.7,2.9c0,1.3-0.5,2.3-1.7,2.9c-0.6,0.4-1.4,0.5-2.1,0.6
		c-0.5,0.1-1.1,0.1-1.6,0.1c-2,0-4,0-5.9,0c-0.1,0-0.3,0-0.4,0c-0.2,0-0.2-0.1-0.2-0.2c0-0.1,0-0.3,0-0.4c0-4,0-7.9,0-11.9
		c0-0.1,0-0.1,0-0.2c0-0.4,0-0.4,0.4-0.4c2.1,0,4.3,0,6.4,0c0.8,0,1.6,0.1,2.4,0.5c1.1,0.5,1.9,1.2,2.1,2.5c0.2,1.3-0.3,2.4-1.4,3.1
		C165.3,34.7,165.2,34.8,165.1,34.9C165.1,34.8,165.1,34.8,165.1,34.9z M160.6,36.2C160.6,36.2,160.6,36.2,160.6,36.2
		c-0.6,0-1.2,0-1.8,0c-0.4,0-0.4,0-0.4,0.4c0,0.8,0,1.6,0,2.4c0,0.4,0,0.4,0.5,0.4c1.1,0,2.2,0,3.3,0c0.5,0,1-0.1,1.4-0.3
		c0.5-0.2,0.8-0.7,0.8-1.2c0-0.6-0.2-1.1-0.7-1.4c-0.4-0.2-0.8-0.3-1.3-0.3C161.7,36.2,161.2,36.2,160.6,36.2z M160.4,30.9
		c-0.6,0-1.1,0-1.6,0c-0.4,0-0.4,0-0.4,0.4c0,0.8,0,1.5,0,2.3c0,0.4,0,0.4,0.4,0.4c0.9,0,1.8,0,2.7,0c0.5,0,1-0.1,1.4-0.3
		c0.5-0.3,0.8-0.7,0.7-1.3c0-0.6-0.2-1-0.7-1.2c-0.2-0.1-0.4-0.2-0.6-0.2C161.6,30.8,160.9,30.9,160.4,30.9z"/>
	<path class="st0" d="M338.1,34.9c0.2,0.1,0.4,0.2,0.5,0.2c1.2,0.6,1.8,1.6,1.8,3c0,1.4-0.6,2.3-1.8,2.9c-1,0.5-2.1,0.6-3.2,0.7
		c-2.2,0-4.4,0-6.5,0c-0.5,0-0.5,0-0.5-0.5c0-4,0-8.1,0-12.1c0-0.5,0-0.5,0.5-0.5c2.1,0,4.1,0,6.2,0c0.9,0,1.7,0.1,2.5,0.5
		c1.1,0.5,1.9,1.2,2,2.5c0.2,1.3-0.3,2.4-1.4,3.1C338.3,34.7,338.3,34.8,338.1,34.9z M333.7,36.2C333.7,36.2,333.7,36.2,333.7,36.2
		c-0.6,0-1.3,0-1.9,0c-0.3,0-0.4,0.1-0.4,0.4c0,0.8,0,1.7,0,2.5c0,0.4,0,0.4,0.4,0.4c1.1,0,2.2,0,3.4,0c0.5,0,0.9-0.1,1.4-0.3
		c0.5-0.3,0.8-0.7,0.8-1.3c0-0.6-0.2-1.1-0.8-1.3c-0.4-0.2-0.8-0.3-1.3-0.3C334.8,36.2,334.3,36.2,333.7,36.2z M333.2,34
		C333.2,34,333.2,34,333.2,34c0.4,0,0.8,0,1.2,0c0.5,0,1-0.1,1.5-0.3c0.5-0.3,0.8-0.7,0.8-1.3c0-0.6-0.3-1-0.8-1.2
		c-0.3-0.2-0.7-0.2-1-0.3c-1,0-2.1,0-3.1,0c-0.2,0-0.3,0.1-0.3,0.3c0,0.8,0,1.6,0,2.4c0,0.3,0.1,0.4,0.4,0.4
		C332.3,34,332.8,34,333.2,34z"/>
	<path class="st0" d="M266.8,58.9c0.1-0.2,0-0.4,0-0.6c0-2.1,0-4.3,0-6.4c0-0.1,0-0.3,0-0.4c0-0.2,0.1-0.3,0.3-0.3
		c0.8,0,1.6,0,2.4,0c0.2,0,0.3,0.1,0.3,0.3c0,0.1,0,0.3,0,0.4c0,3.9,0,7.8,0,11.8c0,0.1,0,0.2,0,0.3c0,0.4,0,0.4-0.4,0.4
		c-0.5,0-1.1,0-1.6,0c-0.3,0-0.6-0.1-0.8-0.4c-1.2-1.5-2.4-2.9-3.6-4.3c-0.7-0.9-1.5-1.8-2.2-2.7c-0.1-0.1-0.2-0.3-0.4-0.4
		c-0.1,0.2-0.1,0.4-0.1,0.6c0,2.1,0,4.3,0,6.4c0,0.1,0,0.3,0,0.4c0,0.2-0.1,0.4-0.4,0.4c-0.8,0-1.5,0-2.3,0c-0.3,0-0.4-0.1-0.3-0.4
		c0-0.1,0-0.2,0-0.3c0-3.9,0-7.8,0-11.8c0-0.1,0-0.2,0-0.3c0-0.3,0.1-0.4,0.3-0.4c0.6,0,1.3,0,1.9,0c0.3,0,0.4,0.2,0.6,0.4
		c1.2,1.4,2.3,2.9,3.5,4.3c0.7,0.9,1.5,1.8,2.2,2.7C266.5,58.7,266.6,58.8,266.8,58.9z"/>
	<path class="st0" d="M244.3,33.9c0,0.2,0,0.4,0,0.6c0,2.2,0,4.4,0,6.6c0,0.5,0,0.5-0.5,0.5c-0.7,0-1.4,0-2.1,0
		c-0.3,0-0.4-0.1-0.4-0.3c0-0.1,0-0.2,0-0.3c0-3.9,0-7.8,0-11.8c0-0.1,0-0.1,0-0.2c0-0.5,0-0.5,0.5-0.5c0.5,0,1,0,1.5,0
		c0.3,0,0.6,0.1,0.8,0.4c1.3,1.6,2.6,3.2,3.9,4.8c0.6,0.8,1.2,1.5,1.9,2.3c0.1,0.1,0.2,0.3,0.4,0.3c0.1-0.2,0.1-0.4,0.1-0.6
		c0-2.2,0-4.4,0-6.5c0-0.8,0-0.7,0.7-0.7c0.7,0,1.3,0,2,0c0.3,0,0.4,0.1,0.3,0.3c0,0.1,0,0.2,0,0.3c0,3.9,0,7.8,0,11.8
		c0,0.1,0,0.1,0,0.2c0,0.5,0,0.5-0.5,0.5c-0.5,0-1,0-1.5,0c-0.3,0-0.6-0.1-0.8-0.4c-1.4-1.8-2.9-3.5-4.3-5.3
		c-0.5-0.6-1.1-1.3-1.6-1.9C244.6,34.1,244.6,33.9,244.3,33.9z"/>
	<path class="st0" d="M239,35.2c0.1,3.5-2.5,6.3-6,6.7c-1.9,0.2-3.6,0-5.2-1c-2.2-1.4-3.1-3.4-3.1-6c0.1-3.4,2.7-6,6.1-6.4
		c1.5-0.2,3-0.1,4.4,0.6C237.7,30.3,239,32.3,239,35.2z M236,35.1c0-0.1,0-0.2,0-0.4c-0.1-1.9-1.5-3.4-3.4-3.7
		c-1.9-0.3-3.7,0.6-4.5,2.3c-0.3,0.7-0.4,1.4-0.4,2.2c0.1,2.4,2.1,4.3,4.9,3.8C234.7,38.9,236,37.3,236,35.1z"/>
	<path class="st0" d="M299.1,57.7c0-3.7,2.7-6.2,5.8-6.7c1.7-0.3,3.4-0.1,5,0.8c2.2,1.2,3.4,3.1,3.5,5.6c0.2,4-2.8,6.7-6.1,7
		c-1.2,0.1-2.4,0.1-3.5-0.3C300.9,63.2,299.2,60.7,299.1,57.7z M310.4,57.7c0-0.1,0-0.3,0-0.4c-0.1-1.9-1.5-3.4-3.4-3.7
		c-2-0.3-3.8,0.7-4.5,2.4c-0.3,0.7-0.3,1.3-0.3,2c0.1,2.4,2.1,4.3,4.9,3.8C309.1,61.5,310.4,59.8,310.4,57.7z"/>
	<path class="st0" d="M121.3,35.1c0-3.6,2.6-6.2,5.9-6.7c1.7-0.3,3.4-0.1,4.9,0.8c2.5,1.3,3.9,4,3.5,6.8c-0.4,2.9-2.7,5.4-6,5.8
		c-1.4,0.2-2.7,0.1-4-0.4C122.9,40.4,121.3,38,121.3,35.1z M128.5,30.9c-2.4,0-4.1,1.8-4.1,4.2c0,2.4,1.8,4.2,4.2,4.2
		c2.4,0,4.1-1.8,4.1-4.2C132.6,32.7,130.9,30.9,128.5,30.9z"/>
	<path class="st0" d="M279.4,50.9c2.2,0,4.2,0.8,5.7,2.5c2.8,3.4,1.8,9.5-3.8,10.8c-2,0.5-4,0.2-5.8-0.8c-2.3-1.3-3.5-3.8-3.2-6.6
		c0.4-3.5,3.2-5.5,6-5.8C278.6,50.9,279,50.9,279.4,50.9z M279.4,53.5c-2.4,0-4.1,1.8-4.1,4.2c0,2.4,1.7,4.2,4.2,4.2
		c2.4,0,4.1-1.8,4.1-4.2C283.5,55.2,281.8,53.5,279.4,53.5z"/>
	<path class="st0" d="M397.2,60.1c1,1.4,1.9,2.7,2.8,4.1c-0.2,0.1-0.4,0.1-0.5,0.1c-0.7,0-1.5,0-2.2,0c-0.4,0-0.6-0.1-0.8-0.4
		c-0.6-1-1.3-1.9-2-2.9c-0.2-0.3-0.4-0.4-0.7-0.4c-0.7,0-1.3,0-2,0c-0.3,0-0.4,0.1-0.4,0.4c0,0.9,0,1.8,0,2.8c0,0.5,0,0.5-0.5,0.5
		c-0.7,0-1.4,0-2.1,0c-0.4,0-0.4,0-0.4-0.5c0-1.2,0-2.4,0-3.6c0-2.7,0-5.5,0-8.2c0-0.1,0-0.3,0-0.4c0-0.4,0-0.4,0.4-0.4
		c0.1,0,0.1,0,0.2,0c1.8,0,3.5,0,5.3,0c1.1,0,2.2,0.2,3.1,0.7c1.7,0.9,2.4,2.4,2.3,4.3c-0.1,1.7-0.9,3-2.4,3.8
		C397.3,59.9,397.3,60,397.2,60.1z M391.5,55.9C391.5,55.9,391.5,55.9,391.5,55.9c0,0.6,0,1.2,0,1.8c0,0.4,0,0.4,0.4,0.4
		c0.5,0,0.9,0,1.4,0c0.6,0,1.2,0,1.7-0.1c1.1-0.3,1.8-1,1.8-2.1c0-1.2-0.6-1.9-1.7-2.2c-0.2,0-0.3-0.1-0.5-0.1c-0.9,0-1.8,0-2.7,0
		c-0.3,0-0.3,0.1-0.3,0.4C391.5,54.6,391.5,55.2,391.5,55.9z"/>
	<path class="st0" d="M273.3,41.7c-1,0-1.9,0-2.9,0c-0.2,0-0.3-0.2-0.5-0.3c-0.7-1-1.4-1.9-2-2.9c-0.2-0.3-0.4-0.4-0.8-0.4
		c-0.6,0-1.3,0-1.9,0c-0.4,0-0.4,0-0.4,0.4c0,0.9,0,1.7,0,2.6c0,0.1,0,0.3,0,0.4c0,0.2-0.1,0.3-0.3,0.3c-0.8,0-1.6,0-2.4,0
		c-0.2,0-0.3-0.1-0.3-0.3c0-0.1,0-0.3,0-0.4c0-3.9,0-7.9,0-11.8c0-0.7,0-0.7,0.6-0.7c1.7,0,3.5,0,5.2,0c0.9,0,1.8,0.2,2.7,0.5
		c2.5,1,3.6,3.8,2.4,6.2c-0.4,0.8-1,1.5-1.8,1.9c-0.5,0.3-0.5,0.3-0.1,0.7c0.7,1.1,1.5,2.1,2.2,3.2
		C273.2,41.3,273.3,41.4,273.3,41.7z M264.8,33.3c0,0.6,0,1.3,0,1.9c0,0.4,0,0.4,0.4,0.4c0.8,0,1.6,0,2.4,0c0.4,0,0.9-0.1,1.3-0.3
		c0.5-0.2,0.9-0.6,1.1-1.1c0.5-1.4-0.2-2.7-1.6-3.1c-0.2-0.1-0.5-0.1-0.7-0.1c-0.8,0-1.6,0-2.3,0c-0.5,0-0.5,0-0.5,0.4
		C264.8,32.1,264.8,32.7,264.8,33.3z"/>
	<path class="st0" d="M133.6,64.2c-0.2,0.1-0.3,0.1-0.5,0.1c-0.7,0-1.4,0-2.1,0c-0.4,0-0.6-0.1-0.8-0.4c-0.6-1-1.3-1.9-2-2.9
		c-0.2-0.3-0.4-0.4-0.8-0.4c-0.6,0-1.3,0-1.9,0c-0.4,0-0.4,0-0.4,0.4c0,0.9,0,1.8,0,2.7c0,0.5,0,0.5-0.5,0.5c-0.7,0-1.4,0-2.1,0
		c-0.3,0-0.4-0.1-0.4-0.3c0-0.1,0-0.2,0-0.3c0-3.9,0-7.8,0-11.8c0-0.1,0-0.2,0-0.3c0-0.4,0-0.4,0.4-0.4c1.9,0,3.8,0,5.7,0
		c1,0,2,0.2,2.9,0.7c1.6,0.8,2.3,2.2,2.4,3.9c0,1.8-0.7,3.1-2.2,4c0,0-0.1,0-0.1,0.1c-0.3,0.2-0.3,0.2-0.1,0.5
		c0.8,1.1,1.6,2.2,2.3,3.4C133.5,63.9,133.6,64,133.6,64.2z M125.2,55.9C125.2,55.9,125.1,55.9,125.2,55.9c0,0.6,0,1.2,0,1.8
		c0,0.5,0,0.5,0.5,0.5c0.8,0,1.5,0,2.3,0c0.4,0,0.9-0.1,1.3-0.3c0.5-0.2,0.9-0.6,1.1-1.1c0.6-1.4-0.1-2.8-1.6-3.2
		c-0.2,0-0.4-0.1-0.5-0.1c-0.9,0-1.7,0-2.6,0c-0.3,0-0.4,0.1-0.4,0.4C125.2,54.6,125.2,55.2,125.2,55.9z"/>
	<path class="st0" d="M180,86.7c-0.2,0.1-0.3,0.1-0.5,0.1c-0.7,0-1.5,0-2.2,0c-0.3,0-0.6-0.1-0.8-0.4c-0.6-1-1.3-1.9-1.9-2.8
		c-0.2-0.3-0.5-0.5-0.8-0.4c-0.6,0-1.3,0-1.9,0c-0.3,0-0.4,0.1-0.4,0.4c0,0.9,0,1.8,0,2.7c0,0.5,0,0.5-0.5,0.5c-0.7,0-1.4,0-2.1,0
		c-0.3,0-0.4-0.1-0.4-0.4c0-0.1,0-0.2,0-0.3c0-3.9,0-7.8,0-11.7c0-0.1,0-0.1,0-0.2c0-0.5,0-0.5,0.5-0.5c1.9,0,3.7,0,5.6,0
		c0.8,0,1.5,0.2,2.3,0.4c2.1,0.8,3.2,2.6,2.9,5.1c-0.2,1.4-1,2.5-2.2,3.2c-0.4,0.2-0.4,0.2-0.1,0.6c0.8,1.1,1.5,2.2,2.3,3.3
		C179.8,86.3,180,86.5,180,86.7z M171.5,78.3c0,0.7,0,1.3,0,2c0,0.2,0,0.4,0.3,0.4c1.1,0,2.1,0.1,3.1-0.1c0.9-0.2,1.5-0.6,1.8-1.5
		c0.4-1.5-0.4-2.7-1.9-2.9c-1-0.2-2-0.1-3-0.1c-0.3,0-0.3,0.1-0.3,0.4C171.5,77.1,171.5,77.7,171.5,78.3z"/>
	<path class="st0" d="M194.3,28.7c-0.1,0.2-0.2,0.3-0.3,0.5c-1.5,1.6-3,3.2-4.4,4.8c-0.1,0.1-0.2,0.2-0.3,0.4
		c-0.1,0.1-0.1,0.3,0,0.4c0.1,0.1,0.2,0.2,0.2,0.3c1.6,2,3.2,4.1,4.9,6.1c0.1,0.2,0.3,0.3,0.4,0.5c-0.1,0.2-0.2,0.1-0.3,0.1
		c-0.8,0-1.7,0-2.5,0c-0.4,0-0.7-0.1-0.9-0.4c-1.1-1.4-2.3-2.8-3.4-4.2c-0.4-0.5-0.3-0.6-0.9,0c-0.3,0.4-0.7,0.7-1,1.1
		c-0.2,0.2-0.3,0.4-0.3,0.7c0,0.8,0,1.6,0,2.4c0,0.5,0,0.5-0.5,0.5c-0.7,0-1.4,0-2.1,0c-0.4,0-0.4,0-0.4-0.4c0-1.1,0-2.1,0-3.2
		c0-2.9,0-5.8,0-8.7c0-0.1,0-0.3,0-0.4c0-0.5,0-0.5,0.4-0.5c0.7,0,1.4,0,2.1,0c0.4,0,0.4,0,0.4,0.5c0,1.6,0,3.3,0,4.9
		c0,0.2,0,0.4,0.1,0.6c0.2-0.1,0.3-0.3,0.4-0.4c1.6-1.7,3.3-3.5,4.9-5.2c0.3-0.3,0.5-0.4,0.9-0.4c0.7,0,1.5,0,2.2,0
		C194,28.6,194.1,28.6,194.3,28.7z"/>
	<path class="st0" d="M169.7,35.2c0-1.9,0-3.8,0-5.8c0-0.1,0-0.3,0-0.4c0-0.4,0-0.4,0.4-0.4c3,0,6,0,9,0c0.4,0,0.4,0,0.4,0.4
		c0,0.5,0,1.1,0,1.6c0,0.3-0.1,0.4-0.3,0.4c-0.1,0-0.3,0-0.4,0c-1.8,0-3.6,0-5.4,0c-0.1,0-0.3,0-0.4,0c-0.2,0-0.3,0.1-0.3,0.3
		c0,0.8,0,1.6,0,2.3c0,0.2,0.1,0.2,0.2,0.2c0.1,0,0.3,0,0.4,0c1.6,0,3.2,0,4.8,0c0.6,0,0.6,0,0.6,0.6c0,0.5,0,0.9,0,1.4
		c0,0.3-0.1,0.4-0.4,0.4c-0.8,0-1.6,0-2.3,0c-1,0-2,0-2.9,0c-0.4,0-0.4,0-0.4,0.4c0,0.7,0,1.4,0,2.1c0,0.5,0,0.5,0.5,0.5
		c1.7,0,3.3,0,5,0c0.4,0,0.9,0,1.3,0c0.2,0,0.4,0.1,0.4,0.3c0,0.6,0,1.2,0,1.7c0,0.2-0.1,0.4-0.3,0.4c-0.1,0-0.2,0-0.3,0
		c-3,0-5.9,0-8.9,0c-0.1,0-0.2,0-0.3,0c-0.2,0-0.3-0.1-0.3-0.3c0-0.1,0-0.3,0-0.4C169.7,39,169.7,37.1,169.7,35.2z"/>
	<path class="st0" d="M232.4,57.7c0-1.9,0-3.9,0-5.8c0-0.1,0-0.3,0-0.4c0-0.2,0.1-0.3,0.3-0.3c0.1,0,0.3,0,0.4,0c2.8,0,5.7,0,8.5,0
		c0.1,0,0.2,0,0.3,0c0.4,0,0.4,0,0.4,0.4c0,0.5,0,1.1,0,1.6c0,0.4,0,0.4-0.4,0.4c-0.5,0-0.9,0-1.4,0c-1.5,0-2.9,0-4.4,0
		c-0.1,0-0.3,0-0.4,0c-0.2,0-0.3,0.1-0.3,0.4c0,0.7,0,1.4,0,2.1c0,0.4,0,0.4,0.4,0.4c0.6,0,1.2,0,1.7,0c1.1,0,2.3,0,3.4,0
		c0.5,0,0.5,0,0.5,0.5c0,0.5,0,0.9,0,1.4c0,0.4,0,0.4-0.4,0.4c-1.3,0-2.6,0-3.9,0c-0.5,0-0.9,0-1.4,0c-0.4,0-0.4,0-0.4,0.5
		c0,0.7,0,1.5,0,2.2c0,0.4,0,0.4,0.4,0.4c0.8,0,1.6,0,2.3,0c1.3,0,2.5,0,3.8,0c0.7,0,0.7,0,0.7,0.7c0,0.4,0,0.9,0,1.3
		c0,0.4,0,0.4-0.5,0.5c-0.1,0-0.1,0-0.2,0c-3,0-5.9,0-8.9,0c0,0,0,0-0.1,0c-0.5,0-0.5,0-0.5-0.5C232.4,61.7,232.4,59.7,232.4,57.7z"
		/>
	<path class="st0" d="M275.6,35.2c0-2,0-3.9,0-5.9c0-0.1,0-0.3,0-0.4c0-0.2,0.1-0.2,0.2-0.2c0.1,0,0.3,0,0.4,0c2.9,0,5.8,0,8.7,0
		c0,0,0.1,0,0.1,0c0.5,0,0.5,0,0.5,0.5c0,0.5,0,1,0,1.5c0,0.5,0,0.5-0.5,0.5c-0.7,0-1.4,0-2.1,0c-1.3,0-2.5,0-3.8,0
		c-0.5,0-0.5,0-0.5,0.5c0,0.6,0,1.2,0,1.8c0,0.5,0,0.5,0.6,0.5c1.6,0,3.2,0,4.8,0c0.8,0,0.7-0.1,0.7,0.7c0,0.4,0,0.8,0,1.2
		c0,0.4,0,0.4-0.4,0.4c-0.4,0-0.8,0-1.1,0c-1.3,0-2.7,0-4,0c-0.5,0-0.5,0-0.5,0.5c0,0.7,0,1.4,0,2.1c0,0.4,0,0.4,0.4,0.4
		c0.9,0,1.8,0,2.7,0c1.2,0,2.4,0,3.6,0c0.4,0,0.4,0,0.4,0.4c0,0.6,0,1.1,0,1.7c0,0.3-0.1,0.4-0.4,0.4c-0.1,0-0.2,0-0.3,0
		c-2.9,0-5.9,0-8.8,0c-0.1,0-0.3,0-0.4,0c-0.2,0-0.3-0.1-0.3-0.3c0-0.1,0-0.3,0-0.4C275.6,39,275.6,37.1,275.6,35.2z"/>
	<path class="st0" d="M327.4,60.2c0,0.7,0,1.5,0,2.2c0,0.3-0.1,0.5-0.4,0.7c-1,0.7-2.2,1.1-3.4,1.3c-1.6,0.3-3.2,0.2-4.7-0.5
		c-2.8-1.2-4.3-4-3.9-7c0.4-3.4,3.1-5.5,6-5.8c1.4-0.2,2.8-0.1,4.2,0.5c0.9,0.3,1.6,0.8,2.3,1.5c0.2,0.2,0.2,0.3,0,0.5
		c-0.5,0.4-0.9,0.9-1.4,1.3c-0.2,0.2-0.2,0.3-0.6,0c-1.3-1.2-2.8-1.4-4.4-1c-2.4,0.6-3.2,2.8-3,4.5c0.3,2.5,2.3,4,5,3.7
		c0.4,0,0.7-0.1,1-0.3c0.5-0.2,0.5-0.2,0.5-0.7c0-0.9,0-1.7,0-2.6c0-0.1,0-0.2,0-0.3c0-0.3,0.1-0.4,0.4-0.4c0.7,0,1.4,0,2.1,0
		c0.3,0,0.4,0.1,0.3,0.4c0,0.6,0,1.2,0,1.8C327.4,59.8,327.4,60,327.4,60.2z"/>
	<path class="st0" d="M211.7,75.7c-0.6,0.5-1.2,1.1-1.7,1.6c-0.1,0.1-0.2,0.1-0.4,0c-0.1-0.1-0.1-0.1-0.2-0.2
		c-1.4-1.2-3-1.4-4.7-0.8c-1.5,0.5-2.3,1.7-2.6,3.2c-0.1,0.6-0.1,1.3,0.1,1.9c0.4,1.4,1.3,2.3,2.7,2.8c1.1,0.3,2.2,0.3,3.3-0.1
		c0.5-0.2,0.5-0.2,0.5-0.7c0-0.9,0-1.9,0-2.8c0-0.5,0-0.5,0.5-0.5c0.6,0,1.3,0,1.9,0c0.3,0,0.4,0.1,0.4,0.4c0,1.6,0,3.1,0,4.7
		c0,0.3-0.1,0.4-0.3,0.5c-0.9,0.6-2,1-3.1,1.2c-2,0.4-3.9,0.3-5.6-0.7c-2.4-1.3-3.4-3.4-3.4-6.1c0.1-3.6,2.9-6.3,6.6-6.5
		c1.4-0.1,2.8,0.1,4,0.7C210.4,74.5,211.1,75,211.7,75.7z"/>
	<path class="st0" d="M313.5,32.9c0-1.3,0-2.5,0-3.8c0-0.5,0-0.5,0.5-0.5c0.7,0,1.3,0,2,0c0.5,0,0.5,0,0.5,0.5c0,2.1,0,4.2,0,6.4
		c0,0.4,0,0.8,0.1,1.2c0,0.3,0.1,0.5,0.2,0.8c0.4,1.1,1.2,1.8,2.4,1.8c0.3,0,0.6,0,0.9,0c1.1-0.2,1.8-0.8,2.2-1.9
		c0.2-0.5,0.2-1.1,0.2-1.7c0-2.1,0-4.2,0-6.3c0-0.1,0-0.3,0-0.4c0-0.5,0-0.5,0.5-0.5c0.7,0,1.4,0,2.1,0c0.4,0,0.4,0,0.4,0.4
		c0,2.4,0,4.9,0,7.3c0,0.5-0.1,1.1-0.2,1.6c-0.6,2.2-2,3.5-4.2,3.9c-1.2,0.2-2.3,0.2-3.5-0.1c-2.1-0.5-3.4-1.9-3.8-4.1
		c-0.1-0.5-0.1-1.1-0.1-1.6C313.5,35,313.5,34,313.5,32.9z"/>
	<path class="st0" d="M300.1,35.2c0-1.9,0-3.9,0-5.8c0-0.1,0-0.3,0-0.4c0-0.2,0.1-0.3,0.3-0.3c0.1,0,0.3,0,0.4,0c1.7,0,3.3,0,5,0
		c1,0,2,0.1,2.9,0.5c1.8,0.8,2.8,2.3,2.8,4.3c0,1.9-1.1,3.4-2.9,4.1c-0.9,0.3-1.7,0.5-2.7,0.5c-0.8,0-1.6,0-2.3,0
		c-0.4,0-0.5,0-0.5,0.5c0,0.9,0,1.8,0,2.7c0,0.5,0,0.5-0.5,0.5c-0.7,0-1.4,0-2.1,0c-0.4,0-0.4,0-0.4-0.4c0-0.7,0-1.5,0-2.2
		C300.1,37.8,300.1,36.5,300.1,35.2z M303.1,33.3c0,0.6,0,1.2,0,1.8c0,0.5,0,0.5,0.4,0.5c0.7,0,1.5,0,2.2,0c0.4,0,0.9-0.1,1.3-0.2
		c0.5-0.2,0.9-0.5,1.2-1.1c0.6-1.4-0.1-2.8-1.6-3.2c-0.2,0-0.4-0.1-0.6-0.1c-0.8,0-1.7,0-2.6,0c-0.4,0-0.4,0-0.4,0.4
		C303.1,32.1,303.1,32.7,303.1,33.3z"/>
	<path class="st0" d="M178.6,64.2c-0.2,0.1-0.3,0.1-0.5,0.1c-0.7,0-1.5,0-2.2,0c-0.3,0-0.5-0.1-0.6-0.4c-0.2-0.7-0.6-1.3-0.8-2
		c-0.1-0.3-0.2-0.4-0.6-0.4c-1.8,0-3.6,0-5.3,0c-0.3,0-0.4,0.1-0.5,0.4c-0.3,0.7-0.6,1.3-0.8,2c-0.1,0.3-0.3,0.4-0.6,0.4
		c-0.7,0-1.5,0-2.2,0c-0.5,0-0.5,0-0.3-0.5c0.6-1.4,1.3-2.9,1.9-4.3c1.2-2.6,2.3-5.2,3.5-7.8c0.2-0.4,0.4-0.6,0.8-0.5
		c0.7,0,1.3,0,2,0c0.4,0,0.5,0.1,0.7,0.5c1.4,3.2,2.9,6.4,4.3,9.6c0.4,0.8,0.7,1.6,1.1,2.4C178.5,63.8,178.6,63.9,178.6,64.2z
		 M169.3,59c0.2,0.1,0.3,0.1,0.4,0.1c1.1,0,2.2,0,3.3,0c0.1,0,0.1,0,0.2,0c0.2,0,0.3-0.1,0.2-0.3c0-0.1-0.1-0.1-0.1-0.2
		c-0.6-1.4-1.1-2.7-1.7-4.1c0-0.1-0.1-0.2-0.2-0.3C170.6,55.8,170,57.4,169.3,59z"/>
	<path class="st0" d="M134.3,64.2c0-0.2,0.1-0.3,0.1-0.4c1.8-4,3.6-8.1,5.4-12.1c0.2-0.4,0.4-0.5,0.8-0.5c0.6,0,1.3,0,1.9,0
		c0.4,0,0.6,0.1,0.8,0.5c1.1,2.5,2.2,5,3.3,7.5c0.7,1.5,1.3,3,2,4.5c0.1,0.2,0.2,0.4,0.3,0.6c-0.1,0.2-0.2,0.1-0.3,0.1
		c-0.8,0-1.6,0-2.4,0c-0.3,0-0.4-0.1-0.5-0.4c-0.3-0.7-0.6-1.4-0.9-2.1c-0.1-0.3-0.2-0.4-0.5-0.3c-1.8,0-3.6,0-5.4,0
		c-0.3,0-0.4,0.1-0.5,0.3c-0.3,0.7-0.6,1.4-0.9,2.1c-0.1,0.3-0.3,0.4-0.6,0.4c-0.8,0-1.5,0-2.3,0C134.5,64.3,134.4,64.3,134.3,64.2z
		 M141.5,54.2c-0.6,1-1.9,4.5-1.9,4.9c1.2,0,2.5,0,3.7,0c0,0,0,0,0.1,0c0.2,0,0.2-0.1,0.2-0.2c0-0.1-0.1-0.2-0.1-0.3
		c-0.5-1.3-1.1-2.6-1.6-4C141.7,54.5,141.7,54.4,141.5,54.2z"/>
	<path class="st0" d="M361.2,64.2c-0.2,0.1-0.3,0.1-0.5,0.1c-0.7,0-1.5,0-2.2,0c-0.4,0-0.5-0.1-0.7-0.5c-0.2-0.7-0.6-1.3-0.8-2
		c-0.1-0.3-0.3-0.4-0.6-0.4c-1.7,0-3.5,0-5.2,0c-0.3,0-0.5,0.1-0.6,0.4c-0.2,0.7-0.6,1.3-0.8,2c-0.1,0.3-0.3,0.4-0.6,0.4
		c-0.7,0-1.4,0-2.1,0c-0.1,0-0.3,0-0.4-0.1c0-0.2,0.1-0.3,0.2-0.5c1.8-4,3.6-8,5.3-12c0.2-0.4,0.4-0.6,0.8-0.5c0.7,0,1.3,0,2,0
		c0.4,0,0.5,0.1,0.7,0.5c1.2,2.8,2.5,5.6,3.8,8.4c0.5,1.2,1.1,2.4,1.6,3.6C361.1,63.8,361.1,64,361.2,64.2z M351.8,59.1
		c1.4,0,2.6,0,3.8,0c0,0,0.1,0,0.1,0c0.1,0,0.2-0.1,0.1-0.2c0-0.1-0.1-0.2-0.1-0.3c-0.6-1.3-1.1-2.7-1.7-4c-0.1-0.1-0.1-0.3-0.3-0.4
		C353.2,55.8,352.5,57.4,351.8,59.1z"/>
	<path class="st0" d="M149,31.1c-0.3,0-0.5,0-0.7,0c-1.8,0-3.7,0-5.5,0c-0.1,0-0.3,0-0.4,0c-0.2,0-0.3-0.1-0.3-0.3
		c0-0.6,0-1.2,0-1.8c0-0.2,0.1-0.3,0.3-0.3c0.1,0,0.2,0,0.3,0c3.2,0,6.5,0,9.7,0c0.1,0,0.2,0,0.3,0c0.3,0,0.4,0.1,0.4,0.3
		c0,0.5,0,0.9,0,1.4c0,0.3-0.1,0.4-0.3,0.6c-1.7,2-3.4,4.1-5,6.1c-0.5,0.6-1,1.2-1.5,1.8c-0.1,0.1-0.2,0.2-0.2,0.4
		c0.2,0.1,0.4,0.1,0.6,0.1c2,0,4,0,6,0c0.1,0,0.3,0,0.4,0c0.3,0,0.4,0.1,0.4,0.3c0,0.6,0,1.2,0,1.8c0,0.2-0.1,0.3-0.3,0.3
		c-0.1,0-0.3,0-0.4,0c-3.4,0-6.7,0-10.1,0c0,0-0.1,0-0.1,0c-0.6,0-0.5,0-0.6-0.6c-0.1-0.9,0.2-1.7,0.8-2.4c2-2.3,4-4.8,6-7.1
		C148.8,31.4,148.9,31.3,149,31.1z"/>
	<path class="st0" d="M148.3,86.7c-0.7,0-1.5,0-2.2,0c-1,0-0.8,0.1-1.2-0.8c-0.2-0.6-0.5-1.1-0.7-1.7c-0.1-0.2-0.2-0.3-0.5-0.3
		c-1.8,0-3.6,0-5.4,0c-0.3,0-0.4,0.1-0.5,0.4c-0.3,0.7-0.6,1.4-0.8,2.1c-0.1,0.3-0.2,0.4-0.6,0.4c-0.9,0-1.7,0-2.6,0
		c-0.1-0.2,0-0.3,0.1-0.4c1.8-4.1,3.6-8.1,5.4-12.2c0.2-0.3,0.3-0.5,0.7-0.4c0.7,0,1.4,0,2.1,0c0.3,0,0.5,0.1,0.7,0.4
		c1,2.3,2,4.6,3.1,6.9c0.8,1.7,1.5,3.4,2.3,5.2C148.2,86.3,148.3,86.5,148.3,86.7z M141.1,76.7c0,0-0.1,0-0.1,0
		c-0.7,1.6-1.3,3.2-2,4.8c0.7,0.1,3.7,0.1,4.1,0C142.4,79.9,141.7,78.3,141.1,76.7z"/>
	<path class="st0" d="M153.1,84.2c0.2,0.2,0.4,0.1,0.6,0.1c2,0,4,0,5.9,0c0.1,0,0.3,0,0.4,0c0.4,0,0.4,0,0.4,0.4c0,0.6,0,1.1,0,1.7
		c0,0.3-0.1,0.4-0.4,0.4c-0.1,0-0.2,0-0.3,0c-3.4,0-6.7,0-10.1,0c-0.1,0-0.3,0-0.4,0c-0.2,0-0.3-0.1-0.3-0.3c0-0.5,0-1,0-1.5
		c0-0.2,0.2-0.4,0.3-0.6c1.6-2,3.3-3.9,4.9-5.9c0.5-0.6,1.1-1.3,1.6-1.9c0.1-0.1,0.3-0.3,0.3-0.5c-0.2,0-0.4,0-0.6,0
		c-1.9,0-3.7,0-5.6,0c-0.1,0-0.3,0-0.4,0c-0.2,0-0.3-0.1-0.3-0.3c0-0.6,0-1.2,0-1.8c0-0.2,0.1-0.3,0.3-0.3c0.1,0,0.3,0,0.4,0
		c3.2,0,6.5,0,9.7,0c0.1,0,0.3,0,0.4,0c0.2,0,0.3,0.1,0.3,0.3c0,0.5,0,1,0,1.5c0,0.2-0.2,0.4-0.3,0.6c-2.1,2.6-4.3,5.2-6.4,7.8
		C153.3,83.9,153.1,84,153.1,84.2z"/>
	<path class="st0" d="M202.3,38.2c1,0.7,2,1.1,3.1,1.3c0.8,0.1,1.7,0.2,2.5,0c0.3-0.1,0.5-0.2,0.7-0.3c0.6-0.5,0.6-1.3,0-1.8
		c-0.3-0.2-0.7-0.4-1-0.5c-0.8-0.2-1.7-0.4-2.5-0.7c-0.4-0.1-0.9-0.3-1.3-0.4c-1.2-0.5-2.1-1.3-2.2-2.6c-0.2-1.4,0.2-2.6,1.4-3.5
		c0.7-0.5,1.5-0.9,2.3-1c2-0.4,3.9-0.2,5.7,0.7c0.6,0.3,0.6,0.3,0.4,1c-0.2,0.4-0.3,0.8-0.5,1.2c-0.2,0.6-0.3,0.5-0.7,0.3
		c-0.9-0.5-1.9-0.7-2.9-0.8c-0.5,0-1.1,0-1.6,0.2c-0.3,0.1-0.6,0.2-0.8,0.5c-0.6,0.6-0.4,1.5,0.3,1.8c0.6,0.3,1.3,0.5,2,0.6
		c0.8,0.2,1.6,0.4,2.4,0.7c0.3,0.1,0.5,0.2,0.8,0.3c1.7,0.9,2.2,2.3,1.7,4c-0.2,0.9-0.8,1.5-1.5,2c-0.7,0.5-1.6,0.8-2.4,0.9
		c-1.9,0.3-3.8,0-5.6-0.7c-0.4-0.1-0.7-0.3-1-0.5c-0.2-0.1-0.2-0.2-0.1-0.4C201.7,39.5,202,38.9,202.3,38.2z"/>
	<path class="st0" d="M392.4,41.9c-1.5,0-2.8-0.2-4.1-0.8c-0.4-0.1-0.7-0.3-1-0.5c-0.4-0.2-0.4-0.2-0.2-0.6c0.2-0.5,0.4-1,0.6-1.4
		c0.2-0.5,0.2-0.4,0.6-0.2c1.4,0.9,3,1.2,4.6,1.1c0.4,0,0.8-0.1,1.2-0.3c0.8-0.5,0.9-1.4,0-2c-0.4-0.3-0.9-0.4-1.3-0.5
		c-0.9-0.3-1.9-0.4-2.8-0.8c-0.2-0.1-0.4-0.1-0.7-0.2c-2.1-0.9-2.9-3.1-1.7-5.1c0.5-0.9,1.3-1.4,2.2-1.7c2.4-0.8,4.7-0.6,6.9,0.5
		c0.4,0.2,0.4,0.2,0.2,0.7c-0.2,0.5-0.4,1-0.6,1.5c-0.2,0.4-0.2,0.4-0.5,0.2c-0.9-0.5-1.9-0.8-3-0.8c-0.5,0-1.1,0-1.6,0.2
		c-0.3,0.1-0.5,0.2-0.7,0.4c-0.6,0.5-0.7,1.5,0.2,2c0.6,0.3,1.3,0.4,1.9,0.6c0.8,0.2,1.6,0.4,2.3,0.6c0.2,0.1,0.3,0.1,0.5,0.2
		c1.2,0.5,2.1,1.3,2.2,2.7c0.2,1.4-0.3,2.5-1.4,3.4c-0.8,0.6-1.7,0.9-2.8,1.1C393.2,41.9,392.7,42,392.4,41.9z"/>
	<path class="st0" d="M288.2,38.2c1,0.7,2,1.1,3.1,1.2c0.9,0.1,1.7,0.2,2.6,0c0.3-0.1,0.6-0.2,0.9-0.5c0.5-0.5,0.5-1.2-0.1-1.6
		c-0.3-0.3-0.7-0.4-1.1-0.5c-0.9-0.3-1.9-0.5-2.8-0.8c-0.3-0.1-0.7-0.2-1-0.3c-3.1-1.2-2.7-4.7-0.9-6.1c0.7-0.5,1.5-0.9,2.4-1
		c1.9-0.4,3.8-0.2,5.6,0.6c0.7,0.3,0.7,0.3,0.4,1.1c-0.2,0.4-0.3,0.8-0.5,1.3c-0.1,0.2-0.2,0.3-0.4,0.2c-0.7-0.4-1.4-0.6-2.1-0.7
		c-0.7-0.1-1.5-0.2-2.2,0c-0.4,0.1-0.8,0.2-1.1,0.5c-0.6,0.6-0.5,1.5,0.3,1.9c0.6,0.3,1.3,0.5,2,0.6c0.8,0.2,1.6,0.4,2.4,0.7
		c0.5,0.2,1,0.4,1.4,0.8c1.2,1,1.5,2.6,0.8,4c-0.4,0.8-1,1.4-1.8,1.8c-1.2,0.6-2.5,0.8-3.8,0.7c-1.4,0-2.7-0.3-4-0.9
		c-1-0.5-1-0.5-0.6-1.5C287.7,39.1,287.9,38.6,288.2,38.2z"/>
	<path class="st0" d="M256.2,51.1c0,0.3-0.2,0.4-0.3,0.6c-1.3,1.8-2.6,3.6-3.9,5.3c-0.3,0.4-0.3,0.4,0,0.9c1.4,1.9,2.8,3.9,4.2,5.8
		c0.1,0.1,0.2,0.3,0.3,0.5c-0.1,0.2-0.2,0.1-0.3,0.1c-0.9,0-1.7,0-2.6,0c-0.3,0-0.6-0.1-0.8-0.4c-0.8-1.2-1.7-2.4-2.5-3.7
		c-0.1-0.1-0.2-0.3-0.4-0.4c-0.2,0.1-0.3,0.3-0.4,0.5c-0.8,1.2-1.6,2.4-2.4,3.6c-0.2,0.3-0.4,0.4-0.8,0.4c-0.8,0-1.6,0-2.3,0
		c-0.2,0-0.3,0-0.5-0.1c0-0.2,0.2-0.4,0.3-0.5c1.4-1.9,2.7-3.8,4.1-5.6c0.4-0.5,0.4-0.4,0-0.9c-1.3-1.8-2.6-3.6-3.9-5.4
		c-0.1-0.2-0.3-0.3-0.3-0.5c0.2-0.1,0.4-0.1,0.5-0.1c0.7,0,1.5,0,2.2,0c0.4,0,0.7,0.1,0.9,0.5c0.8,1.1,1.5,2.2,2.3,3.3
		c0.1,0.1,0.2,0.3,0.4,0.4c0.2-0.1,0.3-0.3,0.4-0.5c0.8-1.1,1.6-2.2,2.3-3.4c0.2-0.3,0.4-0.4,0.7-0.4
		C254.4,51.1,255.3,51.1,256.2,51.1z"/>
	<path class="st0" d="M120.5,73.6c1,0,2,0,3,0c0.2,0,0.3,0.2,0.3,0.3c0.3,0.8,0.7,1.5,1,2.3c0.9,2.1,1.7,4.1,2.6,6.2
		c0.1,0.1,0.1,0.3,0.2,0.5c0.2-0.1,0.2-0.3,0.3-0.5c1.2-2.7,2.4-5.5,3.6-8.2c0.2-0.4,0.3-0.5,0.8-0.5c0.8,0,1.6,0,2.4,0
		c0,0.2-0.1,0.4-0.1,0.6c-1.7,4-3.5,8-5.2,12.1c-0.2,0.4-0.3,0.5-0.7,0.5c-0.7,0-1.3,0-2,0c-0.4,0-0.5-0.1-0.7-0.5
		c-1.4-3.4-2.9-6.7-4.3-10.1c-0.3-0.7-0.6-1.5-0.9-2.2C120.5,73.9,120.5,73.8,120.5,73.6z"/>
	<path class="st0" d="M334.7,51.1c1,0,1.9,0,2.8,0c0.3,0,0.4,0.2,0.5,0.4c0.7,1.1,1.3,2.2,2,3.4c0.3,0.5,0.7,1.1,1,1.6
		c0.1,0.1,0.1,0.3,0.3,0.4c0.2-0.1,0.2-0.3,0.3-0.5c1-1.6,1.9-3.2,2.9-4.8c0.2-0.4,0.5-0.5,0.9-0.5c0.7,0,1.5,0,2.2,0
		c0.1,0.3-0.1,0.4-0.2,0.6c-1.5,2.5-3,5-4.5,7.5c-0.2,0.3-0.3,0.6-0.3,1c0,1.2,0,2.4,0,3.5c0,0.5,0,0.5-0.5,0.5c-0.7,0-1.3,0-2,0
		c-0.5,0-0.5,0-0.5-0.5c0-1.2,0-2.4,0-3.6c0-0.4-0.1-0.7-0.3-1.1c-1.5-2.4-2.9-4.9-4.4-7.3C334.9,51.6,334.7,51.4,334.7,51.1z"/>
	<path class="st0" d="M218.3,28.6c1.7,0,3.4,0,5.1,0c0.6,0,0.6,0,0.6,0.6c0,0.5,0,1,0,1.5c0,0.4,0,0.4-0.4,0.4c-1,0-2,0-3,0
		c-0.1,0-0.3,0-0.4,0c-0.2,0-0.3,0.1-0.3,0.3c0,0.1,0,0.3,0,0.4c0,3,0,6.1,0,9.1c0,0.1,0,0.3,0,0.4c0,0.3-0.1,0.3-0.4,0.3
		c-0.8,0-1.6,0-2.3,0c-0.2,0-0.3-0.1-0.3-0.3c0-0.1,0-0.3,0-0.4c0-3,0-6,0-9c0-0.1,0-0.3,0-0.4c0-0.5,0-0.5-0.5-0.5c-1,0-2,0-3,0
		c-0.6,0-0.7,0.2-0.7-0.7c0-0.4,0-0.8,0-1.2c0-0.6,0-0.6,0.6-0.6C214.9,28.6,216.6,28.6,218.3,28.6z"/>
	<path class="st0" d="M225.1,51.1c1.7,0,3.4,0,5.2,0c0.5,0,0.5,0,0.5,0.5c0,0.5,0,1,0,1.5c0,0.4,0,0.4-0.4,0.4c-1,0-2,0-3,0
		c-0.1,0-0.3,0-0.4,0c-0.3,0-0.4,0.1-0.4,0.3c0,0.1,0,0.3,0,0.4c0,3,0,6.1,0,9.1c0,0.1,0,0.3,0,0.4c0,0.3-0.1,0.4-0.3,0.4
		c-0.8,0-1.6,0-2.3,0c-0.3,0-0.4-0.1-0.3-0.4c0-0.1,0-0.3,0-0.4c0-3,0-6,0-9c0-0.1,0-0.3,0-0.4c0-0.4,0-0.4-0.4-0.4
		c-1,0-1.9,0-2.9,0c-1,0-0.9,0.2-0.9-0.9c0-0.4,0-0.8,0-1.2c0-0.3,0.1-0.4,0.4-0.4c0.7,0,1.5,0,2.2,0C223,51.1,224,51.1,225.1,51.1z
		"/>
	<path class="st0" d="M288.9,57.7c0-2,0-3.9,0-5.9c0-0.1,0-0.3,0-0.4c0-0.2,0.1-0.3,0.3-0.3c0.8,0,1.7,0,2.5,0
		c0.2,0,0.3,0.1,0.3,0.3c0,0.1,0,0.3,0,0.4c0,3,0,6.1,0,9.1c0,0.1,0,0.3,0,0.4c0,0.4,0,0.4,0.4,0.4c1.8,0,3.6,0,5.3,0
		c0.1,0,0.3,0,0.4,0c0.2,0,0.4,0.1,0.4,0.3c0,0.6,0,1.2,0,1.8c0,0.2-0.1,0.3-0.3,0.3c-0.1,0-0.3,0-0.4,0c-2.7,0-5.5,0-8.2,0
		c-0.1,0-0.1,0-0.2,0c-0.5,0-0.5,0-0.5-0.5c0-0.8,0-1.6,0-2.3C288.9,60.2,288.9,58.9,288.9,57.7z"/>
	<path class="st0" d="M345.8,34c0,1.5,0,3,0,4.5c0,0.1,0,0.3,0,0.4c0,0.4,0,0.4,0.4,0.4c0.5,0,1,0,1.5,0c1.4,0,2.8,0,4.1,0
		c0.5,0,0.5,0,0.5,0.5c0,0.5,0,1.1,0,1.6c0,0.3-0.1,0.4-0.4,0.4c-0.2,0-0.4,0-0.5,0c-2.7,0-5.3,0-8,0c-0.1,0-0.3,0-0.4,0
		c-0.2,0-0.3-0.1-0.3-0.3c0-0.1,0-0.3,0-0.4c0-3.9,0-7.9,0-11.8c0-0.7,0-0.7,0.7-0.7c0.6,0,1.2,0,1.8,0c0.5,0,0.5,0,0.5,0.5
		C345.8,30.7,345.8,32.4,345.8,34z"/>
	<path class="st0" d="M198,57.7c0-1.9,0-3.9,0-5.8c0-0.1,0-0.3,0-0.4c0-0.2,0.1-0.3,0.3-0.3c0.8,0,1.6,0,2.4,0
		c0.2,0,0.3,0.1,0.3,0.3c0,0.2,0,0.3,0,0.5c0,3,0,6.1,0,9.1c0,0.1,0,0.2,0,0.3c0,0.5,0,0.5,0.5,0.5c1.8,0,3.6,0,5.3,0
		c0.1,0,0.3,0,0.4,0c0.2,0,0.3,0.1,0.3,0.3c0,0.6,0,1.2,0,1.8c0,0.2-0.1,0.3-0.3,0.3c-0.1,0-0.2,0-0.3,0c-2.8,0-5.5,0-8.3,0
		c-0.1,0-0.3,0-0.4,0c-0.2,0-0.3-0.1-0.3-0.3c0-0.1,0-0.3,0-0.4C198,61.6,198,59.6,198,57.7z"/>
	<path class="st0" d="M182.3,80.2c0-1.9,0-3.8,0-5.8c0-0.1,0-0.3,0-0.4c0-0.2,0.1-0.3,0.3-0.3c0.8,0,1.6,0,2.4,0
		c0.2,0,0.3,0.1,0.3,0.3c0,0.2,0,0.3,0,0.5c0,3.1,0,6.1,0,9.2c0,0.7,0,0.7,0.7,0.7c1.7,0,3.4,0,5.2,0c0.1,0,0.3,0,0.4,0
		c0.2,0,0.3,0.1,0.3,0.3c0,0.6,0,1.2,0,1.8c0,0.2-0.1,0.3-0.3,0.3c-0.1,0-0.3,0-0.4,0c-2.8,0-5.5,0-8.3,0c-0.1,0-0.3,0-0.4,0
		c-0.2,0-0.3-0.1-0.3-0.3c0-0.1,0-0.3,0-0.4C182.3,84,182.3,82.1,182.3,80.2z"/>
	<path class="st0" d="M212.4,57.8c0,1.9,0,3.8,0,5.8c0,0.1,0,0.3,0,0.4c0,0.3-0.1,0.4-0.4,0.4c-0.6,0-1.1,0-1.7,0
		c-0.2,0-0.4,0-0.7,0c-0.3,0-0.4-0.1-0.3-0.4c0-0.1,0-0.2,0-0.3c0-3.9,0-7.8,0-11.8c0-0.1,0-0.2,0-0.3c0-0.3,0.1-0.4,0.4-0.4
		c0.8,0,1.5,0,2.3,0c0.4,0,0.4,0,0.4,0.4c0,1.4,0,2.8,0,4.2C212.4,56.4,212.4,57.1,212.4,57.8z"/>
	<path class="st0" d="M333.3,57.8c0,1.9,0,3.8,0,5.8c0,0.1,0,0.3,0,0.4c0,0.3-0.1,0.4-0.4,0.4c-0.6,0-1.1,0-1.7,0
		c-0.2,0-0.4,0-0.7,0c-0.3,0-0.4-0.1-0.3-0.4c0-0.1,0-0.2,0-0.3c0-3.9,0-7.8,0-11.8c0-0.1,0-0.2,0-0.3c0-0.3,0.1-0.4,0.4-0.4
		c0.8,0,1.5,0,2.3,0c0.4,0,0.4,0,0.4,0.4c0,1.4,0,2.7,0,4.1C333.3,56.3,333.3,57,333.3,57.8z"/>
	<path class="st0" d="M399.9,35.2c0-1.9,0-3.8,0-5.8c0-0.1,0-0.3,0-0.4c0-0.4,0-0.4,0.4-0.4c0.5,0,1.1,0,1.6,0c0.3,0,0.5,0,0.8,0
		c0.2,0,0.3,0.1,0.3,0.3c0,0.1,0,0.3,0,0.4c0,3.9,0,7.8,0,11.8c0,0.1,0,0.2,0,0.3c0,0.4,0,0.4-0.4,0.4c-0.7,0-1.5,0-2.2,0
		c-0.4,0-0.4,0-0.4-0.4c0-1.2,0-2.4,0-3.6C399.9,36.9,399.9,36,399.9,35.2z"/>
	<path class="st0" d="M354.1,35.1c0-1.9,0-3.9,0-5.8c0-0.1,0-0.3,0-0.4c0-0.2,0.1-0.3,0.3-0.3c0.8,0,1.7,0,2.5,0
		c0.2,0,0.3,0.1,0.3,0.3c0,0.1,0,0.3,0,0.4c0,3.9,0,7.9,0,11.8c0,0.7,0,0.7-0.6,0.7c-0.6,0-1.3,0-1.9,0c-0.5,0-0.5,0-0.5-0.5
		C354.1,39.2,354.1,37.2,354.1,35.1z"/>
	<path class="st0" d="M165.4,80.2c0,1.9,0,3.8,0,5.8c0,0.1,0,0.3,0,0.4c0,0.2-0.1,0.3-0.3,0.3c-0.8,0-1.6,0-2.4,0
		c-0.2,0-0.3-0.1-0.3-0.3c0-0.1,0-0.3,0-0.4c0-3.9,0-7.8,0-11.7c0-0.1,0-0.3,0-0.4c0-0.2,0.1-0.3,0.3-0.3c0.8,0,1.6,0,2.4,0
		c0.2,0,0.3,0.1,0.3,0.3c0,0.1,0,0.3,0,0.4C165.4,76.3,165.4,78.3,165.4,80.2z"/>
	<path class="st0" d="M217.3,80.2c0,1.9,0,3.9,0,5.8c0,0.1,0,0.3,0,0.4c0,0.2-0.1,0.3-0.3,0.3c-0.8,0-1.6,0-2.4,0
		c-0.2,0-0.3-0.1-0.3-0.3c0-0.1,0-0.3,0-0.4c0-3.9,0-7.8,0-11.7c0-0.1,0-0.2,0-0.3c0-0.3,0.1-0.4,0.3-0.4c0.8,0,1.5,0,2.3,0
		c0.4,0,0.4,0,0.4,0.4c0,1.3,0,2.6,0,3.9C217.3,78.7,217.3,79.4,217.3,80.2z"/>
	<path class="st0" d="M196.2,35.1c0-1.9,0-3.8,0-5.8c0-0.1,0-0.3,0-0.4c0-0.2,0.1-0.3,0.3-0.3c0.8,0,1.6,0,2.4,0
		c0.2,0,0.3,0.1,0.3,0.3c0,0.1,0,0.3,0,0.4c0,3.9,0,7.9,0,11.8c0,0.7,0,0.7-0.6,0.7c-0.6,0-1.2,0-1.8,0c-0.5,0-0.5,0-0.5-0.5
		C196.2,39.2,196.2,37.1,196.2,35.1z"/>
	<path class="st0" d="M193.7,80.1c0-1.9,0-3.8,0-5.8c0-0.1,0-0.3,0-0.4c0-0.2,0.1-0.4,0.3-0.4c0.8,0,1.6,0,2.3,0
		c0.2,0,0.3,0.1,0.3,0.3c0,0.1,0,0.2,0,0.3c0,3.9,0,7.9,0,11.8c0,0.7,0,0.7-0.6,0.7c-0.6,0-1.3,0-1.9,0c-0.4,0-0.5,0-0.5-0.4
		c0-1,0-2,0-2.9C193.7,82.3,193.7,81.2,193.7,80.1z"/>
	<path class="st0" d="M140.4,27.9c-0.2,0.7-0.4,1.4-0.6,2.1c0,0.1-0.1,0.3-0.1,0.4c-0.1,0.3,0,0.4,0.2,0.6c0.9,0.6,0.8,2.1,0.2,2.7
		c-0.5,0.5-1.3,0.7-2.1,0.4c-0.7-0.3-1.1-0.8-1.1-1.6c0-0.4,0.1-0.9,0.2-1.3c0.4-1,0.8-2,1.2-3c0.1-0.2,0.2-0.4,0.5-0.3
		C139.4,27.8,139.8,27.8,140.4,27.9z"/>
</g>
</svg>
