<?xml version="1.0" encoding="utf-8"?>
<!-- Generator: Adobe Illustrator 28.0.0, SVG Export Plug-In . SVG Version: 6.00 Build 0)  -->
<svg version="1.1" id="Layer_1" xmlns="http://www.w3.org/2000/svg" xmlns:xlink="http://www.w3.org/1999/xlink" x="0px" y="0px"
	 viewBox="0 0 360 120" style="enable-background:new 0 0 360 120;" xml:space="preserve">
<style type="text/css">
	.st0{fill:#2A3272;}
	.st1{fill:#2C3373;}
	.st2{fill:#2E3574;}
	.st3{fill:#6A9B42;}
	.st4{fill:#6E9D45;}
	.st5{fill:#6C9C43;}
	.st6{fill:#333876;}
	.st7{fill:#343A76;}
	.st8{fill:#6B9C43;}
	.st9{fill:#323875;}
	.st10{fill:#3C3F7A;}
	.st11{fill:#2F358C;}
	.st12{fill:#45296F;}
	.st13{fill:#353180;}
	.st14{fill:#374590;}
	.st15{fill:#7C88C1;}
	.st16{fill:#4D5291;}
	.st17{fill:#636EAE;}
	.st18{fill:#4657A0;}
	.st19{fill:#DCE3F3;}
	.st20{fill:#FCFCFD;}
	.st21{fill:#22235B;}
	.st22{fill:#C0CBE8;}
	.st23{fill:#3B3F65;}
	.st24{fill:#252546;}
	.st25{fill:#1B1A34;}
	.st26{fill:#98A8D6;}
	.st27{font-family:'TimesNewRomanPS-BoldMT';}
	.st28{font-size:21px;}
</style>
<g>
	<path class="st0" d="M106.8,48.7c2.3-0.1,4.5-0.2,6.8-0.3c0.5,0,1.1,0,1.7,0c-1.1,2.5-2.1,5-3.2,7.6c3.1,0,6.2,0,9.2,0
		c0.1,0.3-0.1,0.4-0.2,0.6c-3.8,5.4-6.7,11.4-9.2,17.5c-3.6,8.9-6.4,18.2-8.7,27.6c-0.1,0.5-0.3,0.6-0.8,0.6
		c-5.3-0.6-10.7-1.1-16-1.5c-7.3-0.5-14.7-0.8-22-0.8c-5.7-0.1-11.5,0.1-17.2,0.2c-6.2,0.2-12.4,0.6-18.5,1.2
		c-2.8,0.2-5.6,0.6-8.4,0.9c-0.6,0.1-0.7-0.2-0.8-0.6c-1.9-8.1-4.3-16.1-7.2-23.8C9.7,71.3,6.9,65,3.2,59.1c-0.6-1-1.3-1.9-2-2.9
		c0.3,0,0.5-0.1,0.8-0.1c2.6,0,5.2-0.1,7.8-0.1c0.7,0,0.7,0,0.4-0.7c-0.9-2.1-1.8-4.2-2.7-6.3c-0.1-0.2-0.2-0.4-0.3-0.7
		c2.2,0.1,4.3,0.2,6.4,0.3c0.6,0,1.2,0,1.7,0.1c0.5,0.1,0.5-0.1,0.4-0.5c-0.7-2-1.4-3.9-2.1-5.9c0-0.1-0.1-0.3-0.2-0.5
		c4.6,0.2,9,1,13.4,2.3c-2.5,0.5-4.9,1-7.4,1.6c0.8,2,1.5,4.1,2.2,6.1c3.8,10.9,6.8,22,8.8,33.3c0.2,0.9,0.3,1.9,0.4,2.8
		c0.1,0.5,0.2,0.7,0.8,0.7c7.6,0.3,15,1.6,22,4.6c2.5,1.1,4.8,2.5,7,4.1c0.3,0.2,0.4,0.3,0.7,0c4.7-3.7,10.2-5.7,15.9-7.1
		c4.4-1,8.8-1.6,13.3-1.7c0.4,0,0.5-0.2,0.5-0.5c1.8-11.3,4.7-22.4,8.3-33.3c1-2.9,2-5.7,3.1-8.6c0.2-0.5,0.1-0.7-0.4-0.8
		c-2.3-0.5-4.5-0.9-6.8-1.5c4.4-1.2,8.8-2.1,13.4-2.3c-0.8,2.3-1.6,4.6-2.3,6.8C106.6,48.7,106.7,48.8,106.8,48.7
		C106.7,48.8,106.7,48.8,106.8,48.7z M73.4,93.9c4.3-0.6,8.7-0.9,13.1-1c3-0.1,5.9,0.1,8.9,0.2c0.4,0,0.5-0.1,0.6-0.5
		c0.3-1.4,0.6-2.8,0.9-4.2c2.2-9.1,4.8-18.1,8.2-26.9c1.3-3.4,2.8-6.8,4.5-10c-1.1-0.4-2.2-0.7-3.3-1.1c-0.5-0.2-0.6,0-0.7,0.4
		c-0.6,2.1-1.3,4.1-2,6.1c-3.5,11.4-7.3,22.7-9.6,34.5c-0.1,0.3-0.2,0.4-0.5,0.4c-2.9-0.3-5.8-0.2-8.6,0c-3.9,0.3-7.7,0.9-11.5,1.9
		c-0.4,0.1-0.7,0.2-1.1,0.3c0,0,0,0.1,0,0.1C72.7,94,73,93.9,73.4,93.9z M12.9,51.5c0.2,0.5,0.5,0.9,0.7,1.3c3,6.1,5.4,12.5,7.5,19
		c2.2,6.8,4,13.7,5.5,20.6c0.1,0.5,0.3,0.6,0.8,0.6c1.4-0.1,2.8-0.2,4.2-0.2c5.3,0,10.6,0,15.8,0.7c0.8,0.1,1.5,0.2,2.3,0.3
		c-0.1-0.1-0.2-0.2-0.3-0.2c-4.4-1.1-8.9-1.8-13.5-2.1c-2.2-0.1-4.5-0.1-6.7,0.1c-0.4,0-0.6,0-0.7-0.6c-0.2-1.8-0.7-3.5-1.1-5.3
		c-2.2-8.8-4.9-17.5-7.6-26.2c-0.9-3-1.9-6-2.9-9c-0.1-0.2-0.1-0.6-0.5-0.4C15.3,50.8,14.1,51.1,12.9,51.5z M90.4,96.1
		c0.1,0,0.1,0.1,0.1,0.1c2.9,0.7,5.9,1.4,8.8,2.1c1.2,0.3,1.2,0.3,1.5-0.9c3.3-13.3,7.9-26,14.2-38.2c0.2-0.3,0.1-0.4-0.2-0.6
		c-1-0.3-1.9-0.7-2.9-1c-0.9-0.3-0.9-0.3-1.2,0.6c-3.9,10.6-7.1,21.3-10.3,32.1c-0.6,2.1-1.2,4.1-1.8,6.2c-0.1,0.2,0,0.5-0.5,0.4
		C95.6,96.1,93,96.1,90.4,96.1z M32.1,96.1c-2.5,0-5.1-0.1-7.5,0.7c-0.4,0.1-0.6,0.1-0.7-0.4c-2-7-4.1-14-6.3-21
		c-1.8-5.9-3.8-11.7-5.8-17.4c-0.2-0.5-0.3-0.6-0.9-0.4c-1,0.4-2.1,0.8-3.1,1.1c-0.4,0.1-0.4,0.2-0.2,0.6
		c4.6,8.9,8.3,18.2,11.3,27.8c1.1,3.6,2.2,7.3,3,11c0.1,0.5,0.2,0.7,0.8,0.5c1.1-0.3,2.1-0.6,3.2-0.8C27.9,97.1,30,96.6,32.1,96.1z
		 M71.9,94.1C71.9,94.1,71.9,94.2,71.9,94.1c-0.1,0.1-0.1,0-0.2,0c0,0,0-0.1,0-0.1C71.9,94.1,71.9,94.1,71.9,94.1z"/>
	<path class="st0" d="M122,34.4c-1.4-1.4-2.8-2.5-4.3-3.5c-4.7-3.1-9.9-5.1-15.4-6.5c-3.9-1-7.9-1.9-12-2.6c-4.6-0.8-9.3-1.3-14-1.7
		c-5.3-0.4-10.6-0.5-15.8-0.5c-8.5,0-17,0.5-25.4,1.8c-7.5,1.1-14.9,2.7-22,5.4c-4.3,1.7-8.3,3.8-11.8,7c-0.3,0.2-0.5,0.5-0.8,0.7
		c0,0,0,0-0.1,0c0-1.3,0-2.7,0-4c0-0.3,0.2-0.4,0.4-0.6c2.3-2.3,5-4,7.9-5.5c4.9-2.5,10.1-4.1,15.5-5.3c7.1-1.7,14.3-2.7,21.5-3.2
		c4.8-0.4,9.7-0.6,14.5-0.5c0.6,0,0.7-0.2,0.7-0.7c0-4.3,0-8.6,0-12.9c0-0.3,0-0.5-0.1-0.8c-0.1-0.3,0.1-0.6,0.4-0.6
		c0.2,0,0.4,0.3,0.4,0.5c-0.2,2.1-0.1,4.3-0.1,6.5c0,2.4,0,4.9,0,7.3c0,0.6,0.2,0.7,0.7,0.7c5.2,0,10.4,0.1,15.6,0.6
		c8.3,0.7,16.5,2,24.6,4.2c5.7,1.6,11.2,3.7,16.1,7.1c1.1,0.8,2.2,1.7,3.2,2.6c0.1,0.1,0.3,0.2,0.3,0.4C122,31.6,122,32.9,122,34.4z
		"/>
	<path class="st0" d="M61.2,106.3c8.3,0,16.6,0,24.9,0c0.5,0,0.6,0,0.5,0.6c-1,4-2,8.1-3,12.1c-0.1,0.4-0.2,0.6-0.7,0.6
		c-2.5,0-5,0-7.5,0c-0.5,0-0.6-0.2-0.6-0.6c0-3.5,0-6.9,0-10.4c0-0.5-0.1-0.7-0.6-0.7c-3.1,0-6.3,0-9.4,0c-5.6,0-11.1,0-16.7,0
		c-0.6,0-0.7,0.2-0.7,0.7c0,3.4,0,6.9,0,10.3c0,0.5-0.1,0.6-0.6,0.6c-2.5,0-5,0-7.5,0c-0.4,0-0.6-0.1-0.7-0.5c-1-4.1-2-8.1-3-12.2
		c-0.1-0.5,0-0.6,0.5-0.6C44.7,106.4,53,106.3,61.2,106.3z"/>
	<path class="st1" d="M0.5,108.3c1.4-1,2.8-1.4,4.1-1.8c3.2-1,6.5-1.3,9.8-1.6c4.2-0.4,8.4-0.8,12.5-1.1c1.8-0.1,3.6-0.2,5.4-0.4
		c0.4,0,0.5,0.1,0.6,0.5c1.1,4.8,2.3,9.6,3.5,14.3c0.3,1.4,0.3,1.4-1.1,1.4c-11.3,0-22.7,0-34,0c-0.6,0-0.8-0.1-0.8-0.8
		c0.1-0.5,0.1-1,0-1.5c-0.1-0.5,0.2-0.7,0.6-0.7c2.2-0.1,4.5-0.1,6.7-0.2c5.2-0.2,10.5-0.3,15.7-0.5c2.7-0.1,5.5-0.2,8.2-0.2
		c0.8,0,0.8,0,0.6-0.8c-0.3-1.4-0.7-2.7-1-4.1c-0.6-2.6-1.4-3.3-4.1-3.6c-2.8-0.3-5.6,0-8.4,0.1c-4.8,0.2-9.6,0.5-14.4,0.7
		C3.2,108.2,2,108.2,0.5,108.3z"/>
	<path class="st1" d="M122,108.3c-7.8-0.4-15.5-0.8-23.2-1.2c-1.6-0.1-3.2,0.1-4.8,0.4c-1.4,0.3-2.2,1.1-2.6,2.4
		c-0.5,1.8-0.9,3.6-1.4,5.4c-0.1,0.5,0.2,0.4,0.5,0.4c2.6,0.1,5.1,0.2,7.7,0.2c5,0.2,10,0.3,15,0.5c2.6,0.1,5.2,0.1,7.8,0.2
		c0.9,0,0.9,0,0.9,1c0,0.5,0,1,0,1.5c0,0.4-0.1,0.5-0.5,0.4c-0.1,0-0.2,0-0.3,0c-11.6,0-23.2,0-34.7,0c-0.7,0-0.7-0.2-0.6-0.7
		c1.2-4.9,2.4-9.8,3.6-14.7c0.1-0.6,0.4-0.8,1-0.8c4.8,0.3,9.7,0.7,14.5,1.2c2.9,0.3,5.9,0.5,8.8,1c2.4,0.4,4.7,0.9,6.9,2
		C121.1,107.7,121.5,107.9,122,108.3z"/>
	<path class="st1" d="M51.8,109.1c0.3,0.2,0.5,0.3,0.7,0.4c0.1,0,0.3,0.2,0.3,0c0-0.5,0.4-0.3,0.6-0.3c2.2,0,4.3,0,6.5,0
		c3.2,0,6.4,0,9.6,0c0.2,0,0.6-0.2,0.6,0.3c0,0.2,0.2,0.1,0.3,0c0.2-0.1,0.4-0.2,0.6-0.3c0.2,0.1,0.1,0.2,0.1,0.4c0,3.2,0,6.3,0,9.5
		c0,0.5-0.1,0.6-0.6,0.4c-1.6-0.6-1.6-0.6-1.6-2.2c0-2.2,0-4.4,0-6.5c0-0.2,0-0.4,0-0.7c-5.1,0-10.1,0-15.1,0c0,1.8,0,3.6,0,5.5
		c0,1,0,2,0.1,2.9c0,0.3-0.1,0.5-0.4,0.6c-0.5,0.1-0.9,0.3-1.4,0.5c-0.4,0.2-0.4,0-0.4-0.3C51.8,115.8,51.8,112.5,51.8,109.1z"/>
	<path class="st2" d="M1.2,67.2c1.1,1.5,1.9,2.9,2.2,4.7C4.5,78.6,5.8,85.4,7,92.1c0.2,1-0.1,1.6-1.2,1.8c-1.6,0.3-3.3,0.4-5,0.6
		c-0.3,0-0.3-0.1-0.3-0.4c0.1-0.3-0.2-0.8,0.4-0.8c1.2-0.1,2.4-0.2,3.6-0.4c0.7-0.1,1-0.4,0.9-1c-0.3-1.9-0.7-3.8-1-5.8
		C4.5,85.8,4.2,86,4,86.1c-1,0.4-2,0.7-3,1.1c-0.1,0.1-0.3,0.1-0.4,0.2c-0.2-0.5-0.1-0.7,0.4-0.9c1-0.3,1.9-0.8,2.8-1.1
		c0.3-0.1,0.5-0.3,0.4-0.6c-0.2-0.9-0.4-1.9-0.5-2.8c-0.1-0.4-0.2-0.4-0.5-0.2c-0.9,0.4-1.8,0.7-2.6,1.1c-0.2-0.6,0-0.8,0.5-1
		c0.7-0.2,1.3-0.5,2-0.8c0.4-0.1,0.4-0.3,0.4-0.6c-0.6-3.2-1.1-6.3-1.6-9.5C1.6,69.6,1.4,68.5,1.2,67.2z"/>
	<path class="st2" d="M121.3,67.4c-0.3,2-0.7,4-1,6c-0.4,2.3-0.8,4.6-1.2,6.8c-0.1,0.4,0.1,0.5,0.4,0.7c0.6,0.2,1.3,0.5,1.9,0.8
		c0.6,0.2,0.6,0.2,0.5,1c-1-0.4-2-0.8-3-1.2c-0.2,1.2-0.4,2.3-0.6,3.4c-0.1,0.3,0.2,0.4,0.4,0.4c0.9,0.4,1.9,0.8,2.8,1.1
		c0.1,0,0.2,0.1,0.4,0.2c0.3,0.1,0.2,0.4,0.2,0.6c-0.1,0.2-0.3,0.1-0.4,0c-1.1-0.4-2.3-0.9-3.4-1.3c-0.4,2-0.7,4-1.1,6
		c-0.1,0.7,0.2,1,0.9,1.1c1.2,0.1,2.4,0.3,3.6,0.4c0.8,0,0.5,0.6,0.5,1c0,0.4-0.4,0.2-0.5,0.2c-1.4-0.1-2.8-0.3-4.2-0.5
		c-0.5-0.1-0.9-0.1-1.3-0.4c-0.4-0.3-0.6-0.6-0.5-1.1c1.1-5.8,2.1-11.7,3.2-17.5c0.2-1.1,0.5-2.2,0.6-3.3
		C119.4,69.9,120.3,68.7,121.3,67.4z"/>
	<path class="st3" d="M60.5,77.7c0-4.2,0-8.4,0-12.7c0-0.5-0.1-0.7-0.7-0.9c-1.7-0.5-2.6-1.7-3.2-3.3c-0.2-0.4,0-0.4,0.3-0.4
		c1.5-0.1,2.7,0.6,3.5,1.8c0.1,0.2,0.3,0.5,0.4,0.7c0.2-0.3,0.2-0.7,0.3-1c0.7-2.1,2-3.6,4.3-4.1c1-0.2,1-0.2,0.8,0.8
		c-0.6,2.5-1.9,4.5-4.4,5.4c-0.4,0.2-0.3,0.4-0.3,0.7c0,4.2,0,8.3,0,12.5c0,0.1,0,0.2,0,0.3C61.2,77.7,60.8,77.7,60.5,77.7z
		 M61.1,64.3c0.3-0.9,0.8-1.7,1.1-2.5c-0.6,0.5-0.9,1.1-1.2,1.7c-0.3-0.1-0.4-0.6-0.9-0.5C60.5,63.4,60.7,63.9,61.1,64.3z"/>
	<path class="st4" d="M60.5,77.7c0.3,0,0.7,0,1,0c1.4,0.1,2.8,0,4.2,0c1.1,0,1.1,0,1.1,1.1c0,0.6,0,1.2,0,1.7c0,0.5-0.2,0.7-0.7,0.7
		c-3.4,0-6.8,0-10.3,0c-0.5,0-0.7-0.2-0.7-0.7c0-0.7,0-1.4,0-2.1c0-0.5,0.2-0.7,0.7-0.7C57.4,77.7,58.9,77.7,60.5,77.7z"/>
	<path class="st1" d="M61.8,7.3c2,1.1,4,0.6,5.9,0c1.3-0.4,2.7-0.8,4.1-0.6c0.1,0,0.1,0,0.2,0c1.4,0.2,1.5,0.4,1.5,1.8
		c0,0.4,0,0.8,0,1.4c-1.9-1.1-3.7-0.6-5.6-0.1c-1.4,0.4-2.8,0.9-4.4,0.7c-0.1,0-0.1,0-0.2,0c-1.4-0.2-1.6-0.4-1.6-1.9
		C61.8,8.2,61.8,7.8,61.8,7.3z"/>
	<path class="st1" d="M73.5,6.9c-1.9-1.1-3.7-0.7-5.5-0.1c-1,0.3-1.9,0.6-3,0.7c-0.4,0-0.7,0.1-1.1,0.1c-0.8-0.1-1.6-0.1-2.1-0.7
		c-0.4-0.4-0.1-1.1-0.1-1.6c0-0.3,0-0.5,0-0.8c0.1,0,0.1-0.1,0.1-0.1c1.8,1,3.6,0.6,5.4,0c1.2-0.4,2.3-0.8,3.6-0.8
		c0.3,0,0.6,0,0.9,0c1.5,0.2,1.8,0.5,1.8,2C73.5,6.1,73.5,6.5,73.5,6.9z"/>
	<path class="st1" d="M73.5,4.1c-1.6-0.9-3.1-0.8-4.7-0.4c-1.4,0.4-2.7,0.9-4.2,1c-0.3,0-0.6,0-0.9,0c-1.6-0.1-1.9-0.4-1.9-2.1
		c0-0.1,0-0.3,0-0.4c0-0.5,0-0.7,0.6-0.4c1.2,0.6,2.5,0.5,3.7,0.2c1.4-0.3,2.7-0.9,4.1-1.1c1-0.1,1.9,0,2.9,0.4
		c0.3,0.1,0.5,0.3,0.5,0.7C73.5,2.6,73.5,3.3,73.5,4.1z M63.4,3.9c0,0,0.1,0.1,0.1,0.1c0.1-0.1,0-0.1,0-0.2
		c-0.2-0.4-0.1-0.7,0.2-1.2C63,3.1,63,3.3,63.4,3.9z M63.8,2.6C63.7,2.6,63.7,2.6,63.8,2.6C63.7,2.6,63.7,2.6,63.8,2.6
		C63.7,2.6,63.7,2.7,63.8,2.6C63.7,2.7,63.7,2.6,63.8,2.6z"/>
	<path class="st5" d="M60.9,85.3c-1.4,0-2.7,0-4.1,0c-0.5,0-0.7-0.2-0.7-0.7c0-0.6,0-1.1,0-1.7c0-0.4,0.2-0.5,0.5-0.5
		c2.8,0,5.6,0,8.5,0c0.4,0,0.6,0.2,0.6,0.6c0,0.6,0,1.1,0,1.7c0,0.5-0.2,0.7-0.7,0.7C63.7,85.3,62.3,85.3,60.9,85.3z"/>
	<path class="st6" d="M108.9,87.1c-0.3,2-0.6,4-0.9,6c-0.3,2-0.6,4-0.9,6c-0.1,0.9-0.1,0.9,0.8,1.1c4.4,0.8,8.8,1.6,13.2,2.5
		c0.3,0.1,0.9-0.1,0.9,0.6c0,0.4-0.1,0.5-0.5,0.4c-1.3-0.3-2.7-0.5-4-0.8c-3.3-0.7-6.7-1.3-10-2c-0.9-0.2-1.2-0.5-1-1.4
		c0.5-3.6,1-7.2,1.5-10.8C108.1,88.1,108.4,87.6,108.9,87.1z"/>
	<path class="st6" d="M13.7,87c0.8,0.7,0.9,1.5,1,2.4c0.5,3.4,1,6.8,1.5,10.1c0.1,0.9-0.1,1.3-1.1,1.5c-4.6,0.9-9.3,1.8-13.9,2.7
		c-0.2,0-0.5,0.3-0.6-0.1c-0.1-0.3-0.1-0.7,0.5-0.8c3.7-0.7,7.4-1.4,11.1-2.1c0.9-0.2,1.7-0.3,2.6-0.5c0.7-0.1,0.8-0.3,0.7-1
		c-0.2-1.4-0.4-2.9-0.6-4.3C14.4,92.3,14.1,89.7,13.7,87z"/>
	<path class="st6" d="M111.4,83.1c-0.2,1.4-0.4,2.8-0.6,4.2c-0.5,3.4-1,6.7-1.5,10.1c-0.1,0.9-0.1,1,0.9,1.2
		c3.8,0.7,7.6,1.4,11.4,2.1c0.3,0.1,0.5,0.1,0.5,0.5c0,0.3-0.1,0.5-0.5,0.4c-4-0.8-8-1.5-12-2.3c-0.9-0.2-1.2-0.5-1-1.5
		c0.6-4.4,1.3-8.7,1.9-13.1C110.6,84.1,111,83.6,111.4,83.1z"/>
	<path class="st6" d="M11.1,83c1,0.9,1,2.2,1.2,3.3c0.6,3.8,1.1,7.5,1.7,11.3c0.2,1.2,0,1.5-1.2,1.7c-3.9,0.7-7.8,1.5-11.7,2.2
		c-0.2,0-0.5,0.4-0.5-0.1c0-0.3-0.1-0.6,0.4-0.7c2.1-0.4,4.3-0.8,6.4-1.2c1.8-0.3,3.5-0.7,5.3-1c0.6-0.1,0.7-0.4,0.6-0.9
		C12.6,92.8,11.9,88,11.1,83z"/>
	<path class="st7" d="M114.1,79c-0.8,5.5-1.7,10.9-2.5,16.4c0,0.2,0,0.4-0.1,0.7c0,0.4,0.1,0.7,0.6,0.8c3.1,0.5,6.1,1.1,9.2,1.6
		c0.2,0,0.5,0,0.6,0.2c0.3,0.2,0.1,0.5,0.1,0.7c-0.1,0.3-0.3,0.1-0.5,0.1c-3.3-0.6-6.6-1.3-9.9-1.9c-0.6-0.1-0.9-0.5-0.8-1.1
		c0.6-3.9,1.2-7.8,1.8-11.6c0.2-1.3,0.4-2.6,0.6-3.9C113.2,80.1,113.6,79.5,114.1,79z"/>
	<path class="st6" d="M8.6,79c0.8,0.8,0.9,1.9,1,2.9c0.7,4.7,1.4,9.4,2.1,14.1c0.2,1.1,0,1.4-1.1,1.6c-3.2,0.6-6.4,1.2-9.6,1.9
		c-0.2,0-0.5,0.3-0.5-0.1c0-0.3-0.2-0.7,0.3-0.8C2.3,98.3,3.6,98,5,97.8c1.8-0.3,3.7-0.7,5.5-1c0.6-0.1,0.7-0.5,0.6-1
		c-0.3-2.1-0.6-4.3-1-6.4c-0.5-3.3-1-6.7-1.5-10C8.6,79.3,8.6,79.1,8.6,79L8.6,79z"/>
	<path class="st6" d="M5.9,74.8c1,0.9,0.9,2,1.1,3.1c0.9,5.5,1.7,10.9,2.5,16.4c0.2,1.1-0.1,1.5-1.2,1.7c-2.4,0.5-4.8,0.9-7.2,1.4
		c-0.2,0-0.5,0.3-0.5-0.1c0-0.3-0.2-0.7,0.4-0.8c1.3-0.2,2.5-0.5,3.8-0.7C5.9,95.5,7,95.2,8.1,95c0.6-0.1,0.8-0.4,0.7-1
		c-0.2-1.5-0.5-3-0.7-4.5c-0.7-4.7-1.5-9.5-2.2-14.2C5.9,75.2,5.9,75,5.9,74.8z"/>
	<path class="st7" d="M116.7,74.7c-0.7,4.3-1.3,8.4-1.9,12.6c-0.3,2.2-0.7,4.4-1,6.6c-0.1,0.9-0.1,1,0.8,1.1
		c2.3,0.4,4.5,0.8,6.8,1.3c0.3,0,0.6,0,0.6,0.4c0,0.4,0,0.7-0.6,0.6c-2.4-0.5-4.9-1-7.4-1.5c-0.9-0.2-1.1-0.5-1-1.4
		c0.4-2.6,0.8-5.2,1.2-7.8c0.5-3.3,1-6.6,1.5-9.9C115.9,76,116.2,75.4,116.7,74.7z"/>
	<path class="st4" d="M61,88.7c-0.9,0-1.9,0-2.8,0c-0.5,0-0.7-0.2-0.7-0.7c0-1.4,0-1.4,1.4-1.4c1.6,0,3.1,0,4.7,0
		c0.6,0,0.8,0.2,0.8,0.8c0,1.3,0,1.3-1.3,1.3C62.4,88.7,61.7,88.7,61,88.7z"/>
	<path class="st8" d="M46.2,78.2c1.1,0,2,0.9,2,2c0,1.1-0.9,2-2,2c-1.1,0-2-0.9-2-2C44.2,79.1,45.1,78.2,46.2,78.2z"/>
	<path class="st8" d="M54.3,43.4c-1.1,0-2-0.9-2-2c0-1.1,0.9-2,2-2c1.1,0,2,0.9,2,2C56.3,42.5,55.4,43.4,54.3,43.4z"/>
	<path class="st8" d="M76.1,44.5c0,1.1-0.9,2-2,2c-1.1,0-2-0.9-2-2c0-1.1,0.9-2,2-2C75.2,42.6,76,43.4,76.1,44.5z"/>
	<path class="st8" d="M79,47.4c1.1,0,2,0.8,2,1.9c0,1.1-0.9,2-2,2c-1.1,0-2-0.9-2-2C77,48.3,77.9,47.4,79,47.4z"/>
	<path class="st8" d="M68,39.5c1.1,0,2,0.9,2,2c0,1.1-0.9,2-2,1.9c-1.1,0-2-0.9-2-2C65.9,40.3,66.8,39.5,68,39.5z"/>
	<path class="st8" d="M40.3,61.8c0,1.1-0.9,2-2,2c-1.1,0-2-0.9-2-2c0-1.1,0.9-2,2-2C39.5,59.8,40.3,60.7,40.3,61.8z"/>
	<path class="st8" d="M78,75.3c0-1.1,0.9-2,2-2c1.1,0,2,0.9,2,2c0,1.1-0.9,2-2,2C78.9,77.2,78,76.4,78,75.3z"/>
	<path class="st3" d="M48.1,46.3c-1.1,0-2-0.9-2-2c0-1.1,0.9-2,2-2c1.1,0,2,0.9,2,2C50.1,45.5,49.2,46.3,48.1,46.3z"/>
	<path class="st8" d="M82.3,53.4c1.1,0,2,0.9,2,2c0,1.1-0.9,2-2,2c-1.1,0-2-0.9-2-2C80.3,54.3,81.2,53.4,82.3,53.4z"/>
	<path class="st8" d="M43.2,47.1c1.1,0,2,0.9,1.9,2c0,1.1-0.9,2-2,1.9c-1.1,0-2-0.9-1.9-2C41.2,47.9,42.1,47.1,43.2,47.1z"/>
	<path class="st3" d="M39.7,53.1c1.1,0,2,0.9,2,2c0,1.1-0.9,2-2,2c-1.1,0-2-0.9-2-2C37.8,54,38.6,53.1,39.7,53.1z"/>
	<path class="st8" d="M80.8,69c0-1.1,0.9-2,2-2c1.1,0,2,0.9,2,2c0,1.1-0.9,2-2,2C81.7,71,80.8,70.1,80.8,69z"/>
	<path class="st3" d="M41,68.7c0,1.1-0.9,2-2,2c-1.1,0-2-0.9-2-2c0-1.1,0.9-2,2-2C40.1,66.7,41,67.6,41,68.7z"/>
	<path class="st3" d="M39.7,74.9c0-1.1,0.9-2,2-1.9c1.1,0,2,0.9,1.9,2c0,1.1-1,2-2,2C40.6,76.9,39.7,76.1,39.7,74.9z"/>
	<path class="st3" d="M75.5,78.4c1.1,0,2,0.9,2,2c0,1.1-0.9,2-2,2c-1.1,0-2-0.9-2-2C73.5,79.3,74.4,78.4,75.5,78.4z"/>
	<path class="st3" d="M85.5,62.2c0,1.1-0.8,2-2,2c-1.1,0-1.9-0.8-1.9-2c0-1.1,0.8-2,2-2C84.7,60.2,85.6,61,85.5,62.2z"/>
	<path class="st3" d="M61.1,42.3c-1.1,0-2-0.9-2-2c0-1.1,0.9-1.9,2-1.9c1.1,0,2,0.9,2,2C63.1,41.5,62.2,42.3,61.1,42.3z"/>
	<path class="st6" d="M29.8,34.5c0.2-0.8,0.3-1.5,0.4-2.2c0.1-0.5,0.5-0.5,0.8-0.5c0.4,0,0.3,0.3,0.3,0.5c0.1,0.8,0.2,1.7,0.4,2.5
		c0.1,0.3-0.1,0.4-0.3,0.5C31,35.4,31,35.2,31,35c-0.1-0.4-0.1-0.9-0.2-1.4c-0.3,0.5-0.3,1-0.4,1.4c-0.1,0.2,0,0.5-0.3,0.6
		c-0.4,0.1-0.5-0.2-0.6-0.4c-0.2-0.3-0.3-0.8-0.5-0.7c-0.4,0.1-0.1,0.6,0,0.9c0.1,0.3-0.1,0.4-0.4,0.4c-0.3,0.1-0.3-0.1-0.4-0.3
		c-0.1-0.9-0.3-1.8-0.4-2.6c0-0.2-0.2-0.5,0.2-0.5c0.3,0,0.6-0.2,0.8,0.3C29.1,33.2,29.5,33.8,29.8,34.5z M28.7,33.9
		c0,0.1-0.1,0.3,0,0.4c0.1,0.1,0.2,0,0.2,0C28.9,34.1,28.9,34,28.7,33.9z"/>
	<path class="st7" d="M54.8,31.2c0,0.7,0,1.2,0,1.7c0,0.3-0.1,0.4-0.4,0.4c-0.2,0-0.4,0-0.4-0.4c0-0.9-0.1-1.9-0.1-2.8
		c0-0.2,0-0.4,0.2-0.4c0.2,0,0.5,0,0.6,0.2c0.4,0.6,0.8,1.1,1.2,1.8c0.2-0.6,0.1-1,0-1.5c0-0.3,0.1-0.5,0.5-0.5
		c0.4,0,0.3,0.2,0.3,0.5c0,0.8,0,1.7,0,2.5c0,0.2,0.2,0.4-0.1,0.5c-0.3,0-0.5,0.1-0.7-0.2C55.7,32.4,55.3,31.9,54.8,31.2z"/>
	<path class="st6" d="M42.6,32.4c0-0.5-0.1-1-0.1-1.5c-0.1-0.4,0.1-0.4,0.4-0.4c0.3,0,0.4,0.1,0.4,0.4c0.1,0.9,0.2,1.8,0.2,2.6
		c0,0.2,0.1,0.4-0.2,0.5c-0.2,0.1-0.5,0.1-0.7-0.2c-0.3-0.4-0.6-0.8-0.9-1.2c-0.1-0.1-0.2-0.3-0.3-0.2c-0.2,0.1-0.1,0.3-0.1,0.4
		c0,0.3,0,0.6,0.1,0.9c0,0.2,0,0.4-0.3,0.5c-0.3,0-0.4-0.1-0.5-0.4c-0.1-0.9-0.2-1.9-0.3-2.8c0-0.1-0.1-0.3,0.1-0.3
		c0.3,0,0.5-0.1,0.7,0.1c0.4,0.5,0.8,1.1,1.3,1.6C42.5,32.4,42.6,32.4,42.6,32.4z M41.3,32.1c0,0-0.1,0.1-0.1,0.1c0,0,0,0.1,0,0.1
		c0.1,0,0.1,0,0.1-0.1C41.4,32.2,41.3,32.1,41.3,32.1z"/>
	<path class="st9" d="M56.8,25.5c0,0.5,0,1,0,1.5c0,0.3-0.1,0.4-0.4,0.4c-0.3,0-0.4-0.1-0.4-0.4c0-0.8-0.1-1.7-0.1-2.5
		c0-0.2-0.1-0.5,0.2-0.6c0.3-0.1,0.6-0.1,0.8,0.2c0.4,0.6,0.8,1.1,1.3,1.9c0-0.7,0-1.3,0-1.8c0-0.3,0.1-0.4,0.4-0.4
		c0.3,0,0.4,0,0.4,0.4c0,0.9,0,1.7,0,2.6c0,0.2,0.1,0.4-0.1,0.5c-0.3,0.1-0.6,0.1-0.8-0.2c-0.3-0.6-0.7-1.1-1.1-1.6
		C56.9,25.5,56.9,25.5,56.8,25.5z"/>
	<path class="st6" d="M58.3,31.4c0,0.5,0,1,0,1.5c0,0.3-0.1,0.4-0.4,0.4c-0.3,0-0.3-0.2-0.3-0.4c0-0.8,0-1.7,0-2.5
		c0-0.2-0.2-0.5,0.1-0.6c0.3-0.1,0.6-0.1,0.8,0.3c0.3,0.6,0.7,1.1,1.1,1.7c0.2-0.6,0.1-1.1,0.1-1.5c0-0.3,0-0.5,0.4-0.5
		c0.4,0,0.4,0.3,0.4,0.5c0,0.8,0,1.7,0,2.5c0,0.2,0.1,0.4-0.2,0.5c-0.3,0-0.5,0-0.7-0.3c-0.3-0.6-0.7-1.1-1.1-1.6
		C58.5,31.3,58.4,31.4,58.3,31.4z"/>
	<path class="st9" d="M78.3,28.1c-1.2-0.1-1.2-0.1-1.1-1.3c0.1-0.6,0.1-1.3,0.1-1.9c0-0.3,0.2-0.5,0.5-0.4c0.5,0.1,1,0,1.5,0.2
		c0.6,0.2,0.9,0.8,0.5,1.4c-0.1,0.1-0.2,0.1-0.2,0.4c0.4,1.2,0.1,1.7-1.2,1.6C78.4,28.1,78.3,28.1,78.3,28.1z M78.5,27.5
		c0.3,0,0.6-0.1,0.6-0.5c0-0.5-0.4-0.4-0.8-0.5c-0.4-0.1-0.4,0.2-0.5,0.5C77.9,27.6,78.3,27.4,78.5,27.5z M78.5,25.9
		c0.4,0,0.7,0.1,0.7-0.3c0-0.5-0.5-0.3-0.8-0.4c-0.4-0.1-0.3,0.2-0.3,0.4C78,26,78.3,25.9,78.5,25.9z"/>
	<path class="st7" d="M63.7,27.3c-0.6,0.2-1,0-1.1-0.6c0-0.2-0.2-0.4-0.3-0.5c-0.1-0.2-0.3-0.2-0.5-0.2c-0.2,0-0.2,0.2-0.2,0.4
		c0,0.2,0,0.4,0,0.6c0,0.3-0.2,0.3-0.4,0.3c-0.2,0-0.4,0-0.4-0.3c0-0.9,0-1.9-0.1-2.8c0-0.3,0.1-0.4,0.4-0.4c0.5,0,1,0,1.5,0.1
		c0.8,0.1,1.3,1,0.8,1.6c-0.3,0.4-0.2,0.7,0,1C63.5,26.8,63.6,27.1,63.7,27.3z M61.9,25.4c0.4,0,0.8,0,0.8-0.5
		c0-0.5-0.4-0.4-0.7-0.5c-0.4-0.1-0.4,0.1-0.4,0.4C61.6,25.3,61.7,25.5,61.9,25.4z"/>
	<path class="st9" d="M35.1,29c-0.3,0.1-0.3-0.1-0.4-0.4c-0.1-0.9-0.2-1.8-0.3-2.7c0-0.3,0-0.4,0.3-0.4c0.5-0.1,1.1-0.2,1.6-0.1
		c0.7,0,1,0.6,0.8,1.2c-0.1,0.2-0.1,0.3,0.1,0.5c0.5,0.6,0.3,1.3-0.4,1.6c-0.1,0-0.3,0.1-0.4,0.1C35.9,28.9,35.5,28.9,35.1,29z
		 M36,27.3c-0.3,0.1-0.8-0.1-0.7,0.5c0,0.2,0,0.5,0.4,0.4c0.3-0.1,0.8,0,0.8-0.5C36.6,27.3,36.3,27.3,36,27.3z M35.4,26.8
		c0.5-0.1,0.9,0,0.9-0.5c0-0.3-0.2-0.4-0.4-0.4c-0.2,0.1-0.7-0.2-0.7,0.4C35.2,26.6,35.2,26.8,35.4,26.8z"/>
	<path class="st7" d="M93.3,26.1c0.5,0.1,1.1,0.1,1.4,0.7c0.1,0.2,0.2,0.4,0,0.5c-0.2,0.1-0.5,0.2-0.7-0.2c-0.1-0.4-0.5-0.4-0.8-0.4
		c-0.2,0-0.4,0-0.4,0.3c0,0.2,0.1,0.4,0.3,0.4c0.3,0.1,0.6,0.2,0.9,0.4c0.5,0.2,0.7,0.6,0.7,1.1c-0.1,0.6-0.5,0.8-1,0.9
		C92.8,30,92,29.6,91.8,29c-0.1-0.2-0.3-0.5,0-0.6c0.2-0.1,0.6-0.1,0.7,0.3c0,0.2,0.1,0.3,0.3,0.4c0.3,0.1,0.8,0.3,0.9-0.2
		c0.1-0.4-0.3-0.5-0.6-0.6c-0.2-0.1-0.5-0.2-0.7-0.3c-0.5-0.2-0.7-0.6-0.6-1.1C92.1,26.2,92.7,26.1,93.3,26.1z"/>
	<path class="st6" d="M47.2,27.9c-0.6,0-1.1-0.1-1.4-0.6c-0.1-0.2-0.3-0.4,0-0.6c0.2-0.1,0.5-0.2,0.7,0.1c0.2,0.4,0.5,0.4,0.8,0.4
		c0.2,0,0.4-0.1,0.5-0.4c0-0.3-0.2-0.4-0.4-0.4c-0.3,0-0.6-0.1-0.9-0.1c-0.5-0.1-0.8-0.4-0.8-0.9c0-0.5,0.2-0.8,0.7-1
		c0.7-0.3,1.6-0.2,2,0.3c0.1,0.2,0.4,0.4,0.1,0.5c-0.2,0.1-0.5,0.3-0.7-0.1c-0.2-0.4-0.5-0.3-0.9-0.2c-0.2,0.1-0.4,0.1-0.3,0.3
		c0,0.2,0.1,0.3,0.3,0.4c0.3,0,0.5,0.1,0.8,0.1c0.8,0.2,1.1,0.5,1.1,1.1c0,0.6-0.5,1-1.2,1C47.3,27.9,47.2,27.9,47.2,27.9z"/>
	<path class="st9" d="M55.4,25.8c0,1.1-0.7,1.8-1.7,1.8c-1.1,0-1.8-0.7-1.8-1.9c0-1.1,0.7-1.8,1.7-1.8
		C54.8,23.9,55.4,24.6,55.4,25.8z M54.6,25.8c0-0.8-0.3-1.2-0.9-1.2c-0.6,0-1,0.4-1,1.1c0,0.7,0.4,1.2,0.9,1.2
		C54.2,27,54.6,26.6,54.6,25.8z"/>
	<path class="st9" d="M6.3,40.4c-1,0-1.7-0.9-1.7-2c0-1,0.8-1.7,1.8-1.7c1,0,1.7,0.9,1.7,2.1C8.1,39.8,7.3,40.4,6.3,40.4z M7.3,38.8
		c0-0.8-0.5-1.4-1-1.4c-0.5,0-0.9,0.4-0.9,1c0,0.8,0.5,1.4,1,1.4C7,39.8,7.3,39.4,7.3,38.8z"/>
	<path class="st10" d="M64.1,25.5c0-0.4-0.1-1.1,0.2-1.5c0.3-0.4,1-0.1,1.6-0.1c0.2,0,0.3,0,0.5,0c0.2,0,0.4,0,0.4,0.3
		c0,0.4-0.2,0.4-0.5,0.4c-0.3,0-0.6,0-0.9,0c-0.3,0-0.4,0.1-0.3,0.3c0,0.2,0.1,0.4,0.3,0.4c0.3,0,0.6,0,0.9,0c0.3,0,0.4,0.1,0.3,0.4
		c0,0.2-0.1,0.4-0.3,0.4c-0.3,0-0.5,0-0.8-0.1c-0.3,0-0.5,0.1-0.5,0.4c0,0.4,0.2,0.4,0.5,0.4c0.3,0,0.7,0,1,0.1
		c0.2,0,0.4-0.1,0.4,0.2c0,0.2-0.1,0.4-0.4,0.4c-0.7,0-1.3,0-2-0.1c-0.3,0-0.3-0.2-0.3-0.4C64.1,26.6,64.1,26.1,64.1,25.5z"/>
	<path class="st2" d="M26.3,28c0-1.1,0.7-1.7,1.9-1.7c1,0,1.7,0.8,1.7,2c0,1-0.7,1.7-1.8,1.7C27,30,26.3,29.2,26.3,28z M29,28.3
		c0-0.8-0.4-1.3-0.9-1.3c-0.6,0-1,0.4-1,1c0,0.8,0.4,1.3,1,1.3C28.7,29.3,29,29,29,28.3z"/>
	<path class="st6" d="M64.4,31.5c0,1.2-0.6,1.9-1.7,1.9c-1,0-1.7-0.7-1.7-1.9c0-1.1,0.7-1.8,1.7-1.8C63.8,29.6,64.4,30.3,64.4,31.5z
		 M63.6,31.4c0-0.7-0.3-1.1-0.9-1.1c-0.6,0-0.9,0.5-0.9,1.2c0,0.7,0.3,1.2,0.9,1.2C63.3,32.6,63.6,32.2,63.6,31.4z"/>
	<path class="st9" d="M90.8,34.8c0.1-0.9,0.3-1.8,0.4-2.6c0-0.3,0.1-0.4,0.5-0.4c0.5,0.1,1,0.1,1.5,0.3c0.7,0.3,0.9,1.2,0.4,1.6
		c-0.5,0.4-0.3,0.7-0.2,1.1c0,0.2,0.5,0.6,0,0.7c-0.4,0.1-0.7-0.1-0.8-0.6c0-0.2-0.1-0.4-0.2-0.6c-0.1-0.3-0.3-0.3-0.5-0.3
		c-0.3,0-0.2,0.2-0.3,0.4c-0.1,0.3,0.1,0.7-0.3,0.8C90.8,35.4,90.7,35.1,90.8,34.8z M92.3,33.5c0.4,0,0.7,0,0.7-0.4
		c0-0.4-0.4-0.5-0.7-0.5c-0.5-0.1-0.3,0.4-0.4,0.6C91.7,33.6,92.1,33.5,92.3,33.5z"/>
	<path class="st9" d="M113.2,38.4c0-1.5,1.2-2.4,2.5-1.8c0.4,0.2,0.6,0.4,0.8,0.8c0,0.2,0.2,0.4-0.1,0.5c-0.2,0-0.5,0.1-0.6-0.2
		c-0.1-0.4-0.4-0.6-0.8-0.6c-0.4,0-0.6,0.4-0.8,0.7c-0.4,0.9,0,1.6,0.8,1.6c0.2,0,0.4,0,0.5-0.3c0.1-0.3-0.1-0.3-0.3-0.4
		c-0.3-0.1-0.2-0.2-0.2-0.4c0-0.3,0.2-0.2,0.4-0.2c1,0.2,1.3,0.9,0.7,1.7c0,0.1-0.1,0.1-0.2,0.1C114.7,40.6,113.2,39.7,113.2,38.4z"
		/>
	<path class="st9" d="M68.4,23.9c0.5,0,1.1,0.1,1.4,0.6c0.1,0.2,0.3,0.4,0,0.5c-0.2,0.1-0.5,0.2-0.7-0.1c-0.1-0.1-0.1-0.2-0.1-0.2
		c-0.3-0.3-0.6-0.2-0.9-0.1c-0.2,0-0.3,0.2-0.2,0.4c0.1,0.3,0.4,0.3,0.6,0.4c1.1,0.3,1.4,0.5,1.4,1.1c0,0.3-0.1,0.6-0.3,0.8
		c-0.6,0.6-2.1,0.4-2.5-0.3c-0.1-0.2-0.3-0.5-0.1-0.6c0.2-0.1,0.6-0.3,0.7,0.2c0.1,0.2,0.3,0.3,0.5,0.3c0.3,0.1,0.7,0.1,0.8-0.3
		c0.1-0.4-0.3-0.5-0.6-0.6c-0.2-0.1-0.4-0.1-0.6-0.1c-0.6-0.1-0.9-0.5-0.9-1.1c0-0.6,0.5-0.8,1-0.9C68.2,23.9,68.3,23.9,68.4,23.9z"
		/>
	<path class="st9" d="M108.8,36c0,0.2,0,0.5-0.2,0.6c-0.7,0.4-0.4,0.9-0.3,1.4c0,0.2,0.2,0.5-0.1,0.5c-0.3,0-0.6,0-0.7-0.4
		c0-0.2-0.1-0.5-0.1-0.7c0-0.3-0.2-0.5-0.5-0.5c-0.4,0-0.2,0.3-0.3,0.5c-0.2,0.2,0.1,0.8-0.5,0.7c-0.3,0-0.5-0.2-0.4-0.5
		c0.2-0.9,0.4-1.7,0.6-2.6c0.1-0.3,0.2-0.4,0.5-0.3c0.4,0.1,0.9,0.2,1.3,0.4C108.6,35.1,108.8,35.5,108.8,36z M107.4,36.3
		c0.4,0,0.6-0.1,0.6-0.4c0-0.5-0.4-0.5-0.7-0.5c-0.4-0.1-0.3,0.3-0.4,0.5C106.8,36.4,107.2,36.2,107.4,36.3z"/>
	<path class="st7" d="M39.3,25c0.2,0,0.4,0,0.5-0.1c0.2,0,0.3,0.1,0.3,0.3c0,0.2,0,0.3-0.3,0.4c-0.3,0-0.7,0.1-1,0.1
		c-0.3,0-0.4,0.1-0.4,0.5c0,0.4,0.2,0.3,0.5,0.3c0.2,0,0.4-0.1,0.6,0c0.2,0,0.6-0.2,0.6,0.3c0,0.5-0.3,0.3-0.5,0.3
		c-0.2,0-0.4,0.1-0.6,0.1c-0.4,0-0.4,0.2-0.4,0.5c0,0.4,0.3,0.3,0.5,0.3c0.3,0,0.7-0.1,1-0.1c0.2,0,0.4,0,0.3,0.2
		c0,0.2,0,0.4-0.3,0.4c-0.6,0.1-1.3,0.1-1.9,0.2c-0.3,0-0.4-0.1-0.4-0.3c-0.1-0.9-0.2-1.9-0.3-2.8c0-0.3,0.1-0.4,0.4-0.4
		C38.5,25.1,38.9,25,39.3,25C39.3,25,39.3,25,39.3,25z"/>
	<path class="st5" d="M73,75.7c0,0.8-0.7,1.5-1.5,1.5c-0.8,0-1.4-0.7-1.4-1.5c0-0.8,0.7-1.5,1.5-1.4C72.3,74.2,73,74.9,73,75.7z"/>
	<path class="st5" d="M73.4,71.9c0-0.8,0.6-1.5,1.5-1.5c0.8,0,1.4,0.7,1.4,1.5c0,0.8-0.6,1.4-1.4,1.4C74,73.4,73.4,72.7,73.4,71.9z"
		/>
	<path class="st9" d="M75.1,33.8c-0.5,0-1.1-0.1-1.4-0.8c-0.1-0.2-0.2-0.5,0-0.5c0.2-0.1,0.5-0.1,0.7,0.2c0,0.1,0.1,0.2,0.2,0.3
		c0.3,0.2,0.6,0.3,0.9,0.1c0.2-0.1,0.2-0.2,0.2-0.4c0-0.4-0.3-0.3-0.6-0.4c-0.1,0-0.1,0-0.2-0.1c-0.6-0.1-1.1-0.4-1.1-1.1
		c0-0.6,0.3-0.8,0.8-1c0.7-0.2,1.5,0,1.8,0.5c0.1,0.2,0.3,0.4,0.1,0.6c-0.2,0.1-0.6,0.3-0.7-0.1c-0.1-0.2-0.2-0.3-0.4-0.3
		c-0.3,0-0.6-0.1-0.7,0.2c-0.1,0.4,0.2,0.5,0.5,0.5c0.1,0,0.3,0.1,0.4,0.1c0.8,0.3,1.1,0.6,1,1.2C76.4,33.4,75.9,33.8,75.1,33.8z"/>
	<path class="st6" d="M43.7,24.6c-0.2,0.3-0.3,0.5-0.5,0.6c-0.6,0.5-0.5,1,0,1.5c0.3,0.4,0.6,0.8,0.9,1.2c-0.5,0.3-0.9,0.2-1.2-0.3
		c-0.1-0.2-0.3-0.4-0.5-0.6c-0.1-0.1-0.2-0.4-0.3-0.3c-0.2,0.1-0.3,0.3-0.3,0.5c0,0.2,0,0.4,0.1,0.7c0.1,0.3,0,0.4-0.4,0.5
		c-0.3,0-0.4-0.1-0.5-0.4c-0.1-0.9-0.1-1.9-0.3-2.8c0-0.4,0.2-0.3,0.4-0.4c0.3-0.1,0.4,0,0.4,0.3c0,0.3,0,0.5,0.1,0.9
		C42.4,25.6,42.5,24.4,43.7,24.6z"/>
	<path class="st5" d="M45,65.7c0.8,0,1.4,0.7,1.4,1.5c0,0.8-0.7,1.5-1.5,1.5c-0.8,0-1.4-0.7-1.4-1.5C43.5,66.3,44.2,65.6,45,65.7z"
		/>
	<path class="st5" d="M51.6,75.5c0,0.8-0.6,1.5-1.4,1.5c-0.8,0-1.5-0.7-1.5-1.4c0-0.8,0.6-1.5,1.5-1.5C51,74.1,51.6,74.7,51.6,75.5z
		"/>
	<path class="st5" d="M61.1,45.1c0.8,0,1.4,0.7,1.5,1.4c0,0.8-0.6,1.4-1.4,1.5c-0.8,0-1.5-0.6-1.5-1.5
		C59.7,45.7,60.3,45.1,61.1,45.1z"/>
	<path class="st5" d="M64.6,47.3c0-0.8,0.6-1.4,1.4-1.4c0.8,0,1.5,0.7,1.5,1.5c0,0.8-0.7,1.4-1.4,1.4C65.2,48.8,64.6,48.2,64.6,47.3
		z"/>
	<path class="st5" d="M45.6,55.8c0.8,0,1.4,0.7,1.4,1.5c0,0.8-0.7,1.4-1.5,1.4c-0.8-0.1-1.4-0.7-1.4-1.5
		C44.1,56.4,44.8,55.7,45.6,55.8z"/>
	<path class="st5" d="M46.9,73.1c-0.8,0-1.4-0.7-1.4-1.5c0-0.8,0.7-1.5,1.5-1.4c0.8,0.1,1.4,0.7,1.4,1.5
		C48.4,72.6,47.7,73.2,46.9,73.1z"/>
	<path class="st8" d="M74.1,51.6c0.8,0,1.4,0.6,1.5,1.4c0,0.9-0.6,1.5-1.4,1.5c-0.8,0-1.4-0.7-1.4-1.4
		C72.6,52.3,73.2,51.6,74.1,51.6z"/>
	<path class="st5" d="M78.3,67.4c0,0.8-0.6,1.4-1.4,1.4c-0.8,0-1.5-0.7-1.5-1.5c0-0.8,0.7-1.5,1.5-1.4
		C77.7,65.9,78.3,66.6,78.3,67.4z"/>
	<path class="st8" d="M78.9,62.4c0,0.8-0.6,1.4-1.4,1.4c-0.8,0-1.4-0.6-1.5-1.4c0-0.8,0.7-1.5,1.5-1.5
		C78.2,60.9,78.9,61.6,78.9,62.4z"/>
	<path class="st5" d="M54.7,47.2c0-0.8,0.7-1.4,1.4-1.4c0.8,0,1.4,0.7,1.5,1.4c0,0.8-0.7,1.5-1.5,1.5C55.3,48.7,54.7,48,54.7,47.2z"
		/>
	<path class="st8" d="M51.7,50.9c-0.8,0-1.5-0.6-1.5-1.4c0-0.8,0.6-1.5,1.5-1.5c0.8,0,1.5,0.7,1.5,1.4
		C53.1,50.2,52.5,50.9,51.7,50.9z"/>
	<path class="st8" d="M46.6,52.9c0-0.8,0.6-1.5,1.4-1.5c0.8,0,1.4,0.6,1.5,1.4c0,0.8-0.7,1.5-1.5,1.5C47.2,54.3,46.5,53.7,46.6,52.9
		z"/>
	<path class="st8" d="M76.5,56c0.8,0,1.4,0.6,1.4,1.4c0,0.8-0.7,1.5-1.5,1.5c-0.8,0-1.4-0.7-1.4-1.4C75,56.7,75.7,56,76.5,56z"/>
	<path class="st9" d="M75.1,27.9c-1,0-1.5-0.5-1.5-1.4c0-0.6,0.1-1.2,0.1-1.9c0-0.3,0.1-0.4,0.4-0.4c0.3,0,0.4,0.1,0.4,0.4
		c0,0.6-0.1,1.2-0.1,1.9c0,0.4,0.2,0.6,0.6,0.7c0.4,0.1,0.7-0.2,0.7-0.6c0.1-0.6,0.1-1.3,0.1-1.9c0-0.3,0.1-0.4,0.4-0.3
		c0.3,0,0.5,0,0.4,0.4c-0.1,0.6-0.1,1.3-0.2,1.9C76.5,27.6,76,27.9,75.1,27.9z"/>
	<path class="st9" d="M87.8,28.9c-0.6,0.1-1,0-1.1-0.6c-0.1-0.3-0.2-0.5-0.4-0.8c-0.1-0.1-0.1-0.4-0.3-0.3c-0.2,0-0.4,0.2-0.4,0.4
		c0,0.2-0.1,0.4-0.1,0.7c0,0.4-0.2,0.4-0.5,0.4c-0.4,0-0.3-0.2-0.3-0.5c0.1-0.9,0.2-1.8,0.3-2.6c0-0.3,0.1-0.4,0.4-0.4
		c0.3,0,0.4,0.1,0.4,0.4c0,0.3-0.1,0.5-0.1,0.8c0.8-0.2,1.1-1.4,2.2-0.9c-0.2,0.4-0.6,0.6-0.9,0.8c-0.2,0.2-0.3,0.4-0.1,0.7
		C87.3,27.7,87.5,28.3,87.8,28.9z"/>
	<path class="st8" d="M70.5,51c-0.8,0-1.4-0.6-1.4-1.5c0-0.8,0.6-1.4,1.5-1.4c0.9,0,1.5,0.6,1.4,1.5C71.9,50.4,71.3,51,70.5,51z"/>
	<path class="st8" d="M44.5,60.7c0.8,0,1.4,0.6,1.4,1.4c0,0.9-0.6,1.5-1.4,1.5c-0.8,0-1.4-0.6-1.4-1.4
		C43.1,61.3,43.7,60.7,44.5,60.7z"/>
	<path class="st6" d="M32.5,28.6c0.5-0.1,1-0.1,1.4-0.2c0.2,0,0.4-0.1,0.4,0.2c0,0.3,0,0.4-0.3,0.4c-0.6,0.1-1.2,0.2-1.8,0.2
		c-0.2,0-0.4,0.1-0.5-0.1c-0.1-0.2-0.1-0.4,0.1-0.6c0.4-0.6,0.7-1.2,1.1-1.8c0.1-0.1,0.2-0.2,0.1-0.4c-0.4,0-0.8,0-1.2,0.1
		c-0.2,0.1-0.4,0-0.5-0.3c-0.1-0.3,0.1-0.4,0.4-0.4c0.6-0.1,1.1-0.2,1.7-0.2c0.2,0,0.5-0.2,0.6,0.1c0.1,0.3,0,0.5-0.2,0.7
		c-0.3,0.5-0.6,1.1-1,1.6C32.7,28.2,32.6,28.4,32.5,28.6z"/>
	<path class="st9" d="M70.3,33.4c-0.3,0-0.4,0-0.5-0.3c0-0.4-0.3-0.5-0.7-0.5c-0.4,0-0.8-0.1-0.9,0.5c-0.1,0.5-0.5,0.4-0.7,0.3
		c-0.3-0.1,0-0.4,0.1-0.5c0.3-0.8,0.7-1.7,1-2.5c0.1-0.2,0.2-0.5,0.5-0.4c0.3,0,0.5,0.1,0.6,0.4c0.3,0.9,0.6,1.8,0.9,2.7
		C70.8,33.3,70.7,33.5,70.3,33.4z M69.2,30.9c-0.2,0.3-0.4,0.7-0.4,1c0.2,0.1,0.4,0.1,0.7,0C69.4,31.5,69.3,31.2,69.2,30.9z"/>
	<path class="st7" d="M70.5,26c0-0.1,0-0.2,0-0.3c0.1-1.8,0.1-1.8,1.8-1.5c0.6,0.1,1,0.4,1,1.1c0,0.6-0.3,1-1,1.2
		c-0.1,0-0.2,0-0.3,0c-0.7-0.2-0.9,0.2-0.8,0.8c0,0.4-0.2,0.5-0.5,0.4c-0.2,0-0.4-0.1-0.3-0.4C70.4,26.8,70.4,26.4,70.5,26z
		 M71.3,25.2c-0.1,0.4,0,0.6,0.4,0.5c0.3,0,0.7,0,0.7-0.5c0-0.6-0.4-0.5-0.8-0.5C71.2,24.7,71.3,25,71.3,25.2z"/>
	<path class="st6" d="M100.9,36.9c-0.6,0-0.9-0.1-0.9-0.7c0-0.5-0.5-0.2-0.7-0.4c-0.2-0.1-0.4-0.2-0.6,0.1c-0.1,0.1-0.1,0.2-0.2,0.3
		c-0.2,0.3-0.5,0.2-0.7,0.1c-0.3-0.1,0-0.3,0.1-0.4c0.5-0.8,1-1.7,1.5-2.5c0.1-0.2,0.2-0.3,0.5-0.3c0.3,0.1,0.4,0.1,0.5,0.4
		C100.5,34.7,100.7,35.8,100.9,36.9z M99.6,34.3c-0.1,0.3-0.5,0.5-0.4,0.9c0,0.1,0.4,0.1,0.4,0.1C100,34.9,99.7,34.6,99.6,34.3z"/>
	<path class="st6" d="M103.3,34.5c-0.5-0.1-0.9-0.2-1.3-0.2c-0.2,0-0.4-0.1-0.3-0.4c0.1-0.3,0.2-0.4,0.5-0.3
		c0.6,0.1,1.1,0.2,1.7,0.3c0.2,0,0.5,0,0.5,0.3c0,0.2-0.1,0.5-0.3,0.6c-0.6,0.5-1.2,1-1.8,1.6c0.4,0.2,0.9,0.2,1.3,0.3
		c0.2,0.1,0.4,0,0.3,0.3c-0.1,0.3-0.2,0.4-0.5,0.3c-0.6-0.1-1.1-0.2-1.7-0.4c-0.2,0-0.5,0-0.5-0.3c0-0.3,0.1-0.5,0.3-0.6
		c0.5-0.4,1-0.9,1.5-1.3C103,34.8,103.1,34.7,103.3,34.5z"/>
	<path class="st6" d="M49.4,30c0.3-0.1,0.4,0.1,0.5,0.3c0.4,0.9,0.8,1.7,1.1,2.6c0.1,0.2,0.3,0.4,0,0.5c-0.2,0.1-0.6,0.2-0.7-0.2
		c-0.1-0.4-0.4-0.6-0.8-0.5c-0.4,0-0.7,0.1-0.7,0.6c0,0.3-0.2,0.3-0.5,0.4c-0.3,0-0.4,0-0.3-0.4c0.3-1,0.6-2,0.9-3
		C48.9,30,49.1,30,49.4,30z M49.8,32c-0.2-0.3-0.2-0.6-0.5-0.9c-0.1,0.3-0.1,0.6-0.2,0.8c0,0,0,0.1,0,0.1
		C49.3,32.2,49.5,32.1,49.8,32z"/>
	<path class="st9" d="M40.3,34.2c-0.5,0.2-0.9,0.2-1.1-0.4c-0.2-0.5-0.6-0.2-0.9-0.2c-0.3,0-0.5,0-0.5,0.4c0,0.5-0.4,0.6-0.9,0.5
		c0.3-1.1,0.6-2.2,0.8-3.3c0.1-0.3,0.3-0.3,0.5-0.3c0.2,0,0.4,0,0.5,0.2C39.3,32.1,39.8,33.2,40.3,34.2z M38.4,31.9
		C38,33,38,33,38.8,32.9C38.8,32.6,38.5,32.3,38.4,31.9z"/>
	<path class="st9" d="M90.1,25.8c0.3,0,0.5,0,0.6,0.3c0.2,1,0.5,2,0.7,3c0,0.1,0.1,0.4-0.2,0.3c-0.3,0-0.7,0.1-0.7-0.4
		c0-0.6-0.5-0.6-0.9-0.7c-0.3,0-0.5,0-0.6,0.3c-0.1,0.2-0.1,0.4-0.4,0.3c-0.2,0-0.4,0.1-0.5-0.1c-0.1-0.2,0.1-0.3,0.1-0.4
		c0.4-0.8,0.9-1.7,1.4-2.5C89.7,25.9,89.8,25.7,90.1,25.8z M89.5,27.8c0.3,0,0.6,0.2,0.7,0c0.1-0.3,0-0.6-0.2-1
		C89.8,27.1,89.7,27.4,89.5,27.8z"/>
	<path class="st9" d="M87,34.8c0.6-1.1,1.2-2.1,1.7-3.1c0.1-0.3,0.3-0.2,0.6-0.2c0.3,0,0.4,0.2,0.4,0.4c0.2,0.9,0.4,1.8,0.6,2.8
		c0,0.2,0.2,0.4-0.1,0.5c-0.2,0-0.6,0.1-0.7-0.3c0-0.5-0.3-0.6-0.7-0.7c-0.4-0.1-0.7,0-0.9,0.5C87.8,35.1,87.4,34.8,87,34.8z
		 M89.1,32.6c-0.2,0.3-0.5,0.5-0.4,0.9c0,0.1,0.4,0.2,0.5,0.1C89.4,33.3,89,33,89.1,32.6z"/>
	<path class="st9" d="M84.1,34.4c-0.5,0-0.9,0-1-0.6c0-0.3-0.3-0.4-0.5-0.3c-0.3,0-0.7-0.3-0.9,0.2c0,0.1-0.1,0.3-0.2,0.4
		c-0.2,0.2-0.5,0.1-0.7,0.1c-0.3-0.1,0-0.3,0-0.4c0.4-0.9,0.8-1.7,1.3-2.6c0.1-0.2,0.2-0.4,0.5-0.4c0.3,0,0.5,0.2,0.5,0.5
		C83.5,32.3,83.8,33.3,84.1,34.4z M82.6,31.9c-0.2,0.3-0.5,0.5-0.4,0.9c0,0.1,0.4,0.1,0.5,0.1C83.1,32.5,82.6,32.2,82.6,31.9z"/>
	<path class="st9" d="M22.8,36.6c-0.5,0.2-0.9,0.3-1.1-0.3c-0.1-0.4-0.5-0.2-0.7-0.1c-0.2,0.1-0.6,0-0.6,0.4c0,0.6-0.4,0.7-0.9,0.6
		c0.2-1.1,0.4-2.3,0.6-3.4c0.1-0.3,0.3-0.3,0.5-0.3c0.2-0.1,0.4,0,0.5,0.2C21.6,34.7,22.2,35.7,22.8,36.6z M21.2,35.5
		c-0.2-0.3-0.3-0.5-0.6-1c-0.1,0.5-0.2,0.8-0.1,1.1C20.7,35.8,21,35.6,21.2,35.5z"/>
	<path class="st9" d="M96.5,35c0.4-0.7,0.7-1.3,1-1.8c0.2-0.3,0.3-0.3,0.6-0.3c0.3,0.1,0.4,0.2,0.2,0.5c-0.5,0.8-1,1.7-1.5,2.5
		c-0.1,0.2-0.3,0.3-0.6,0.3c-0.3,0-0.4-0.2-0.4-0.5c-0.2-0.9-0.4-1.8-0.6-2.7c0-0.1-0.3-0.4,0.1-0.5c0.3,0,0.6-0.1,0.7,0.4
		C96.2,33.5,96.3,34.2,96.5,35z"/>
	<path class="st9" d="M44.6,30.4c0.7-0.2,1,0,1.2,0.6c0.2,0.5,0.4,1,0.7,1.6c0.2-0.7,0.4-1.2,0.5-1.7c0.1-0.5,0.4-0.8,1-0.7
		c-0.3,1.1-0.7,2.3-1,3.4c-0.1,0.3-0.7,0.3-0.9,0C45.6,32.5,45.1,31.5,44.6,30.4z"/>
	<path class="st9" d="M66.2,32.1c0.3-0.7,0.5-1.2,0.7-1.7c0.2-0.6,0.5-0.8,1.1-0.6c-0.4,1-0.9,2.1-1.3,3.1c-0.1,0.3-0.3,0.3-0.5,0.3
		c-0.3,0-0.4-0.1-0.5-0.3c-0.3-0.9-0.6-1.7-0.9-2.6c-0.1-0.2-0.4-0.4,0-0.5c0.3-0.1,0.7-0.2,0.8,0.3C65.7,30.7,65.9,31.3,66.2,32.1z
		"/>
	<path class="st7" d="M34.3,31.6c0-0.2,0.1-0.3,0.3-0.3c0.6-0.1,1.1-0.1,1.7-0.2c0.3,0,0.4,0.1,0.4,0.3c0,0.3-0.1,0.3-0.3,0.4
		c-0.3,0-0.5,0.1-0.8,0.1c-0.3,0-0.5,0-0.4,0.4c0.1,0.3,0.2,0.5,0.5,0.4c0.2-0.1,0.5-0.1,0.7-0.1c0.3,0,0.3,0.1,0.3,0.3
		c0,0.2,0,0.3-0.3,0.3c-0.1,0-0.1,0-0.2,0c-1,0.1-1,0.1-0.9,1.1c0,0.3,0,0.5-0.3,0.5c-0.3,0-0.4,0-0.5-0.4
		C34.5,33.6,34.4,32.6,34.3,31.6z"/>
	<path class="st7" d="M50.7,26.5c0,0.2,0,0.4,0,0.7c0,0.3,0,0.5-0.4,0.5c-0.4,0-0.4-0.2-0.4-0.5c0-0.6-0.1-1.2-0.1-1.9
		c0-0.4-0.2-0.5-0.5-0.5c-0.2,0-0.6,0.2-0.6-0.3c0-0.5,0.3-0.4,0.6-0.4c0.7,0,1.4-0.1,2-0.1c0.2,0,0.4,0,0.4,0.3
		c0,0.2,0,0.4-0.3,0.4c-0.9-0.1-0.8,0.5-0.7,1C50.7,26,50.7,26.3,50.7,26.5C50.7,26.5,50.7,26.5,50.7,26.5z"/>
	<path class="st7" d="M78.4,30.5c1.2-0.3,1,0.8,1.5,1.3c0.6-0.3,0.6-1.5,1.7-1c-0.2,0.3-0.4,0.6-0.7,0.9c-0.5,0.6-0.8,1.3-0.8,2
		c0,0.2-0.1,0.4-0.3,0.3c-0.2,0-0.5,0-0.5-0.3c0-0.6,0.2-1.2-0.1-1.7C78.8,31.6,78.6,31,78.4,30.5z"/>
	<path class="st7" d="M71.5,32c0-0.2,0-0.4,0-0.5c0.1-0.6,0.1-1-0.7-0.9c-0.2,0-0.3-0.1-0.3-0.3c0-0.2,0-0.4,0.3-0.4
		c0.8,0.1,1.5,0.1,2.3,0.1c0.2,0,0.3,0.1,0.3,0.3c0,0.2-0.1,0.4-0.3,0.4c-0.8-0.2-0.8,0.3-0.8,0.9c0,0.5-0.1,1-0.1,1.5
		c0,0.4-0.2,0.4-0.5,0.4c-0.3,0-0.3-0.2-0.3-0.4C71.5,32.7,71.5,32.4,71.5,32C71.5,32,71.5,32,71.5,32z"/>
	<path class="st6" d="M17.5,34.9c-0.3,0-0.5,0.1-0.7,0.1c-0.3,0.1-0.3-0.1-0.4-0.3c-0.1-0.2,0-0.3,0.2-0.4c0.8-0.2,1.5-0.3,2.3-0.5
		c0.2,0,0.4,0,0.4,0.3c0,0.2,0,0.4-0.3,0.4c-0.8,0-0.7,0.4-0.6,0.9c0.1,0.5,0.2,1.1,0.3,1.6c0.1,0.4-0.1,0.4-0.4,0.5
		c-0.3,0.1-0.4-0.1-0.4-0.3C17.8,36.5,17.6,35.7,17.5,34.9z"/>
	<path class="st2" d="M14,36.2c0.4-0.5,0-1.6,1.3-1.5c-0.1,0.4-0.2,0.7-0.3,1.1c-0.3,0.7-0.5,1.4-0.1,2.2c0.1,0.3,0,0.4-0.3,0.5
		c-0.2,0-0.5,0.2-0.5-0.1c-0.1-1.3-1-1.9-1.8-2.7c0,0-0.1-0.1-0.1-0.2C13.2,34.8,13.4,35.9,14,36.2z"/>
	<path class="st7" d="M81.4,25.6c0,0.2,0,0.4-0.1,0.6c-0.2,1.3-0.2,1.4,1.1,1.5c0.2,0,0.4,0,0.4,0.3c0,0.3-0.1,0.4-0.4,0.4
		c-0.6-0.1-1.2-0.1-1.8-0.2c-0.3,0-0.3-0.2-0.3-0.5c0.1-0.9,0.2-1.7,0.2-2.6c0-0.3,0-0.5,0.4-0.5c0.4,0,0.4,0.3,0.4,0.6
		C81.4,25.4,81.4,25.5,81.4,25.6C81.4,25.6,81.4,25.6,81.4,25.6z"/>
	<path class="st7" d="M86.4,34.7c-0.4,0-0.7-0.1-1.1-0.1c-0.9-0.1-0.9-0.1-0.8-1c0.1-0.7,0.2-1.4,0.2-2.1c0-0.3,0-0.5,0.4-0.4
		c0.3,0.1,0.4,0.2,0.4,0.5c-0.1,0.6-0.1,1.3-0.2,1.9c-0.1,0.4,0.1,0.5,0.4,0.5c0.2,0,0.4,0,0.7,0.1c0.2,0,0.5-0.1,0.5,0.3
		C86.8,34.7,86.6,34.8,86.4,34.7z"/>
	<path class="st6" d="M110.8,39.1c-0.3-0.1-0.6-0.1-0.8-0.2c-1.3-0.3-1.3-0.3-1-1.5c0.1-0.6,0.3-1.2,0.4-1.8
		c0.1-0.3,0.2-0.4,0.5-0.3c0.3,0.1,0.4,0.2,0.3,0.5c-0.2,0.6-0.3,1.2-0.4,1.8c-0.1,0.4-0.1,0.7,0.4,0.7c0.2,0,0.4,0.1,0.6,0.2
		c0.2,0,0.4,0,0.3,0.3C111.2,39,111.1,39.2,110.8,39.1z"/>
	<path class="st6" d="M24.2,36.5c-0.2,0.1-0.3-0.1-0.3-0.3c-0.2-0.9-0.3-1.8-0.5-2.7c-0.1-0.3,0-0.4,0.3-0.4c0.3,0,0.4-0.1,0.5,0.3
		c0.1,0.7,0.3,1.3,0.3,2c0,0.4,0.2,0.5,0.6,0.4c0.3-0.1,0.5-0.1,0.8-0.1c0.2,0,0.4-0.1,0.4,0.2c0,0.3,0,0.4-0.3,0.4
		C25.4,36.2,24.8,36.4,24.2,36.5z"/>
	<path class="st9" d="M9.2,39.7c-0.2,0.1-0.3-0.1-0.3-0.3c-0.2-0.9-0.5-1.8-0.7-2.8c-0.1-0.3,0.1-0.4,0.3-0.4
		c0.2-0.1,0.4-0.1,0.5,0.3c0.1,0.6,0.4,1.3,0.5,1.9c0.1,0.4,0.2,0.5,0.6,0.4c0.2-0.1,0.5-0.1,0.8-0.2c0.1,0,0.4-0.2,0.4,0.2
		c0,0.2,0.1,0.4-0.2,0.5C10.5,39.4,9.9,39.5,9.2,39.7z"/>
	<path class="st7" d="M83.3,28.1c0.1-0.9,0.2-1.8,0.3-2.8c0-0.3,0.2-0.4,0.4-0.3c0.2,0,0.4,0,0.4,0.4c-0.1,0.9-0.2,1.8-0.3,2.8
		c0,0.4-0.2,0.4-0.5,0.4C83.3,28.5,83.3,28.4,83.3,28.1z"/>
	<path class="st7" d="M44.3,25.8c0-0.3,0-0.5-0.1-0.8c-0.1-0.3,0-0.5,0.4-0.5c0.4,0,0.4,0.1,0.4,0.4c0.1,0.9,0.1,1.8,0.2,2.7
		c0,0.3-0.1,0.4-0.4,0.4c-0.3,0-0.4-0.1-0.4-0.4C44.4,27,44.3,26.4,44.3,25.8C44.3,25.8,44.3,25.8,44.3,25.8z"/>
	<path class="st6" d="M96.3,27c-0.2,0.9-0.3,1.9-0.5,2.8c0,0.3-0.1,0.4-0.4,0.3C95.1,30,94.9,30,95,29.7c0.2-0.9,0.3-1.8,0.4-2.8
		c0-0.3,0.2-0.4,0.5-0.3C96.2,26.7,96.4,26.7,96.3,27z"/>
	<path class="st6" d="M27.5,35.6c0.1,0.3-0.1,0.3-0.4,0.4c-0.3,0.1-0.4-0.1-0.4-0.3c-0.1-0.9-0.3-1.8-0.4-2.7
		c-0.1-0.3,0-0.5,0.3-0.5c0.3-0.1,0.4,0,0.5,0.4C27.2,33.7,27.4,34.6,27.5,35.6z"/>
	<path class="st7" d="M77,32.8c0-0.7,0.1-1.4,0.1-2c0-0.3,0.1-0.5,0.5-0.4c0.4,0,0.4,0.2,0.3,0.5c-0.1,0.9-0.1,1.8-0.2,2.6
		c0,0.3,0,0.4-0.4,0.4c-0.4,0-0.4-0.2-0.4-0.5C77,33.2,77,33,77,32.8C77,32.8,77,32.8,77,32.8z"/>
	<path class="st6" d="M105.7,34.4c-0.2,1.1-0.5,2.1-0.7,3.1c-0.1,0.3-0.3,0.2-0.5,0.1c-0.2,0-0.4-0.1-0.3-0.4
		c0.2-0.9,0.4-1.9,0.6-2.9c0.1-0.3,0.2-0.3,0.4-0.2C105.4,34.3,105.7,34.2,105.7,34.4z"/>
	<path class="st7" d="M53.4,31.9c0,0.3,0,0.7,0,1c0,0.3-0.1,0.4-0.4,0.4c-0.4,0-0.4-0.2-0.4-0.4c0-0.9-0.1-1.8-0.1-2.7
		c0-0.3,0.1-0.4,0.4-0.4c0.3,0,0.4,0.1,0.4,0.4C53.3,30.7,53.3,31.3,53.4,31.9z"/>
	<path class="st6" d="M11.5,35.5c0.3-0.1,0.3,0.1,0.4,0.3c0.2,0.9,0.4,1.9,0.7,2.8c0.1,0.3-0.1,0.4-0.3,0.4c-0.2,0-0.4,0.1-0.5-0.2
		c-0.2-0.9-0.4-1.9-0.7-2.8C10.9,35.5,11.3,35.6,11.5,35.5z"/>
	<path class="st9" d="M112.1,39.4c-0.3,0-0.5-0.1-0.4-0.5c0.2-0.9,0.5-1.8,0.7-2.6c0.1-0.3,0.2-0.4,0.4-0.3c0.2,0.1,0.5,0.1,0.4,0.5
		c-0.2,0.9-0.4,1.8-0.7,2.7C112.4,39.3,112.3,39.5,112.1,39.4z"/>
	<path class="st9" d="M117,40.7c-0.2-0.1-0.6,0-0.4-0.5c0.3-0.8,0.5-1.7,0.7-2.6c0.1-0.4,0.2-0.4,0.5-0.3c0.4,0.1,0.3,0.3,0.2,0.6
		c-0.2,0.9-0.5,1.7-0.7,2.6C117.3,40.5,117.3,40.8,117,40.7z"/>
	<path class="st4" d="M58,52.2c0.5,0,0.9,0.4,0.9,1c0,0.5-0.5,0.9-1,0.9c-0.5,0-0.9-0.5-0.9-1C57,52.5,57.4,52.1,58,52.2z"/>
	<path class="st5" d="M69.2,55.8c0.5,0,0.9,0.4,1,0.9c0,0.5-0.4,0.9-0.9,1c-0.5,0-0.9-0.4-1-0.9C68.3,56.2,68.7,55.8,69.2,55.8z"/>
	<path class="st4" d="M51.5,62.4c0,0.5-0.5,0.9-0.9,0.9c-0.5,0-0.9-0.4-0.9-0.9c0-0.5,0.4-0.9,0.9-0.9
		C51.1,61.5,51.5,61.9,51.5,62.4z"/>
	<path class="st4" d="M61.9,52.6c0,0.5-0.4,0.9-0.9,0.9c-0.5,0-0.9-0.4-0.9-0.9c0-0.5,0.5-0.9,1-0.9C61.6,51.7,62,52.1,61.9,52.6z"
		/>
	<path class="st4" d="M70.6,68.6c0,0.5-0.4,0.9-0.9,0.9c-0.5,0-0.9-0.4-0.9-0.9c0-0.5,0.4-0.9,0.9-0.9
		C70.2,67.7,70.6,68.1,70.6,68.6z"/>
	<path class="st4" d="M67,55.5c-0.5,0-0.9-0.4-0.9-0.9c0-0.5,0.4-0.9,0.9-0.9c0.5,0,0.9,0.4,0.9,0.9C67.9,55,67.5,55.5,67,55.5z"/>
	<path class="st4" d="M70.7,58.6c0.5,0,0.9,0.4,0.9,0.9c0,0.5-0.4,0.9-0.9,1c-0.5,0-0.9-0.4-1-0.9C69.8,59,70.2,58.6,70.7,58.6z"/>
	<path class="st4" d="M53.1,68.5c0,0.5-0.4,0.9-0.9,0.9c-0.5,0-0.9-0.4-0.9-0.9c0-0.5,0.4-0.9,0.9-0.9C52.6,67.5,53.1,68,53.1,68.5z
		"/>
	<path class="st4" d="M72.3,62.6c0,0.5-0.4,0.9-0.9,0.9c-0.5,0-0.9-0.4-0.9-0.9c0-0.5,0.4-0.9,0.9-0.9
		C71.9,61.7,72.3,62.1,72.3,62.6z"/>
	<path class="st4" d="M64.1,54c-0.5,0-0.9-0.4-0.9-0.9c0-0.5,0.4-0.9,0.9-0.9c0.5,0,0.9,0.5,0.9,0.9C65.1,53.6,64.7,54,64.1,54z"/>
	<path class="st5" d="M55.1,70.8c0,0.5-0.4,0.9-0.9,0.9c-0.5,0-0.9-0.4-0.9-0.9c0-0.5,0.4-0.9,0.9-0.9
		C54.7,69.9,55.1,70.4,55.1,70.8z"/>
	<path class="st4" d="M67.6,71.9c-0.5,0-0.9-0.5-0.9-1c0-0.5,0.5-0.9,1-0.9c0.5,0,0.9,0.4,0.9,0.9C68.5,71.5,68.1,71.9,67.6,71.9z"
		/>
	<path class="st4" d="M52.8,57.5c-0.5,0-0.9-0.4-0.9-1c0-0.6,0.3-0.9,0.9-0.9c0.5,0,0.9,0.4,0.9,0.9C53.7,57.1,53.3,57.5,52.8,57.5z
		"/>
	<path class="st4" d="M56,54.5c0,0.5-0.5,0.9-1,0.9c-0.5,0-0.9-0.5-0.9-1c0-0.5,0.4-0.9,0.9-0.9C55.6,53.5,56,54,56,54.5z"/>
	<path class="st4" d="M52.2,59.3c0,0.5-0.4,0.9-0.9,0.9c-0.5,0-0.9-0.4-0.9-0.9c0-0.5,0.4-0.9,0.9-0.9
		C51.7,58.4,52.1,58.8,52.2,59.3z"/>
	<path class="st5" d="M50.9,66.5c-0.5,0-0.9-0.4-0.9-0.9c0-0.5,0.4-0.9,0.9-0.9c0.5,0,0.9,0.4,0.9,0.9
		C51.8,66.1,51.4,66.5,50.9,66.5z"/>
	<path class="st4" d="M70.9,66.7c-0.5,0-0.9-0.5-0.9-1c0-0.5,0.4-0.9,1-0.9c0.5,0,0.9,0.4,0.9,1C71.9,66.3,71.4,66.7,70.9,66.7z"/>
	<path class="st10" d="M30.8,26.6c0,0.2,0,0.3,0,0.4c-0.1,0.3-0.3,0.3-0.5,0.3c-0.3,0-0.2-0.2-0.2-0.4c0-0.1,0-0.2,0.1-0.3
		c0.1-0.3-0.1-0.7,0.4-0.6C31,26,30.7,26.5,30.8,26.6z"/>
	<path class="st7" d="M32.9,34.7c-0.2,0.3,0.2,0.8-0.4,0.9c-0.4,0.1-0.3-0.3-0.2-0.4c0.1-0.3-0.3-0.8,0.4-0.9
		C33,34.3,33,34.4,32.9,34.7z"/>
	<path class="st10" d="M22.8,33.2c0,0.3,0,0.6,0,1c0,0.3-0.2,0.4-0.4,0.4c-0.3,0-0.2-0.2-0.2-0.4C22.2,33.7,21.9,33.1,22.8,33.2z"/>
	<polygon class="st6" points="8.6,79 8.5,79 8.6,79 	"/>
</g>
<text transform="matrix(1 0 0 1 138.4411 45.0932)"><tspan x="0" y="0" class="st0 st27 st28">OLIY TA’LIM, FAN VA </tspan><tspan x="0" y="25.2" class="st0 st27 st28">INNOVATSIYALAR </tspan><tspan x="0" y="50.4" class="st0 st27 st28">VAZIRLIGI</tspan></text>
</svg>
