<?xml version="1.0" encoding="utf-8"?>
<!-- Generator: Adobe Illustrator 28.0.0, SVG Export Plug-In . SVG Version: 6.00 Build 0)  -->
<svg version="1.1" id="Layer_1" xmlns="http://www.w3.org/2000/svg" xmlns:xlink="http://www.w3.org/1999/xlink" x="0px" y="0px"
	 viewBox="0 0 360 120" style="enable-background:new 0 0 360 120;" xml:space="preserve">
<style type="text/css">
	.st0{fill:#1D1D1B;}
	.st1{fill-rule:evenodd;clip-rule:evenodd;fill:#00B1EB;}
	.st2{fill-rule:evenodd;clip-rule:evenodd;fill:#005CA9;}
	.st3{fill:#00B1EB;}
	.st4{fill-rule:evenodd;clip-rule:evenodd;}
	.st5{fill:#FFFFFF;}
	.st6{fill:#005CA9;}
	.st7{font-family:'TimesNewRomanPS-BoldMT';}
	.st8{font-size:25px;}
</style>
<g transform="translate(0.005)">
	<path class="st0" d="M13.4,50c0.8,0,1.5-0.7,1.5-1.5c0-0.8-0.7-1.5-1.5-1.5c-0.8,0-1.5,0.7-1.5,1.5C11.9,49.3,12.6,50,13.4,50z"/>
	<path class="st0" d="M107.4,50c0.8,0,1.5-0.7,1.5-1.5c0-0.8-0.7-1.5-1.5-1.5c-0.8,0-1.5,0.7-1.5,1.5C105.9,49.3,106.6,50,107.4,50
		C107.4,50,107.4,50,107.4,50z"/>
	<path class="st0" d="M60.4,1.1c-11.8,0-23.3,3.4-33.1,9.9C17.6,17.5,10,26.6,5.4,37.4c-9.2,22-4.1,47.4,12.9,64.2
		c23.5,23.2,61.4,23,84.7-0.5c2.6-2.6,4.9-5.4,6.9-8.4c15.8-23.3,12.7-54.6-7.4-74.4C91.3,7.3,76.2,1.1,60.4,1.1z M60.4,117.3
		c-11.4,0-22.6-3.4-32.2-9.7c-9.5-6.3-16.9-15.2-21.3-25.7c-9-21.4-4-46.2,12.6-62.5C42.4-3.2,79.3-3,101.9,19.9
		c2.5,2.5,4.7,5.3,6.7,8.2c15.3,22.7,12.3,53.1-7.2,72.4C90.5,111.3,75.8,117.3,60.4,117.3z"/>
	<path class="st0" d="M60.4,22.5c-7.5,0-14.8,2.2-21.1,6.3c-6.2,4.1-11.1,10-14,16.8c-5.9,14-2.6,30.2,8.2,40.9
		c15,14.8,39.1,14.7,54-0.3c1.6-1.6,3.1-3.4,4.4-5.4C102,66,100,46,87.3,33.4C80.1,26.4,70.5,22.4,60.4,22.5L60.4,22.5z M60.4,96.6
		c-7.3,0-14.5-2.1-20.6-6.2c-6.1-4-10.8-9.7-13.6-16.4c-5.7-13.7-2.6-29.5,8-39.9c14.6-14.5,38.2-14.3,52.7,0.3
		c1.6,1.6,3,3.4,4.3,5.2c9.8,14.5,7.9,34-4.6,46.3C79.7,92.8,70.2,96.6,60.4,96.6L60.4,96.6z"/>
	<path class="st0" d="M82.9,40.9h-8.7v-2.2h-3.3v-9.4H57.6c-2.3-0.1-4.6,0.8-6.2,2.5c-1.4,1.7-2.1,3.8-2.1,6v3.1H38.9l-4.3,40.3
		l26.3,11.1l26.3-11.1L82.9,40.9z M60.9,91.4L60.9,91.4L35.6,80.7L39.8,42v-0.2h10.5v-4c-0.1-2,0.6-4,1.9-5.5
		c1.4-1.5,3.4-2.3,5.5-2.2h12.4v9.4h3.3v2.3h8.8v0.1l4.1,38.7L60.9,91.4z"/>
	<path class="st1" d="M73.3,46.2H70v6h3.3v1.5h8.5l-1.1-10.4h-7.4V46.2z"/>
	<path class="st1" d="M41.1,43.3L40,53.7h10.3V43.3H41.1z"/>
	<path class="st2" d="M82,55.1h-8.7v3.7h-3.3v5H59.7v-8.7h-3.9v1c0,5-4.7,7.6-9.3,7.6H46v-5.4h0.3c2.2,0,3.7-1.1,3.7-2.6v-0.5H39.8
		l-2.6,24.7l23.8,10l23.8-10L82,55.1z"/>
	<path class="st3" d="M59.7,43.3h-3.9v10.4h3.9V43.3z"/>
	<path class="st4" d="M58.5,35c-0.4,0-0.7,0.1-1.1,0.2c-0.3,0.1-0.6,0.4-0.9,0.6c-0.5,0.5-0.7,1.3-0.7,2v3.9h3.9V35H58.5z
		 M58.9,40.9h-2.2v-3.1c0-0.5,0.1-1,0.4-1.4c0.2-0.2,0.4-0.3,0.6-0.5c0.2-0.1,0.5-0.2,0.7-0.2h0.4L58.9,40.9z"/>
	<path class="st5" d="M52.2,70.6c-0.2,0-0.4,0-0.6,0.1c-0.2,0.1-0.3,0.3-0.4,0.5c-0.2,0.4-0.3,0.9-0.3,1.3h-0.8
		c-0.1-0.7,0.1-1.4,0.5-2c0.2-0.3,0.4-0.5,0.7-0.6c0.3-0.1,0.6-0.2,0.9-0.2c0.9,0,1.7,0.5,2,1.3c0.1,0.3,0.1,0.6,0.1,0.9
		c0,0.6-0.1,1.2-0.5,1.6c-0.3,0.4-0.7,0.7-1.1,1c-0.4,0.3-0.8,0.6-1.2,0.9c-0.4,0.3-0.6,0.7-0.7,1.1h3.5v0.8h-4.4
		c0-0.7,0.2-1.4,0.7-2c0.4-0.4,0.8-0.8,1.3-1.1c0.5-0.3,0.9-0.7,1.3-1.1c0.3-0.4,0.5-0.8,0.4-1.3c0-0.4-0.1-0.7-0.4-1
		C52.9,70.8,52.6,70.6,52.2,70.6L52.2,70.6z"/>
	<path class="st5" d="M57.8,77.7c-0.4,0-0.8-0.1-1.2-0.3c-0.3-0.2-0.6-0.6-0.7-1c-0.5-1.7-0.5-3.5,0-5.2c0.2-0.4,0.4-0.7,0.8-1
		c0.7-0.5,1.6-0.5,2.4,0c0.3,0.2,0.6,0.6,0.8,1c0.4,1.7,0.4,3.5,0,5.2c-0.1,0.4-0.4,0.8-0.7,1.1C58.7,77.7,58.2,77.8,57.8,77.7z
		 M57.8,70.6c-0.2,0-0.3,0-0.5,0.1c-0.1,0.1-0.3,0.1-0.4,0.2c-0.2,0.2-0.4,0.5-0.4,0.8c-0.2,1.3-0.2,2.7,0,4c0,0.3,0.2,0.6,0.4,0.8
		c0.5,0.4,1.2,0.4,1.6,0c0.2-0.2,0.4-0.5,0.4-0.8c0.2-1.3,0.2-2.7,0-4c0-0.2,0-0.3-0.1-0.5c-0.1-0.3-0.4-0.5-0.7-0.6
		C58.1,70.7,57.9,70.6,57.8,70.6z"/>
	<path class="st5" d="M64.1,69.8v7.7h-0.9V72h-1.8v-0.7c0.4,0,0.9-0.1,1.3-0.3c0.4-0.2,0.7-0.7,0.7-1.1L64.1,69.8z"/>
	<path class="st5" d="M70.1,69.8v5.1h0.8v0.8h-0.8v1.9h-0.7v-1.9h-3v-1l3.1-5L70.1,69.8z M67,74.9h2.3v-3.8L67,74.9z"/>
	<path class="st0" d="M56.1,10l0.7-0.1l0.3,4.5l-0.7,0.1l0,0.2l2.1-0.2v-0.2l-0.6,0.1l-0.3-4.5l0.6,0V9.7l-2.1,0.1V10z"/>
	<path class="st0" d="M77.1,12.6l0.7,0.2l-1,3.1l-1.2-4l-1.5-0.5L74,11.6l0.6,0.2l-1.4,4.3l-0.6-0.2L72.5,16l1.5,0.5l0.1-0.1
		l-0.7-0.2l1.4-4.1l1.6,5.4l0.1,0l1.5-4.5l0.6,0.2l0.1-0.1l-1.5-0.5L77.1,12.6z"/>
	<path class="st0" d="M34.2,17l0.6-0.3l2.3,3.9L36.5,21l0.1,0.1l1.8-1L38.3,20l-0.6,0.3l-2.3-3.9L36,16l-0.1-0.1l-1.8,1L34.2,17z"/>
	<path class="st0" d="M105.1,36.5l0.4,0.6l-2.9,1.6l1.9-3.8l-0.7-1.4l-0.1,0.1l0.3,0.5l-4,2.2l-0.3-0.6l-0.1,0.1l0.8,1.4l0.1-0.1
		l-0.4-0.7l3.9-2.1v0l-2.5,5l0.1,0.1l4.2-2.3l0.3,0.5l0.2-0.1l-0.8-1.4L105.1,36.5z"/>
	<path class="st0" d="M94.5,22.9l0.5,0.4l-1.4,1.6l-1.6-1.4l1.4-1.6l0.4,0.4l0.1-0.1l-1.5-1.3l-0.1,0.1l0.5,0.4l-3,3.4l-0.5-0.4
		l-0.1,0.1l1.5,1.3l0.1-0.1l-0.5-0.4l1.5-1.7l1.6,1.4l-1.5,1.7l-0.5-0.4l-0.1,0.1l1.5,1.3l0.1-0.1l-0.5-0.4l3-3.4l0.5,0.4l0.1-0.1
		l-1.5-1.4L94.5,22.9z"/>
	<path class="st0" d="M18.8,31.5l0.4-0.5l1.8,1.2l-1.2,1.8l-1.7-1.2l0.3-0.5l-0.1-0.1L17,33.8l0.1,0.1l0.4-0.5l3.8,2.5l-0.4,0.5
		l0.1,0.1l1.1-1.7l-0.1-0.1l-0.4,0.5L19.8,34l1.2-1.8l1.9,1.3L22.6,34l0.1,0.1l1.2-1.7l-0.1-0.1l-0.4,0.5l-3.8-2.5l0.4-0.5l-0.2-0.1
		l-1.1,1.7L18.8,31.5z"/>
	<path class="st0" d="M86.7,16.9h-0.1l-3.9,3.3l-0.5-0.3V20l1.3,0.8v-0.2l-0.6-0.4l1.2-1.1l1.1,0.6l-0.4,1.6L84.2,21v0.1l1.9,1.1
		v-0.1l-0.5-0.3L86.7,16.9z M84.3,19l1.4-1.2l-0.4,1.9L84.3,19z"/>
	<path class="st0" d="M21.9,27.1v0.1l2.6,4.3L24.1,32l0.1,0.1l1-1.1l-0.1-0.1l-0.5,0.5L23.8,30l0.8-1l1.5,0.6l-0.5,0.5l0.1,0.1
		l1.4-1.7l-0.1-0.1l-0.4,0.5L21.9,27.1z M23.6,29.8l-1-1.6l1.7,0.7L23.6,29.8z"/>
	<path class="st0" d="M27.7,21.7l0.6-0.5l2.1,2.4c0.5,0.6,0.8,1.1-0.2,1.9c-1,0.9-1.3,0.5-1.9-0.1L26.2,23l0.5-0.4l-0.1-0.1L25,23.8
		l0.1,0.1l0.5-0.4l2.2,2.5c0.6,0.7,1.1,0.9,2.4-0.2c1.3-1.1,1-1.6,0.4-2.3l-2.2-2.4l0.4-0.4l-0.1-0.1l-1.1,1L27.7,21.7z"/>
	<path class="st0" d="M15.9,36.1l0.4-0.7l2.9,1.5l-4.2,0.6l-0.7,1.4l0.1,0.1l0.3-0.6l4.1,2.1L18.4,41l0.1,0.1l0.7-1.4l-0.2-0.1
		l-0.3,0.7l-3.9-2l0,0l5.6-0.7l0-0.1l-4.2-2.2l0.3-0.6l-0.1-0.1L15.7,36L15.9,36.1z"/>
	<path class="st0" d="M32.2,18.3l0.6-0.4l1.9,2.7l-4-1.5L29.4,20l0.1,0.1l0.5-0.4l2.6,3.7l-0.5,0.3l0.1,0.1l1.3-0.9L33.4,23
		l-0.6,0.4l-2.5-3.6h0l5.3,1.9l0.1-0.1L33,17.8l0.5-0.4l-0.1-0.1l-1.3,0.9L32.2,18.3z"/>
	<path class="st0" d="M13.3,41.7l0.2-0.6l4.2,1.7l-0.2,0.6l0.1,0.1l0.8-1.9l-0.1-0.1L18,42.1l-4.2-1.7l0.2-0.6l-0.1-0.1l-0.8,1.9
		L13.3,41.7z"/>
	<path class="st0" d="M39.5,14.3l0.7-0.3l0.4,3.7L38,15l0.6-0.3l-0.1-0.1l-1.9,0.9l0.1,0.2l0.5-0.2l3.5,3.6l0.1-0.1l-0.5-5l0.5-0.2
		l-0.1-0.1l-1.3,0.6L39.5,14.3z"/>
	<path class="st0" d="M45.6,16.8l-1,0.3L43.9,15l0.4-0.1c0.7-0.3,0.9,0,1.2,0.7h0.2l-0.8-2.2h-0.2c0.2,0.7,0.3,1-0.5,1.2l-0.3,0.1
		l-0.7-2l0.3-0.1c1.5-0.5,1.8-0.5,2.4,0.6H46L45.5,12l-3.7,1.3v0.2l0.6-0.2l1.5,4.2l-0.6,0.2v0.2l3.9-1.3l-0.5-1.6h-0.2
		C46.8,15.9,46.6,16.4,45.6,16.8z"/>
	<path class="st0" d="M98.4,34.1l-0.6-0.9l1.9-1.3l0.2,0.3c0.5,0.6,0.3,0.8-0.4,1.3l0.1,0.2l1.9-1.3l-0.1-0.2
		c-0.6,0.4-0.9,0.6-1.3-0.1l-0.2-0.3l1.7-1.2l0.2,0.3c0.9,1.3,1,1.6,0,2.4l0.1,0.1l1.2-0.9l-2.3-3.2l-0.1,0.1L101,30l-3.7,2.6
		l-0.4-0.5l-0.1,0.1l2.4,3.3l1.4-0.9l-0.1-0.1c-0.5,0.5-1.4,0.4-1.8-0.1C98.5,34.3,98.4,34.2,98.4,34.1z"/>
	<path class="st0" d="M51.2,14.2c-0.3-1-0.6-1.1-1.7-1c0.6-0.2,1.1-0.6,0.9-1.3s-0.9-1-1.7-0.8l-1.9,0.5v0.2l0.6-0.1l1,4.4L47.8,16
		v0.2l2-0.5v-0.2l-0.6,0.1l-0.5-2.2l0.4-0.1c0.9-0.2,1.1,0,1.3,0.9c0.3,0.9,0.4,1.2,1.2,1l0.5-0.1v-0.2H52
		C51.5,15.2,51.4,14.9,51.2,14.2z M48.6,13.3l-0.5-2h0.4c0.7-0.2,1,0.1,1.1,0.8c0.2,0.6,0,1-0.6,1.2L48.6,13.3z"/>
	<path class="st0" d="M52.8,11.2c0-0.2,0.1-0.4,0.2-0.6c0.2-0.2,0.4-0.2,0.6-0.2c0.6-0.1,1.2,0.4,1.3,1h0.2L55,10.3
		c-0.4-0.1-0.9-0.2-1.3-0.1c-0.2,0-0.4,0.1-0.6,0.1c-0.4,0.2-0.6,0.5-0.7,0.8c-0.1,0.2-0.1,0.4-0.1,0.6c0.2,1.7,2.8,0.9,3,2.1
		c0,0.6-0.4,1.1-1,1.1c-0.4,0-0.8-0.1-1.1-0.3c-0.3-0.2-0.5-0.6-0.6-0.9h-0.2l0.2,1.3c0.5,0.1,1,0.2,1.5,0.1c0.4,0,0.8-0.2,1.1-0.5
		c0.3-0.3,0.4-0.7,0.4-1.2C55.5,11.5,53,12.4,52.8,11.2z"/>
	<path class="st0" d="M89.1,19.6c0.3-0.4,0.8-0.4,1.2-0.1c0,0,0,0,0,0c0.5,0.4,0.6,1.1,0.3,1.6l0.1,0.1l0.6-0.9
		c-0.2-0.4-0.5-0.7-0.8-1c-0.6-0.5-1.5-0.5-2,0.1c0,0,0,0,0,0c-1,1.3,1.4,2.5,0.7,3.6c-0.1,0.1-0.2,0.2-0.3,0.3
		c-0.4,0.2-0.8,0.1-1.2-0.2c-0.6-0.5-0.7-1.4-0.3-2l-0.1-0.1l-0.8,1.1c0.2,0.4,0.6,0.8,1,1.1c0.7,0.6,1.7,0.5,2.3-0.2
		C90.8,21.7,88.3,20.5,89.1,19.6z"/>
	<path class="st0" d="M71.1,11l0.6,0.1l-1.1,4.4L70,15.4l0,0.2l2,0.5l0-0.2l-0.6-0.1l1-4.4l0.6,0.1l0-0.1l-2-0.5L71.1,11z"/>
	<path class="st0" d="M58.9,11.2h0.2c0-0.6,0.3-1.3,1-1.3h0.7v4.5H60v0.2h2.3v-0.1h-0.8V9.9h0.6c0.7,0,1,0.7,1,1.3h0.2V9.7l-4.4-0.1
		L58.9,11.2z"/>
	<path class="st0" d="M79.9,15.2h0.2c0.3-0.6,0.9-1.1,1.5-0.8l0.5,0.3l-2,4.1l-0.7-0.3v0.2l2.1,1v-0.2l-0.7-0.3l2-4l0.5,0.3
		c0.6,0.3,0.6,1.1,0.3,1.6h0.2l0.7-1.4l-3.9-1.9L79.9,15.2z"/>
	<path class="st0" d="M104.9,38.9v0.2c0.6-0.2,1.4-0.3,1.6,0.4l0.2,0.5l-4.1,1.8l-0.3-0.7h-0.1l0.9,2.1h0.1l-0.3-0.7l4.2-1.8
		l0.2,0.5c0.3,0.6-0.3,1.2-0.9,1.4v0.2l1.4-0.6l-1.7-4L104.9,38.9z"/>
	<path class="st0" d="M67,10.1l0,0.2l0.7,0.1l-1.3,1.9l-0.8-2.1l0.7,0.1l0-0.2l-2.2-0.3l0,0.2l0.6,0.1l1,2.4l-0.3,2.3l-0.6-0.1
		l0,0.2l2.1,0.2v-0.2l-0.6-0.1l0.3-2.3l1.4-2.1l0.5,0.1l0-0.2L67,10.1z"/>
	<path class="st0" d="M94,28.7l3.4-3L97,25.1l0.1-0.1l1.4,1.6l-0.1,0.1l-0.4-0.5l-3.4,3l0.4,0.5l-0.2,0.1l-1.4-1.6l0.1-0.1L94,28.7z
		 M99,27.2l0.9,1l-0.1,0.1L99.4,28h-2.3l-0.8,3.4l0.2,0.3l-0.1,0.1l-1.2-1.3l0.1-0.1l0.3,0.3l0.7-2.8h2.9l-0.4-0.4L99,27.2z"/>
	<path class="st0" d="M64,105.2l0.6-0.1l0.5,4.5l-0.6,0.1l0,0.2l2-0.2l0-0.2l-0.6,0.1l-0.4-4.5l0.6-0.1l0-0.2L64,105L64,105.2z"/>
	<path class="st0" d="M94.5,90.3l0.4-0.5l3.4,2.9l-0.4,0.5l0.1,0.1l1.3-1.5l-0.1-0.1l-0.4,0.5l-3.4-2.9l0.4-0.5l-0.1-0.1l-1.3,1.6
		L94.5,90.3z"/>
	<path class="st0" d="M104.6,72.2l0.2-0.6l4.4,1.1l-0.2,0.6l0.2,0.1l0.5-2l-0.2,0l-0.2,0.6l-4.4-1.1l0.2-0.6l-0.2,0l-0.5,2
		L104.6,72.2z"/>
	<path class="st0" d="M74.4,103.1l0.7-0.2l1,3.1h0l-3.3-2.6l-1.5,0.4l0.1,0.2l0.6-0.2l1.3,4.3l-0.6,0.2l0.1,0.2l1.5-0.5l-0.1-0.1
		l-0.7,0.2l-1.3-4.1h0l4.4,3.5l0.1-0.1l-1.4-4.5l0.6-0.2l-0.1-0.2l-1.5,0.4L74.4,103.1z"/>
	<path class="st0" d="M31.5,95.2l0.5,0.4l-1.3,1.6L29,95.9l1.3-1.6l0.5,0.4l0.1-0.1l-1.6-1.3l-0.1,0.1l0.5,0.4l-2.9,3.5l-0.5-0.4
		L26.3,97l1.6,1.3l0.1-0.1l-0.5-0.4l1.4-1.7l1.6,1.3l-1.4,1.7l-0.5-0.4l-0.1,0.1l1.6,1.3l0.1-0.1l-0.5-0.4l2.9-3.5l0.5,0.4l0.1-0.1
		l-1.6-1.3L31.5,95.2z"/>
	<path class="st0" d="M15.7,70.2l0.1,0.6l-2.1,0.4l-0.4-2l2-0.5l0.1,0.6l0.2,0l-0.4-2l-0.2,0l0.1,0.6l-4.4,1l-0.1-0.6l-0.2,0l0.4,2
		l0.2,0L11,69.7l2.2-0.5l0.4,2l-2.2,0.5l-0.1-0.6l-0.2,0l0.4,2l0.2,0l-0.1-0.6l4.4-1l0.1,0.6l0.2,0l-0.4-2L15.7,70.2z"/>
	<path class="st0" d="M56.7,105h-0.1l-2,4.6H54v0.2l1.5,0.1v-0.2h-0.7l0.6-1.5l1.3,0.1l0.3,1.6h-0.7v0.2l2.2,0.2V110h-0.6L56.7,105z
		 M55.5,107.9l0.7-1.7l0.4,1.9L55.5,107.9z"/>
	<path class="st0" d="M35.4,97.7h-0.1l-4,3.1l-0.5-0.4v0.1l1.3,0.8v-0.1l-0.6-0.3l1.3-1l1.1,0.7l-0.4,1.5l-0.6-0.4v0.1l1.9,1.2
		l-0.1-0.3l-0.5-0.3L35.4,97.7z M33,99.7l1.4-1.1l-0.5,1.7L33,99.7z"/>
	<path class="st0" d="M83.1,99.1H83l1,4.9l-0.5,0.3v0.1l1.3-0.7v-0.1l-0.6,0.3l-0.3-1.6l1.1-0.6l1.2,1.1l-0.6,0.3v0.1l1.9-1.1v-0.1
		l-0.5,0.3L83.1,99.1z M83.8,102.2l-0.4-1.9l1.3,1.2L83.8,102.2z"/>
	<path class="st0" d="M21.8,84.4l0.4,0.6l-2.8,1.7h0l1.7-3.8l-0.8-1.3l-0.1,0.1l0.3,0.5l-3.9,2.4L16.3,84l-0.1,0.1l0.8,1.3l0.1-0.1
		l-0.4-0.6l3.7-2.3l0,0l-2.3,5.1l0.1,0.1l4-2.5l0.3,0.5l0.1-0.1L22,84.3L21.8,84.4z"/>
	<path class="st0" d="M104.2,84.6l-0.5,0.9l-1.9-1.2L102,84c0.4-0.7,0.6-0.6,1.3-0.2l0.1-0.2l-2-1.2l-0.1,0.2
		c0.6,0.4,0.9,0.6,0.5,1.2l-0.2,0.3l-1.9-1.1l0.2-0.3c0.8-1.3,1-1.5,2.2-1.1v-0.1l-1.3-0.7l-1.9,3.3h0.2l0.3-0.6l4,2.4l-0.3,0.6h0.1
		l2.1-3.5l-1.4-0.7h-0.1C104.5,83.1,104.7,83.7,104.2,84.6z"/>
	<path class="st0" d="M26.7,91.7c0.3-0.3,0.9-0.3,1.2,0.1c0,0,0,0,0,0c0.4,0.5,0.4,1.2,0,1.6l0.1,0.1l0.7-0.8
		c-0.2-0.4-0.4-0.8-0.7-1.1c-0.5-0.6-1.4-0.6-2,0c0,0,0,0,0,0c-1.2,1.2,1,2.7,0,3.7c-0.4,0.4-1.1,0.3-1.4-0.1c0,0,0,0,0,0
		c-0.5-0.6-0.5-1.5,0-2l-0.1-0.1l-1,1c0.2,0.5,0.5,0.9,0.8,1.2c0.6,0.7,1.6,0.7,2.2,0.2C28,94.1,25.8,92.6,26.7,91.7z"/>
	<path class="st0" d="M40.1,100.6l0.6,0.3l-1,1.9l-1.9-0.9l1-1.9l0.5,0.3l0.1-0.1l-1.8-0.9l-0.1,0.1l0.6,0.3l-2.1,4l-0.6-0.3
		l-0.1,0.1l1.8,0.9l0.1-0.1l-0.5-0.3l1-2l1.9,0.9l-1,2l-0.5-0.3l-0.1,0.1l1.8,0.9l0.1-0.1l-0.6-0.3l2.1-4l0.6,0.3l0.1-0.2l-1.8-0.9
		L40.1,100.6z"/>
	<path class="st0" d="M78.9,101.5l0.6-0.2l0.8,1.9l-1.9,0.8l-0.8-1.9l0.6-0.2l-0.1-0.2l-1.9,0.8l0.1,0.1l0.6-0.2l1.8,4.1l-0.6,0.2
		l0.1,0.2l1.9-0.8l-0.1-0.1l-0.6,0.2l-0.9-2.1l1.9-0.8l0.9,2.1l-0.6,0.2l0.1,0.1l1.9-0.8l-0.1-0.1L82,105l-1.8-4.1l0.6-0.3l-0.1-0.1
		l-1.9,0.8L78.9,101.5z"/>
	<path class="st0" d="M104.2,75.6c-0.2-0.1-0.4-0.3-0.5-0.5c-0.1-0.2-0.1-0.5,0-0.7c0.2-0.6,0.7-0.9,1.5-0.8v-0.2l-1-0.3
		c-0.3,0.3-0.5,0.7-0.7,1.1c-0.2,0.5-0.1,1.2,0.3,1.6c0.1,0.1,0.3,0.2,0.5,0.3c1.6,0.5,2-2.1,3.2-1.7c0.3,0.1,0.5,0.3,0.6,0.6
		c0.1,0.3,0.1,0.5,0,0.8c-0.1,0.4-0.4,0.6-0.8,0.8c-0.3,0.2-0.7,0.2-1.1,0.1v0.2l1.3,0.4c0.3-0.4,0.6-0.8,0.8-1.3
		c0.1-0.4,0.1-0.8,0-1.2c-0.2-0.4-0.5-0.7-0.9-0.8C105.7,73.4,105.4,75.9,104.2,75.6z"/>
	<path class="st0" d="M106.6,70.1v-0.2c-0.6-0.1-1.3-0.5-1.2-1.2l0.1-0.6l4.4,0.8l-0.1,0.7h0.2l0.4-2.2h-0.2l-0.1,0.7l-4.4-0.8
		l0.1-0.6c0.1-0.7,0.9-0.8,1.5-0.7l0.2-0.2l-1.5-0.3l-0.7,4.2L106.6,70.1z"/>
	<path class="st0" d="M107.7,61.1v-0.2c-0.6,0-1.3-0.3-1.4-0.9v-0.6l4.5-0.1V60h0.2v-2.3h-0.2v0.7l-4.5,0.1v-0.6c0-0.7,0.7-1,1.3-1
		v-0.2h-1.6V61L107.7,61.1z"/>
	<path class="st0" d="M89.4,95l0.6-0.4l2,2.5c0.5,0.6,0.7,1.1-0.3,1.8c-1,0.7-1.3,0.5-1.9-0.2l-2-2.5l0.5-0.4l-0.1-0.1l-1.6,1.3
		l0.1,0.1l0.5-0.4l2.1,2.6c0.6,0.7,1,1,2.3,0c1.3-1,1.1-1.6,0.5-2.3l-2-2.5l0.4-0.3l0-0.1l-1.2,0.9L89.4,95z"/>
	<path class="st0" d="M93.1,91.8l0.5-0.5l2.3,2.3v0l-4.1-0.8l-1.1,1.1l0.1,0.1l0.4-0.4l3.2,3.2l-0.4,0.4l0.1,0.1l1.1-1.1L95,96.1
		l-0.5,0.5l-3.1-3.1v0l5.5,1l0.1-0.1l-3.3-3.3l0.4-0.4l-0.1-0.1l-1.1,1.1L93.1,91.8z"/>
	<path class="st0" d="M106.2,56.4l-0.1-0.6l4.5-0.5l0.1,0.6l0.2,0l-0.2-2l-0.2,0l0.1,0.6L106,55l-0.1-0.6l-0.2,0l0.2,2L106.2,56.4z"
		/>
	<path class="st0" d="M98,85.9l0.4-0.6l2.2,3.1h0L97,87.2l0.4-0.6l-0.1-0.1l-1.2,1.6l0.1,0.1l0.3-0.5l4.8,1.5l0.1-0.1l-2.9-4.1
		l0.3-0.4l-0.1-0.1l-0.8,1.1L98,85.9z"/>
	<path class="st0" d="M110.7,63.2v1l-2.2-0.2v-0.4c0-0.8,0.3-0.8,1.1-0.8v-0.2l-2.3-0.2v0.2c0.7,0,1,0.1,1,0.9v0.4l-2.2-0.1v-0.3
		c0.1-1.5,0.2-1.8,1.5-1.8v-0.2h-1.5l-0.3,3.8h0.2v-0.6l4.5,0.3v0.6h0.2l0.3-4l-1.7-0.2v0.2C110.3,61.8,110.8,62.1,110.7,63.2z"/>
	<path class="st0" d="M15.1,81.7l-0.4-0.9l2-0.9l0.1,0.3c0.3,0.7,0.1,0.9-0.6,1.2v0.2l2.2-1v-0.2c-0.7,0.3-1,0.4-1.3-0.3L17,79.8
		l1.9-0.9l0.1,0.3c0.7,1.4,0.7,1.7-0.3,2.4v0.2L20,81l-1.7-3.5h-0.1l0.3,0.6L14.3,80L14,79.5h-0.1l1.8,3.7l1.5-0.6v-0.2
		C16.2,82.7,15.6,82.6,15.1,81.7z"/>
	<path class="st0" d="M106.2,78.2c-1-0.4-1.3-0.1-1.9,0.7c0.2-0.6,0.2-1.2-0.5-1.5c-0.7-0.3-1.3,0-1.7,0.9l-0.8,1.8h0.1l0.3-0.6
		l4.1,1.9l-0.3,0.6h0.1l0.8-1.8h-0.1l-0.2,0.6l-2.1-0.9l0.2-0.4c0.4-0.8,0.7-0.8,1.5-0.5c0.8,0.3,1.2,0.4,1.6-0.3l0.2-0.4h-0.1v0.1
		C107.2,78.6,106.8,78.5,106.2,78.2z M103.9,79.7l-1.9-0.8l0.1-0.3c0.3-0.6,0.7-0.7,1.3-0.4c0.6,0.2,0.9,0.6,0.6,1.1L103.9,79.7z"/>
	<path class="st0" d="M44.9,106.3c0.3-1,0-1.2-0.8-1.7c0.6,0.1,1.2,0.1,1.5-0.6c0.3-0.7-0.2-1.3-1-1.6l-1.9-0.7v0.1l0.6,0.2
		l-1.6,4.2l-0.6-0.2v0.2l1.9,0.7v-0.1l-0.6-0.2l0.8-2.1l0.4,0.1c0.8,0.3,0.9,0.6,0.6,1.5c-0.3,0.8-0.3,1.2,0.5,1.5l0.5,0.2v-0.2H45
		C44.6,107.3,44.7,107,44.9,106.3z M43.3,104.2l0.7-1.9l0.3,0.1c0.7,0.2,0.7,0.7,0.5,1.3c-0.2,0.6-0.5,0.9-1.1,0.7L43.3,104.2z"/>
	<path class="st0" d="M14,64.6c0.2,0,0.5,0.1,0.6,0.2c0.2,0.2,0.3,0.4,0.3,0.6c0,0.6-0.4,1.2-1,1.3v0.2l1-0.2
		c0.1-0.4,0.2-0.8,0.1-1.3c0-0.2,0-0.4-0.1-0.6c-0.1-0.2-0.2-0.3-0.3-0.5c-0.3-0.3-0.7-0.4-1.1-0.3c-1.7,0.2-0.9,2.7-2.2,2.9
		c-0.6,0-1-0.4-1.1-1c0,0,0,0,0-0.1c0-0.4,0.1-0.8,0.3-1c0.2-0.3,0.6-0.5,1-0.5v-0.2l-1.3,0.2c-0.2,0.5-0.2,1-0.1,1.5
		c0,0.4,0.2,0.8,0.5,1.1c0.3,0.3,0.7,0.4,1.2,0.4C13.6,67.2,12.8,64.7,14,64.6z"/>
	<path class="st0" d="M68.8,104.6l0.6-0.1l0.9,4.4l-0.6,0.1l0,0.2l2-0.4l0-0.2l-0.6,0.1l-0.9-4.4l0.6-0.1l0-0.1l-2,0.4L68.8,104.6z"
		/>
	<path class="st0" d="M47.3,103.5l0.6,0.2l-1.2,4.3l-0.6-0.2l0,0.1l2,0.5l0.1-0.1l-0.6-0.2l1.2-4.3l0.6,0.2l0-0.2l-2-0.5L47.3,103.5
		z"/>
	<path class="st0" d="M21.6,86.7l0.1,0.2c0.5-0.4,1.3-0.6,1.7,0l0.4,0.5l-3.6,2.6l-0.4-0.6l-0.1,0.1l1.4,1.8l0.1-0.1l-0.4-0.6
		l3.6-2.7l0.4,0.5c0.4,0.6,0,1.2-0.5,1.6l0.1,0.2l1.2-0.9l-2.6-3.4L21.6,86.7z"/>
	<path class="st0" d="M13.4,54.2v0.2c0.6,0,1.3,0.4,1.3,1.1V56l-4.5-0.3v-0.8H10l-0.2,2.2H10v-0.7l4.5,0.3v0.6
		c0,0.7-0.8,0.9-1.4,0.9v0.2l1.6,0.1l0.3-4.3L13.4,54.2z"/>
	<path class="st0" d="M12.4,75.1l4.2-1.5L16.4,73h0.2l0.7,2h-0.2l-0.2-0.6l-4.3,1.5l0.2,0.6h-0.2l-0.7-2h0.2L12.4,75.1z M17.5,75.6
		l0.4,1.2h-0.2l-0.1-0.4l-2.1-0.8l-2,2.8l0.1,0.3h-0.2L12.9,77h0.2l0.1,0.4l1.7-2.4l2.6,1.1l-0.2-0.5L17.5,75.6z"/>
	<path class="st0" d="M14.8,61.2c0-0.3-0.1-0.6-0.2-0.9c-0.1-0.3-0.3-0.5-0.6-0.7c-0.5-0.4-1.1-0.6-1.7-0.5c-0.6,0-1.2,0.2-1.6,0.6
		c-0.9,0.8-0.9,2.2-0.1,3c0.1,0.1,0.1,0.1,0.2,0.2c0.5,0.4,1.1,0.6,1.7,0.5c0.6,0.1,1.2-0.2,1.7-0.6c0.2-0.2,0.4-0.5,0.5-0.7
		C14.7,61.8,14.8,61.5,14.8,61.2z M11,62.4c-0.3,0-0.6-0.2-0.7-0.4c-0.1-0.2-0.2-0.4-0.2-0.7c-0.1-0.3,0-0.6,0.2-0.9
		c0.2-0.2,0.5-0.3,0.7-0.3c0.4-0.1,0.8-0.1,1.1-0.1c0.5-0.1,1-0.1,1.5,0c0.1,0,0.2,0.1,0.3,0.1c0.1,0.1,0.2,0.2,0.3,0.3
		c0.1,0.2,0.2,0.5,0.2,0.7c0,0.2,0,0.5-0.1,0.7c-0.1,0.2-0.3,0.4-0.5,0.4c-0.4,0.1-0.9,0.2-1.3,0.2C11.9,62.5,11.4,62.5,11,62.4
		L11,62.4z"/>
	<path class="st0" d="M49.9,108.7l0.8-4.3l-0.6-0.1v-0.2l2.1,0.4c0.4,0.1,0.8,0.2,1.2,0.4c0.3,0.2,0.6,0.6,0.7,1
		c0.2,0.4,0.2,0.9,0.1,1.4c-0.1,0.5-0.3,0.9-0.6,1.3c-0.3,0.3-0.6,0.5-1,0.6c-0.4,0.1-0.8,0.1-1.2,0l-2-0.4v-0.2L49.9,108.7z
		 M51.5,104.5l-0.8,4.4l0.6,0.1c0.3,0,0.5,0,0.8,0c0.2,0,0.4-0.1,0.6-0.3c0.2-0.2,0.3-0.4,0.4-0.7c0.1-0.4,0.2-0.8,0.3-1.2
		c0.1-0.4,0.1-0.9,0-1.3c-0.1-0.3-0.2-0.5-0.4-0.6c-0.3-0.1-0.5-0.2-0.8-0.2L51.5,104.5z"/>
	<path class="st0" d="M62.8,106.5h-0.2c0-0.2-0.1-0.4-0.2-0.5c-0.1-0.3-0.2-0.5-0.5-0.6c-0.2-0.1-0.5-0.2-0.7-0.2
		c-0.3,0-0.6,0.1-0.8,0.3c-0.2,0.2-0.3,0.4-0.3,0.7c0,0.4,0,0.8,0,1.1c0,0.6,0,1.2,0.1,1.7c0,0.2,0.2,0.5,0.4,0.6
		c0.2,0.1,0.4,0.2,0.7,0.2c0.2,0,0.4-0.1,0.5-0.1c0.1,0,0.1-0.1,0.2-0.2c0-0.1,0.1-0.1,0.1-0.2c0-0.3,0-0.5,0-0.8v-0.1h-0.7v-0.2
		h2.2v0.2H63c0,0.2,0,0.5-0.1,0.7c-0.1,0.2-0.2,0.4-0.4,0.6c-0.3,0.3-0.8,0.4-1.2,0.4c-0.6,0-1.2-0.3-1.5-0.7
		c-0.4-0.5-0.6-1.1-0.6-1.7c0-0.7,0.2-1.3,0.6-1.9c0.2-0.2,0.4-0.4,0.7-0.6c0.7-0.3,1.5-0.3,2,0.2c0.1,0,0.2-0.1,0.2-0.1h0.2
		L62.8,106.5z"/>
</g>
<text transform="matrix(1 0 0 1 130.8166 54.182)"><tspan x="0" y="0" class="st6 st7 st8">INHA UNIVERSITY </tspan><tspan x="0" y="30" class="st6 st7 st8">IN TASHKENT</tspan></text>
</svg>
