<?xml version="1.0" encoding="utf-8"?>
<!-- Generator: Adobe Illustrator 28.0.0, SVG Export Plug-In . SVG Version: 6.00 Build 0)  -->
<svg version="1.1" id="Layer_1" xmlns="http://www.w3.org/2000/svg" xmlns:xlink="http://www.w3.org/1999/xlink" x="0px" y="0px"
	 viewBox="0 0 360 120" style="enable-background:new 0 0 360 120;" xml:space="preserve">
<style type="text/css">
	.st0{fill:#2D3F51;}
	.st1{fill:#FCFDFD;}
	.st2{fill:#26B89A;}
	.st3{fill:#2D3E50;}
	.st4{fill:#364E67;}
</style>
<g>
	<path class="st0" d="M19.6,99.1c-1-0.7-1.8-1.4-2.7-2.2c-3.1-2.7-5.7-5.8-8-9.2c-1.8-2.6-3.3-5.4-4.5-8.3c-1.3-2.9-2.2-6-2.9-9.1
		c-0.5-2.2-0.7-4.5-1-6.7c-0.2-1.6-0.3-3.1-0.3-4.7c0-1.3,0.3-2.5,0.4-3.8c0.2-2.8,0.7-5.5,1.5-8.2c1.4-5.1,3.5-9.8,6.3-14.3
		c2.3-3.5,5-6.7,8.1-9.6c3.1-2.8,6.5-5.2,10.1-7.2c4.8-2.6,9.9-4.3,15.2-5.3c1.9-0.3,3.8-0.5,5.7-0.6c1.2-0.1,2.4-0.1,3.6-0.1
		c1.6,0,3.3,0.2,4.9,0.4c-1.2,0.9-2.3,1.8-3.5,2.8c-0.1-0.3-0.3-0.3-0.6-0.1c-1.6,0.9-3.2,1.8-4.6,3c-1.1,0.8-2.1,1.7-2.9,2.9
		c-0.2,0.3-0.3,0.5,0,0.8c-0.1,0.1-0.2,0.2-0.3,0.3c-3.1,2.5-6.1,4.9-9.2,7.4c-5.4,4.3-10.8,8.7-16.2,13c-0.7,0.6-0.7,0.6,0,1.2
		c12,9.6,24,19.2,36,28.8c0.4,0.3,0.4,0.5,0,0.7c-0.1,0.1-0.2,0.1-0.3,0.2c-5.3,4.3-10.7,8.6-16,12.9c-5.5,4.4-11,8.8-16.4,13.2
		C21.2,97.7,20.3,98.3,19.6,99.1z"/>
	<path class="st1" d="M19.6,99.1c0.7-0.8,1.6-1.4,2.4-2c5.5-4.4,11-8.8,16.4-13.2c5.3-4.3,10.7-8.6,16-12.9c0.1-0.1,0.2-0.2,0.3-0.2
		c0.4-0.2,0.4-0.4,0-0.7c-12-9.6-24-19.2-36-28.8c-0.7-0.6-0.7-0.6,0-1.2c5.4-4.3,10.8-8.7,16.2-13c3.1-2.5,6.1-4.9,9.2-7.4
		c0.1-0.1,0.2-0.2,0.3-0.3c1.6-1.3,3.2-2.5,4.8-3.8c1-0.8,2.1-1.5,3-2.4l0,0c0.2,0,0.3-0.1,0.4-0.2c1.2-0.9,2.3-1.8,3.5-2.8
		c1.6,0.2,3.3,0.5,4.9,0.8c6.2,1.4,12,3.8,17.2,7.4c0.1,0.1,0.2,0.1,0.3,0.2c0,1,0,2,0,3c0,26.2,0,52.4,0,78.7c0,0.2,0,0.4,0,0.6
		c-1.9,1.4-3.9,2.5-5.9,3.5c-1.5,0.8-3,1.4-4.6,2c-0.2,0.1-0.4,0.2-0.7,0.2c0-0.1,0-0.1,0-0.2c0-11,0-21.9,0-32.9
		c0-0.1,0.1-0.2-0.1-0.3c-1.9,1.5-3.8,3-5.7,4.5c-7.1,5.7-14.2,11.3-21.3,17c-3.4,2.7-6.7,5.4-10.1,8.1c0,0-0.1,0-0.1,0.1
		c-0.1,0.1-0.1,0.1-0.2,0.2c-0.5,0.4-1.1,0.8-1.6,1.3c-0.4,0-0.7-0.3-1.1-0.5c-2.5-1.3-4.9-2.8-7.1-4.5
		C19.8,99.3,19.7,99.2,19.6,99.1z M67.3,15.9c0.1-0.7,0-1.4,0-2.1c-2.7,2.2-5.4,4.2-8,6.3c-8.5,6.7-16.9,13.4-25.4,20.1
		c-0.6,0.4-0.5,0.4,0,0.9c0.1,0,0.1,0.1,0.2,0.1c8.7,6.9,17.4,13.7,26.1,20.6c2.3,1.8,4.6,3.6,6.9,5.4c0.1,0.1,0.2,0.4,0.3,0
		c0-0.1,0-0.3,0-0.4c0-16.7,0-33.5,0-50.2C67.3,16.3,67.3,16.1,67.3,15.9z"/>
	<path class="st2" d="M78.5,100.9c0-0.2,0-0.4,0-0.6c0-26.2,0-52.4,0-78.7c0-1,0-2,0-3c2.2,1.5,4.3,3.2,6.2,5
		c7.7,7.4,12.7,16.3,14.6,26.7c2.8,15-0.7,28.6-10.1,40.6c-2.9,3.7-6.4,6.9-10.2,9.6C78.8,100.7,78.6,100.8,78.5,100.9z"/>
	<path class="st3" d="M30,102.9c3.4-2.7,6.7-5.4,10.1-8.1c7.1-5.7,14.2-11.3,21.3-17c1.9-1.5,3.8-3,5.7-4.5c0.2,0.1,0.1,0.2,0.1,0.3
		c0,11,0,21.9,0,32.9c0,0.1,0,0.1,0,0.2c-1.1,0.5-2.2,0.8-3.4,1.2c-3.1,0.9-6.3,1.4-9.5,1.8c-2.1,0.2-4.2,0.4-6.3,0.2
		c-1.8-0.2-3.7-0.3-5.5-0.6c-3.3-0.5-6.5-1.3-9.7-2.5c-1.4-0.5-2.8-1-4.1-1.8c0.4-0.6,0.8-1,1.3-1.5C30.5,103,30.3,102.9,30,102.9z"
		/>
	<path class="st3" d="M124.1,49.3c-3.1-0.1-6.2-0.7-9-2.1c-0.4-0.2-0.6-0.5-0.4-0.9c0.4-1,0.7-2,1-3c0.1-0.4,0.2-0.4,0.6-0.2
		c2.8,1.6,5.8,2.3,9,2.2c1.8-0.1,3.5-0.6,4.9-1.7c1.3-1.1,2-2.5,2.1-4.2c0.2-3.1-1.5-5-4-6.4c-1.7-0.9-3.6-1.5-5.4-2.3
		c-2.4-1.1-4.6-2.5-6.1-4.8c-2.1-3.3-1.6-8.3,1.1-11.2c2.2-2.3,4.9-3.3,7.9-3.7c2.8-0.3,5.5,0,8.1,0.9c0.5,0.2,0.9,0.4,1.4,0.6
		c0.3,0.1,0.4,0.3,0.3,0.7c-0.4,1-0.7,2-1,3.1c-0.1,0.3-0.2,0.4-0.5,0.2c-1.9-1-3.9-1.5-6-1.5c-1.4,0-2.8,0-4.1,0.6
		c-2,0.8-3.3,2.2-3.6,4.4c-0.2,2.3,0.7,4,2.5,5.3c1.5,1,3.1,1.7,4.7,2.3c1.9,0.8,3.8,1.6,5.5,2.8c2.3,1.6,3.7,3.8,4,6.6
		c0.3,2.9-0.2,5.5-2,7.9c-1.7,2.2-4,3.4-6.6,4C127.1,49.2,125.6,49.4,124.1,49.3z"/>
	<path class="st2" d="M330.4,77.6c0,3.4-0.8,6.5-2.9,9.2c-2.2,2.9-5.2,4.4-8.8,4.8c-3,0.4-5.8-0.1-8.4-1.7c-3.1-1.9-5-4.7-5.7-8.2
		c-0.9-3.9-0.6-7.7,1.3-11.3c2.1-4,5.4-6.1,9.9-6.7c2.8-0.4,5.5,0,8.1,1.4c3.5,1.9,5.5,4.9,6.3,8.7
		C330.3,75.2,330.4,76.4,330.4,77.6z M316.6,67.5c-2.1,0-4.2,1.2-5.7,3.5c-1.1,1.8-1.6,3.7-1.8,5.8c-0.2,2.7,0.2,5.3,1.7,7.6
		c2.9,4.8,9.2,5,12.4,0.5c2.8-3.9,2.8-10.4,0-14.3C321.8,68.5,319.8,67.5,316.6,67.5z"/>
	<path class="st2" d="M216,77.6c0,3.4-0.8,6.7-3,9.4c-2.2,2.8-5.2,4.2-8.6,4.7c-3,0.4-5.9-0.1-8.5-1.7c-3.1-1.9-4.9-4.6-5.7-8.1
		c-0.9-3.9-0.6-7.7,1.2-11.2c2.1-4,5.5-6.2,9.9-6.8c2.8-0.3,5.5,0,8,1.3c3.5,1.9,5.5,4.9,6.3,8.8C215.9,75.2,216,76.4,216,77.6z
		 M202.4,67.5c-2.2,0-4.4,1.2-5.8,3.5c-1.1,1.8-1.6,3.7-1.8,5.8c-0.2,2.7,0.3,5.3,1.7,7.6c2.9,4.8,9.2,5,12.4,0.4
		c2.8-3.9,2.8-10.4,0-14.3C207.4,68.5,205.5,67.5,202.4,67.5z"/>
	<path class="st3" d="M193.9,36.2c-2.9,0-5.9,0-8.8,0c-0.7,0-0.7,0-0.6,0.7c0.1,1.1,0.3,2.3,0.7,3.3c1.1,2.8,3.2,4.4,6.1,5
		c3.1,0.6,6.2,0.2,9.2-0.9c0.5-0.2,0.7-0.2,0.8,0.4c0.1,0.8,0.4,1.5,0.6,2.3c0.1,0.4,0,0.6-0.4,0.8c-2,0.8-4.1,1.2-6.3,1.4
		c-2,0.2-4,0.2-5.9-0.3c-4.7-1.1-7.7-4.1-8.9-8.8c-1.1-4.2-0.7-8.3,1.2-12.2c1.9-3.8,5-6,9.3-6.5c2.2-0.3,4.3,0,6.3,0.8
		c2.6,1.2,4.3,3.3,5.3,5.9c0.8,2.1,1.1,4.3,1,6.5c0,0.2-0.1,0.4-0.1,0.6c-0.1,1-0.1,1-1.2,1C199.5,36.2,196.7,36.2,193.9,36.2z
		 M191.6,32.8c2.2,0,4.4,0,6.5,0c0.5,0,0.7-0.1,0.6-0.6c0-0.9-0.2-1.8-0.4-2.6c-0.4-1.3-1-2.5-2.1-3.4c-1-0.9-2.2-1.3-3.6-1.4
		c-2.3-0.2-4.3,0.5-5.8,2.3c-1.3,1.4-1.9,3.1-2.3,5c-0.1,0.5,0,0.7,0.5,0.7C187.3,32.7,189.4,32.8,191.6,32.8z"/>
	<path class="st3" d="M277,36.2c-2.9,0-5.9,0-8.8,0c-0.7,0-0.7,0-0.6,0.7c0.1,1.1,0.3,2.3,0.7,3.3c1.1,2.8,3.2,4.5,6.1,5
		c3.1,0.6,6.2,0.2,9.2-0.9c0.5-0.2,0.7-0.1,0.8,0.4c0.1,0.8,0.4,1.5,0.6,2.3c0.1,0.4,0,0.6-0.4,0.7c-2,0.8-4.1,1.2-6.3,1.4
		c-2,0.2-4,0.2-5.9-0.3c-5-1.2-8-4.4-9.1-9.4c-0.9-4.1-0.5-8.1,1.6-11.9c1.9-3.6,5-5.7,9.1-6.2c2.2-0.3,4.3-0.1,6.3,0.8
		c2.7,1.2,4.3,3.3,5.3,6c0.8,2.1,1.1,4.2,1,6.4c0,0.4-0.1,0.8-0.1,1.2c0,0.3-0.2,0.4-0.5,0.4c-0.2,0-0.3,0-0.5,0
		C282.7,36.2,279.8,36.2,277,36.2z M274.7,32.8c2.2,0,4.3,0,6.5,0c0.6,0,0.7-0.2,0.7-0.7c-0.1-1.3-0.4-2.6-0.9-3.8
		c-0.7-1.4-1.7-2.4-3.1-3c-0.7-0.3-1.4-0.4-2.1-0.5c-2.3-0.2-4.3,0.5-5.8,2.3c-1.2,1.4-1.9,3.1-2.2,4.9c-0.1,0.7-0.1,0.7,0.6,0.7
		C270.4,32.8,272.6,32.8,274.7,32.8z"/>
	<path class="st2" d="M262.7,87.9c-0.3,0-0.3,0.2-0.4,0.3c-2.9,3.6-8.4,4.7-12.4,2.6c-2.4-1.3-3.7-3.5-3.8-6.3
		c-0.2-4.5,2.4-7.3,6.2-8.8c2.9-1.2,6-1.5,9.2-1.5c0.8,0,0.8,0,0.8-0.8c0-1.6-0.3-3.1-1.5-4.4c-1.4-1.5-3.2-1.7-5.1-1.6
		c-2.2,0.1-4.3,0.6-6.2,1.8c-0.3,0.2-0.4,0-0.5-0.2c-0.3-0.8-0.5-1.6-0.8-2.5c-0.1-0.3,0-0.5,0.3-0.7c1.6-0.9,3.4-1.5,5.3-1.8
		c2.2-0.4,4.5-0.5,6.7,0.1c3.6,0.9,5.6,3.4,6.4,7c0.2,1.2,0.4,2.3,0.4,3.5c0,4.1,0,8.3,0,12.4c0,1.2,0.1,2.4,0.3,3.6
		c0.1,0.4,0,0.6-0.5,0.6c-1.2,0-2.3,0-3.5,0c-0.3,0-0.4-0.1-0.5-0.4C262.9,89.8,262.8,88.9,262.7,87.9z M262.3,80.5
		c0-0.9,0-1.7,0-2.5c0-0.2,0-0.4-0.3-0.4c-2.5,0-5,0.1-7.4,1c-1.9,0.8-3.3,2-3.6,4.2c-0.3,2.3,0.6,4.6,3.2,5.3
		c0.8,0.2,1.7,0.2,2.5,0.1c2.7-0.3,5.1-2.5,5.5-5C262.4,82.2,262.3,81.3,262.3,80.5z"/>
	<path class="st2" d="M134.5,68.7c0.8-1.1,1.6-2.1,2.7-2.9c3.8-2.9,9.6-2.7,12.8,0.6c1.5,1.6,2.3,3.5,2.7,5.6
		c0.2,1.1,0.2,2.1,0.2,3.2c0,5.1,0,10.3,0,15.4c0,0.5-0.1,0.6-0.6,0.6c-1.2,0-2.5,0-3.7,0c-0.5,0-0.6-0.1-0.6-0.6c0-5,0-9.9,0-14.9
		c0-1.2-0.1-2.3-0.4-3.5c-1.2-4.9-6.4-5.4-9.3-3.5c-2.3,1.5-3.4,3.7-3.4,6.4c0,5.1,0,10.3,0,15.4c0,0.5-0.1,0.6-0.6,0.6
		c-1.2,0-2.5,0-3.7,0c-0.5,0-0.6-0.1-0.6-0.6c0-5.5,0-11,0-16.4c0-3.2,0.1-6.3-0.2-9.5c0-0.3,0-0.4,0.3-0.4c1.2,0,2.4,0,3.6,0
		c0.4,0,0.4,0.2,0.4,0.5C134.3,66.1,134.4,67.4,134.5,68.7z"/>
	<path class="st2" d="M165.3,68.7c0.8-1.1,1.6-2.1,2.7-2.9c3.8-2.9,9.6-2.7,12.8,0.6c1.5,1.6,2.3,3.5,2.7,5.6
		c0.2,1.1,0.2,2.1,0.2,3.2c0,5.1,0,10.2,0,15.3c0,0.6-0.2,0.7-0.7,0.7c-1.2,0-2.4,0-3.5,0c-0.5,0-0.7-0.1-0.7-0.6c0-5,0-9.9,0-14.9
		c0-1.6-0.2-3.1-0.8-4.6c-1-2.3-3.2-3.5-5.7-3.4c-3.1,0.1-5.8,2.6-6.4,5.7c-0.1,0.6-0.2,1.2-0.2,1.8c0,5.1,0,10.1,0,15.2
		c0,0.6-0.2,0.8-0.8,0.7c-1.2,0-2.4,0-3.5,0c-0.5,0-0.6-0.1-0.6-0.6c0-5.5,0-10.9,0-16.4c0-3.2,0.1-6.4-0.2-9.5c0-0.3,0-0.4,0.3-0.4
		c1.2,0,2.4,0,3.6,0c0.4,0,0.4,0.2,0.4,0.5C165.1,66.1,165.2,67.4,165.3,68.7z"/>
	<path class="st2" d="M340.9,68.7c1.5-2.3,3.4-3.8,5.9-4.5c3.6-1,6.8-0.4,9.6,2.2c1.6,1.5,2.3,3.5,2.7,5.6c0.2,1.1,0.2,2.1,0.2,3.2
		c0,5.1,0,10.3,0,15.4c0,0.5-0.1,0.6-0.6,0.6c-1.2,0-2.5,0-3.7,0c-0.5,0-0.6-0.2-0.6-0.6c0-5.2,0-10.4,0-15.6c0-1.8-0.4-3.6-1.5-5.1
		c-1.2-1.7-2.9-2.2-4.8-2.2c-3.6,0.1-6,2.9-6.6,5.7c-0.1,0.6-0.2,1.3-0.2,1.9c0,5.1,0,10.2,0,15.3c0,0.5-0.1,0.6-0.6,0.6
		c-1.2,0-2.4,0-3.6,0c-0.6,0-0.6-0.2-0.6-0.7c0-7,0-14,0-20.9c0-1.6-0.1-3.2-0.2-4.8c0-0.3,0-0.5,0.4-0.5c1.2,0,2.3,0,3.5,0
		c0.4,0,0.5,0.1,0.5,0.5C340.7,66.1,340.8,67.4,340.9,68.7z"/>
	<path class="st3" d="M214.2,26.2c0.5-0.8,1-1.5,1.7-2.1c1.6-1.5,3.5-2.4,5.8-2.7c1.9-0.3,3.7,0,5.4,0.8c2.9,1.3,4.4,3.7,5.1,6.8
		c0.3,1.2,0.4,2.5,0.4,3.7c0,5.1,0,10.2,0,15.3c0,0.6-0.1,0.8-0.7,0.8c-1.1-0.1-2.3,0-3.4,0c-0.6,0-0.8-0.1-0.7-0.7
		c0-5.1,0-10.3,0-15.4c0-1.6-0.3-3.3-1.2-4.7c-1-1.6-2.4-2.4-4.2-2.5c-1.9-0.2-3.6,0.3-5,1.6c-1.4,1.2-2.3,2.7-2.5,4.6
		c-0.1,0.8-0.1,1.5-0.1,2.2c0,4.8,0,9.5,0,14.3c0,0.6-0.1,0.7-0.7,0.7c-1.2,0-2.3,0-3.5,0c-0.6,0-0.7-0.2-0.7-0.7c0-7,0-13.9,0-20.9
		c0-1.6-0.1-3.2-0.2-4.8c0-0.3,0.1-0.4,0.4-0.4c1.2,0,2.4,0,3.6,0c0.4,0,0.4,0.2,0.4,0.5c0.1,1.2,0.1,2.5,0.2,3.7
		C214.1,26.2,214.1,26.2,214.2,26.2z"/>
	<path class="st2" d="M231.1,86.3c0.4-1.1,0.7-2.3,1.1-3.4c2.1-6,4.2-12.1,6.3-18.1c0.1-0.2,0.1-0.4,0.4-0.4c1.6,0,3.2,0,4.9,0
		c-0.4,0.9-0.7,1.8-1,2.7c-3.1,7.9-6.2,15.8-9.3,23.7c-0.1,0.3-0.3,0.5-0.7,0.5c-1.3,0-2.5,0-3.8,0c-0.3,0-0.5-0.1-0.6-0.4
		c-3.3-8.7-6.6-17.4-9.9-26.1c0-0.1-0.1-0.2-0.1-0.4c1.7,0,3.3,0,4.9,0c0.4,0,0.4,0.3,0.5,0.5c1.6,4.5,3.2,9.1,4.8,13.6
		c0.9,2.5,1.7,4.9,2.4,7.5C230.9,86.1,230.9,86.2,231.1,86.3z"/>
	<path class="st3" d="M252.1,49.3c-3,0-5.6-0.6-8-2.1c-2.6-1.7-4.3-4.1-5.1-7.1c-1-3.6-0.9-7.2,0.6-10.6c1.9-4.6,5.5-7.1,10.3-8
		c2.6-0.5,5.3-0.3,7.8,0.5c0.4,0.1,0.8,0.3,1.2,0.4c0.5,0.2,0.7,0.4,0.5,1c-0.3,0.8-0.5,1.7-0.8,2.5c-0.1,0.4-0.2,0.4-0.6,0.3
		c-2.4-1.1-4.9-1.3-7.5-0.8c-3.7,0.8-5.9,3.2-6.8,6.7c-0.8,3.2-0.6,6.4,1.2,9.2c1.4,2.2,3.5,3.5,6.1,3.9c2.4,0.3,4.8,0,7-0.9
		c0.4-0.2,0.5-0.1,0.6,0.3c0.2,0.9,0.4,1.8,0.6,2.6c0.1,0.4,0,0.5-0.3,0.7c-1.3,0.6-2.7,0.9-4.2,1.1
		C253.8,49.2,252.8,49.4,252.1,49.3z"/>
	<path class="st3" d="M155.8,49.3c-3,0-5.6-0.6-8-2.1c-2.6-1.7-4.3-4.1-5.1-7.1c-1-3.6-0.9-7.2,0.6-10.6c1.9-4.6,5.5-7.1,10.3-8
		c2.6-0.5,5.3-0.3,7.8,0.5c0.5,0.1,1,0.3,1.5,0.6c0.3,0.1,0.3,0.3,0.2,0.5c-0.3,1-0.6,1.9-0.9,2.9c-0.1,0.4-0.3,0.4-0.6,0.2
		c-2.1-1-4.3-1.2-6.6-1c-3.4,0.4-6,2.2-7.2,5.4c-1.4,3.6-1.3,7.3,0.8,10.7c1.4,2.3,3.5,3.5,6.1,3.9c2.4,0.4,4.8,0,7-0.9
		c0.4-0.2,0.6-0.2,0.6,0.3c0.1,0.9,0.3,1.7,0.6,2.5c0.2,0.5,0,0.7-0.5,0.9c-1.3,0.5-2.6,0.8-4,1C157.5,49.2,156.5,49.4,155.8,49.3z"
		/>
	<path class="st2" d="M287.1,87.4c0.1,1.1,0.2,2.2,0.2,3.4c0,0.2,0,0.4-0.3,0.4c-2.5,0.7-5.1,1-7.6-0.2c-2.1-1-3-2.8-3.4-5
		c-0.2-1-0.3-2-0.2-3c0-4.8,0-9.6,0-14.3c0-0.5-0.1-0.7-0.6-0.6c-1,0-2.1,0-3.1,0c-0.3,0-0.4-0.1-0.4-0.4c0-1,0-1.9,0-2.9
		c0-0.3,0.1-0.4,0.4-0.4c1.1,0,2.2,0,3.3,0c0.4,0,0.5-0.1,0.5-0.5c0-1.3,0-2.7,0-4c0-0.4,0.1-0.5,0.5-0.6c1.3-0.4,2.6-0.8,3.9-1.2
		c0.4-0.1,0.5,0,0.5,0.3c0,1.8,0,3.6,0,5.4c0,0.4,0.1,0.5,0.5,0.5c2,0,3.9,0,5.9,0c0.5,0,0.6,0.1,0.6,0.6c0,0.9,0,1.7,0,2.6
		c0,0.4-0.1,0.6-0.5,0.5c-2,0-3.9,0-5.9,0c-0.4,0-0.6,0.1-0.6,0.5c0,4.8,0,9.7,0,14.5c0,0.8,0.1,1.7,0.4,2.5c0.5,1.4,1.5,2.1,3,2.1
		C285,87.8,286.1,87.7,287.1,87.4z"/>
	<path class="st2" d="M121.3,72.5c0,6,0,12.1,0,18.1c0,0.5-0.1,0.6-0.6,0.6c-1.3,0-2.5,0-3.8,0c-0.4,0-0.5-0.1-0.5-0.5
		c0-2.3,0-4.7,0-7c0-9.8,0-19.5,0-29.3c0-0.5,0.1-0.7,0.7-0.7c1.2,0,2.5,0,3.7,0c0.4,0,0.5,0.1,0.5,0.5
		C121.3,60.4,121.3,66.5,121.3,72.5z"/>
	<path class="st0" d="M173.6,35.3c0,4.2,0,8.5,0,12.7c0,0.6-0.1,0.7-0.7,0.7c-1.2,0-2.3,0-3.5,0c-0.6,0-0.7-0.2-0.7-0.7
		c0-7.9,0-15.9,0-23.8c0-0.6,0-1.2,0-1.9c0-0.3,0.1-0.5,0.5-0.5c1.3,0,2.6,0,3.9,0c0.5,0,0.5,0.3,0.5,0.6
		C173.6,26.8,173.6,31.1,173.6,35.3z"/>
	<path class="st2" d="M293.1,77.7c0-4.3,0-8.5,0-12.8c0-0.5,0.1-0.6,0.6-0.6c1.3,0,2.5,0,3.8,0c0.4,0,0.5,0.1,0.5,0.5
		c0,8.6,0,17.3,0,25.9c0,0.4-0.1,0.5-0.5,0.5c-1.3,0-2.6,0-3.9,0c-0.5,0-0.5-0.1-0.5-0.6C293.1,86.4,293.1,82,293.1,77.7z"/>
	<path class="st3" d="M120.5,100.8c-0.2,0.4,0,0.8,0,1.2c0,1.7,0,3.5,0,5.2c0,0.4-0.1,0.6-0.6,0.6c-1.4,0-1.4,0-1.4-1.4
		c0-2.6,0-5.1,0-7.7c0-0.5,0.1-0.6,0.6-0.6c1.4-0.2,2.3,0.3,2.9,1.6c0.8,1.7,1.8,3.2,2.6,5c0-0.3-0.1-0.6-0.1-0.9c0-1.7,0-3.4,0-5.1
		c0-0.5,0.1-0.6,0.6-0.6c1.4,0,1.4,0,1.4,1.4c0,2.6,0,5.1,0,7.7c0,0.5-0.2,0.6-0.6,0.7c-1.3,0.2-2-0.3-2.5-1.5
		c-0.8-1.8-2-3.5-2.7-5.3C120.6,100.9,120.5,100.9,120.5,100.8z"/>
	<path class="st3" d="M337.7,104.6c-0.1-2,0-4-0.1-5.9c0-0.5,0.2-0.7,0.7-0.7c1.3,0,1.3,0,1.3,1.3c0,2.6,0,5.2,0,7.7
		c0,0.5-0.2,0.6-0.7,0.7c-1.2,0.2-1.9-0.3-2.4-1.4c-0.9-1.8-2-3.6-2.8-5.4c0,0-0.1-0.1-0.1-0.2c-0.2,0.4,0,0.8,0,1.1
		c0,1.8,0,3.5,0,5.3c0,0.4-0.1,0.5-0.5,0.5c-1.5,0-1.5,0-1.5-1.4c0-2.6,0-5.1,0-7.7c0-0.5,0.1-0.7,0.7-0.6c0.2,0,0.3,0,0.5,0
		c1.4,0,1.4,0,2.1,1.3c1,1.7,2,3.4,2.7,5.3C337.6,104.6,337.7,104.6,337.7,104.6z"/>
	<path class="st3" d="M257.6,104.7c-0.1-2,0-3.9-0.1-5.9c0-0.5,0.1-0.7,0.7-0.7c1.3,0,1.3,0,1.3,1.3c0,2.6,0,5.2,0,7.7
		c0,0.5-0.2,0.6-0.7,0.7c-1.2,0.1-1.9-0.3-2.4-1.4c-0.9-1.8-2-3.6-2.8-5.4c0,0-0.1-0.1-0.1-0.2c-0.2,0.4,0,0.8,0,1.1
		c0,1.8,0,3.5,0,5.3c0,0.4-0.1,0.5-0.5,0.5c-1.5,0-1.5,0-1.5-1.4c0-2.6,0-5.1,0-7.7c0-0.5,0.2-0.7,0.7-0.6c0.2,0,0.3,0,0.5,0
		c1.4,0,1.4,0,2.1,1.2c0.9,1.7,2,3.4,2.7,5.3C257.5,104.6,257.6,104.6,257.6,104.7z"/>
	<path class="st3" d="M199.6,104.6c-0.1-2,0-4,0-6c0-0.5,0.2-0.6,0.6-0.6c1.4,0,1.4,0,1.4,1.4c0,2.6,0,5.1,0,7.7
		c0,0.6-0.2,0.7-0.7,0.7c-1.6,0-1.6,0-2.4-1.4c-1-1.8-2-3.5-2.8-5.4c0-0.1-0.1-0.1-0.2-0.1c-0.1,0.4,0.1,0.7,0.1,1.1
		c0,1.8,0,3.5,0,5.3c0,0.4-0.1,0.6-0.6,0.6c-1.4,0-1.4,0-1.4-1.4c0-2.6,0-5.1,0-7.7c0-0.5,0.2-0.6,0.7-0.7c1.4-0.2,2.2,0.3,2.8,1.6
		C197.8,101.3,198.8,102.9,199.6,104.6z"/>
	<path class="st3" d="M158.9,104.6c-0.1-2,0-4-0.1-5.9c0-0.5,0.2-0.7,0.7-0.7c1.3,0,1.3,0,1.3,1.3c0,2.6,0,5.2,0,7.7
		c0,0.5-0.2,0.6-0.7,0.7c-1.2,0.2-1.9-0.3-2.4-1.4c-0.9-1.8-2-3.6-2.8-5.4c0,0-0.1-0.1-0.1-0.2c-0.2,0.4,0,0.8,0,1.1
		c0,1.8,0,3.5,0,5.3c0,0.4-0.1,0.5-0.5,0.5c-1.5,0-1.5,0-1.5-1.4c0-2.6,0-5.1,0-7.7c0-0.5,0.1-0.7,0.7-0.6c0.2,0,0.3,0,0.5,0
		c1.4,0,1.4,0,2.1,1.3c1,1.7,2,3.4,2.7,5.3C158.8,104.6,158.8,104.6,158.9,104.6z"/>
	<path class="st3" d="M311.6,103.6c0,1.2-0.6,2.9-2.4,3.8c-1.6,0.8-3.2,0.8-4.8-0.1c-1.3-0.8-1.9-2-2.1-3.4
		c-0.3-1.9,0.2-3.7,1.8-4.9c1.6-1.2,3.4-1.3,5.1-0.4C310.8,99.2,311.6,100.8,311.6,103.6z M309.3,102.9c0-0.5-0.1-1.1-0.3-1.6
		c-0.3-0.8-0.9-1.5-1.8-1.6c-0.8-0.1-1.4,0.2-1.9,0.8c-0.9,1.1-0.9,3.6,0,4.8c0.9,1.1,2.2,1.1,3.2,0.1
		C309.2,104.7,309.3,103.8,309.3,102.9z"/>
	<path class="st3" d="M192,103c-0.1,1.8-0.6,3.5-2.4,4.4c-1.6,0.8-3.3,0.8-4.9-0.2c-1.3-0.8-1.8-2-2-3.4c-0.3-1.9,0.2-3.7,1.8-4.9
		c1.6-1.2,3.4-1.3,5.2-0.4C191.4,99.4,191.9,101,192,103z M189.6,103c0-0.6-0.1-1.1-0.3-1.6c-0.6-1.8-2.6-2.2-3.7-0.8
		c-1,1.2-1,3.7,0,4.9c0.9,1,2.2,1,3.1,0.1C189.5,104.8,189.6,103.9,189.6,103z"/>
	<path class="st3" d="M323,102.9c0-1.4,0-2.9,0-4.3c0-0.3,0.1-0.6,0.5-0.6c1.4-0.1,2.8-0.2,4.2,0c2.1,0.4,3.1,2.5,1.9,4.2
		c-0.2,0.3-0.5,0.5-0.9,0.7c-0.1,0.1-0.3,0.2-0.1,0.3c0.8,0.5,0.9,1.4,1.2,2.2c0.2,0.6,0.3,1.2,0.5,1.7c0.1,0.3,0.1,0.5-0.4,0.5
		c-1.8,0-1.8,0-2.3-1.8c-0.1-0.3-0.2-0.6-0.3-0.9c-0.3-0.9-0.9-1.2-1.8-1.1c-0.3,0-0.3,0.3-0.3,0.5c0,0.9,0,1.9,0,2.8
		c0,0.4-0.1,0.6-0.6,0.6c-1.6,0-1.6,0-1.6-1.6C323,105.1,323,104,323,102.9z M325.2,101C325.2,101,325.2,101,325.2,101
		c0,0.3,0,0.7,0,1c0,0.2,0,0.3,0.2,0.4c0.6,0.2,1.8-0.1,2.2-0.6c0.3-0.4,0.3-1,0.1-1.5c-0.3-0.5-1.5-0.9-2.1-0.6
		c-0.6,0.2-0.2,0.7-0.3,1C325.2,100.7,325.2,100.9,325.2,101z"/>
	<path class="st3" d="M149.6,103.2c0.9,0.6,1.1,1.5,1.3,2.4c0.2,0.6,0.3,1.2,0.5,1.7c0.1,0.3,0.1,0.5-0.3,0.5c-0.2,0-0.4,0-0.6,0
		c-1.2,0-1.2,0-1.5-1.2c-0.2-0.6-0.3-1.2-0.5-1.7c-0.2-0.7-1.1-1.1-1.9-0.9c-0.3,0.1-0.2,0.3-0.2,0.5c0,0.9,0,1.9,0,2.8
		c0,0.4-0.1,0.6-0.5,0.5c-0.4,0-0.8,0-1.2,0c-0.4,0-0.5-0.2-0.5-0.5c0-2.9,0-5.7,0-8.6c0-0.4,0.1-0.6,0.5-0.6c1.4-0.1,2.7-0.2,4.1,0
		c2.2,0.3,3.2,2.6,2,4.3C150.4,102.7,150,102.9,149.6,103.2z M147.2,102.3c0.2,0,0.3,0,0.5,0c0.7-0.1,1.2-0.6,1.3-1.2
		c0.1-0.6-0.2-1.2-0.8-1.4c-0.5-0.2-0.9-0.2-1.4-0.2c-0.3,0-0.4,0.2-0.4,0.5c0,0.5,0,1,0,1.4C146.3,102.4,146.3,102.4,147.2,102.3z"
		/>
	<path class="st3" d="M321.1,101.5c-0.1,0.9,0.1,2.1-0.1,3.2c-0.3,1.9-1.5,3-3.4,3.1c-1.3,0.1-2.6-0.1-3.5-1.2
		c-0.7-0.8-0.9-1.8-0.9-2.8c0-1.8,0-3.5,0-5.3c0-0.4,0.1-0.6,0.6-0.6c1.6,0,1.6,0,1.6,1.6c0,1.4,0,2.9,0,4.3c0,1.1,0.5,1.9,1.3,2.1
		c0.9,0.3,1.7-0.1,2.1-1c0.2-0.4,0.2-0.8,0.2-1.3c0-1.7,0-3.4,0-5.1c0-0.4,0.1-0.6,0.6-0.6c1.7,0,1.7,0,1.7,1.6
		C321.1,100.2,321.1,100.8,321.1,101.5z"/>
	<path class="st3" d="M166.4,98.1c1.4,0,1.4,0,1.9,1.4c0.8,2.6,1.6,5.2,2.4,7.8c0.2,0.5,0.1,0.7-0.5,0.6c-0.3,0-0.6,0-0.9,0
		c-0.7,0.1-1.1-0.1-1.1-0.8c0,0,0,0,0-0.1c-0.2-0.5-0.1-1.4-0.6-1.6c-0.7-0.2-1.6-0.1-2.4-0.1c-0.2,0-0.3,0.2-0.3,0.4
		c-0.2,0.6-0.3,1.1-0.5,1.7c-0.1,0.3-0.2,0.5-0.6,0.5c-0.4,0-0.9,0-1.3,0c-0.4,0-0.5-0.1-0.4-0.5c0.8-2.4,1.5-4.9,2.2-7.3
		c0.1-0.5,0.3-1,0.4-1.4c0.1-0.4,0.3-0.6,0.8-0.6C165.8,98.1,166.1,98.1,166.4,98.1z M166.3,99.8c-0.3,1.2-0.6,2.3-0.9,3.4
		c-0.1,0.3,0,0.4,0.3,0.4c0.4,0,0.8,0,1.3,0c0.3,0,0.5-0.1,0.3-0.4c-0.2-0.6-0.3-1.1-0.5-1.7C166.6,101,166.5,100.4,166.3,99.8z"/>
	<path class="st3" d="M207.2,98.1c1.4,0,1.4,0,1.8,1.3c0.8,2.6,1.6,5.2,2.5,7.8c0.1,0.4,0.1,0.7-0.4,0.6c-0.2,0-0.5,0-0.7,0
		c-1.1,0-1.1,0-1.5-1.1c-0.4-1.4-0.4-1.4-1.9-1.4c-1.3,0-1.3,0-1.6,1.3c-0.3,1.3-0.3,1.3-1.7,1.3c-1,0-1,0-0.7-1
		c0.8-2.7,1.6-5.3,2.4-8c0.2-0.6,0.4-0.9,1-0.8C206.7,98.1,206.9,98.1,207.2,98.1z M207,99.8c-0.2,0.9-0.4,1.6-0.6,2.3
		c-0.5,1.9-0.9,1.5,1.3,1.6c0.3,0,0.4-0.1,0.3-0.4C207.7,102.1,207.4,101,207,99.8z"/>
	<path class="st3" d="M345.3,98.1c1.4,0,1.4,0,1.8,1.3c0.8,2.6,1.6,5.2,2.5,7.8c0.1,0.5,0.1,0.6-0.4,0.6c-0.2,0-0.4,0-0.6,0
		c-1.3,0-1.3,0-1.6-1.2c-0.4-1.3-0.4-1.3-1.7-1.3c-1.4,0-1.4,0-1.8,1.4c-0.3,1.1-0.3,1.1-1.5,1.1c-1.1,0-1.1,0-0.8-1
		c0.8-2.6,1.6-5.3,2.4-8c0.2-0.6,0.5-0.8,1.1-0.7C344.8,98.1,345,98.1,345.3,98.1z M345.1,99.8c-0.3,1.2-0.6,2.3-0.9,3.4
		c-0.1,0.3,0.1,0.4,0.3,0.4c0.4,0,0.9,0,1.3,0c0.2,0,0.4,0,0.3-0.3C345.8,102.2,345.5,101,345.1,99.8z"/>
	<path class="st3" d="M136.4,102.9c0-1.4,0-2.9,0-4.3c0-0.4,0.1-0.5,0.5-0.5c1.7,0,3.3,0,5,0c0.4,0,0.5,0.1,0.5,0.5
		c0,1.6,0.2,1.3-1.3,1.3c-0.7,0-1.4,0-2.1,0c-0.3,0-0.4,0.1-0.5,0.4c-0.1,1.5-0.1,1.5,1.4,1.5c0.6,0,1.2,0,1.7,0
		c0.3,0,0.5,0.1,0.4,0.4c0,1.6,0.2,1.3-1.2,1.3c-0.6,0-1.3,0-1.9,0c-0.3,0-0.5,0.1-0.4,0.4c0,0,0,0.1,0,0.1c0,1.8,0,1.8,1.7,1.8
		c0.6,0,1.2,0,1.8,0c0.4,0,0.5,0.1,0.5,0.5c0,1.7,0.2,1.3-1.3,1.3c-1.5,0-2.9,0-4.4,0c-0.5,0-0.6-0.1-0.6-0.6
		C136.4,105.8,136.4,104.3,136.4,102.9z"/>
	<path class="st3" d="M243.7,102.9c0-1.4,0-2.9,0-4.3c0-0.4,0.1-0.5,0.5-0.5c1.7,0,3.3,0,5,0c0.4,0,0.5,0.1,0.5,0.5
		c0,1.6,0.2,1.3-1.3,1.3c-0.7,0-1.4,0-2.1,0c-0.3,0-0.4,0.1-0.5,0.4c-0.1,1.5-0.1,1.5,1.4,1.5c0.6,0,1.2,0,1.7,0
		c0.3,0,0.4,0.1,0.4,0.4c0,1.6,0.2,1.3-1.2,1.3c-0.6,0-1.3,0-1.9,0c-0.3,0-0.4,0.1-0.4,0.4c0,0.5,0,0.9,0,1.4c0,0.4,0.2,0.5,0.5,0.5
		c1,0,1.9,0,2.9,0c0.5,0,0.7,0.1,0.6,0.6c0,1.5,0.2,1.2-1.2,1.2c-1.5,0-3,0-4.5,0c-0.5,0-0.6-0.1-0.6-0.6
		C243.7,105.7,243.7,104.3,243.7,102.9z"/>
	<path class="st3" d="M225.7,107.9c-0.9,0-1.7-0.2-2.4-0.4c-0.3-0.1-0.4-0.3-0.3-0.6c0.1-0.4,0.1-0.9,0.4-1.1
		c0.3-0.3,0.7,0.1,1.1,0.2c0.6,0.1,1.1,0.2,1.7,0.1c0.5,0,1-0.2,1.1-0.8c0.2-0.6-0.1-1-0.7-1.2c-0.7-0.3-1.5-0.6-2.2-1
		c-0.9-0.5-1.5-1.3-1.4-2.4c0.1-1,0.6-1.8,1.5-2.3c1-0.5,2-0.6,3.1-0.4c0.1,0,0.1,0,0.2,0c1.5,0.3,1.5,0.3,1.1,1.7
		c-0.1,0.3-0.2,0.4-0.5,0.3c-0.7-0.3-1.4-0.3-2.1-0.2c-0.4,0.1-0.8,0.2-0.9,0.7c-0.1,0.5,0.2,0.8,0.6,1c0.6,0.3,1.2,0.5,1.8,0.8
		c1.5,0.7,2.2,1.9,1.8,3.4c-0.3,0.9-0.9,1.5-1.7,1.8C227,107.8,226.3,107.9,225.7,107.9z"/>
	<path class="st3" d="M290.1,107.9c-2,0-3.6-0.5-4.6-2c-1.7-2.5-0.9-7,3.2-7.8c1.1-0.2,2.1-0.1,3.2,0.1c0.4,0.1,0.5,0.3,0.4,0.7
		c0,0.1,0,0.1,0,0.2c-0.2,1-0.2,1-1.3,0.8c-1.6-0.3-3,0.3-3.6,1.4c-0.7,1.4-0.5,3.1,0.6,4.1c0.9,0.8,2,0.8,3,0.7
		c1-0.1,1-0.2,1.2,0.8c0.1,0.5,0,0.8-0.6,0.9C291.1,107.8,290.5,107.9,290.1,107.9z"/>
	<path class="st3" d="M235.9,107.9c-2,0-3.6-0.5-4.6-2c-1.7-2.5-1-7,3.2-7.8c1.1-0.2,2.1-0.2,3.2,0.1c0.4,0.1,0.5,0.3,0.5,0.7
		c-0.3,1.2-0.2,1.1-1.4,1c-1.2-0.1-2.4-0.1-3.2,1c-0.9,1.1-0.9,2.4-0.4,3.6c0.5,1.2,1.5,1.6,2.7,1.7c0.5,0,1,0,1.5-0.2
		c0.1,0,0.2-0.1,0.3,0c0.4,0.3,0.3,0.8,0.4,1.3c0.1,0.3-0.1,0.5-0.4,0.5C237,107.8,236.3,107.9,235.9,107.9z"/>
	<path class="st3" d="M273.5,102.9c0-1.4,0-2.9,0-4.3c0-0.4,0.1-0.5,0.5-0.5c1.6,0,3.2,0,4.9,0c0.4,0,0.5,0.1,0.5,0.5
		c0,1.6,0.2,1.3-1.3,1.3c-0.7,0-1.3,0-2,0c-0.3,0-0.4,0.1-0.5,0.4c-0.1,1.8-0.1,1.8,1.7,1.8c0.4,0,0.9,0,1.3,0
		c0.4,0,0.5,0.1,0.5,0.5c0,1.5,0.2,1.2-1.2,1.2c-0.5,0-1.1,0-1.6,0c-0.6,0-0.7,0.2-0.7,0.7c0,0.9,0,1.8,0,2.7c0,0.4-0.1,0.6-0.5,0.5
		c-0.4,0-0.8,0-1.2,0c-0.4,0-0.5-0.1-0.5-0.5C273.6,105.8,273.5,104.4,273.5,102.9z"/>
	<path class="st3" d="M265.6,103.8c0,1.1,0,2.3,0,3.4c0,0.4-0.1,0.6-0.5,0.5c-0.4,0-0.7,0-1.1,0c-0.5,0-0.6-0.1-0.6-0.6
		c0-2.2,0-4.4,0-6.5c0-0.7,0-0.7-0.8-0.8c-0.4,0-0.8,0-1.3,0c-0.1,0-0.3,0-0.3,0c-0.6-0.4-0.2-0.9-0.3-1.4c-0.1-0.3,0.1-0.4,0.4-0.4
		c2.3,0,4.5-0.1,6.8,0c0.7,0,0.3,0.8,0.4,1.2c0.1,0.3,0.1,0.6-0.4,0.6c-0.6,0-1.2,0-1.7,0c-0.4,0-0.5,0.1-0.5,0.5
		C265.6,101.6,265.6,102.7,265.6,103.8z"/>
	<path class="st3" d="M132.7,103.8c0,1.1,0,2.3,0,3.4c0,0.4-0.1,0.6-0.5,0.5c-0.4,0-0.7,0-1.1,0c-0.5,0-0.6-0.2-0.6-0.6
		c0-2.2,0-4.4,0-6.6c0-0.6-0.2-0.7-0.7-0.7c-0.5,0-1,0-1.5,0c-0.3,0-0.4-0.1-0.4-0.4c-0.1-1.4-0.1-1.4,1.3-1.4c1.9,0,3.7,0,5.6,0
		c0.4,0,0.6,0.1,0.6,0.6c0,1.3,0,1.3-1.3,1.3c-1.4,0-1.4,0-1.4,1.4C132.7,102.1,132.7,103,132.7,103.8z"/>
	<path class="st3" d="M175.1,103.8c0,1.1,0,2.3,0,3.4c0,0.4-0.1,0.6-0.5,0.5c-0.4,0-0.7,0-1.1,0c-0.5,0-0.6-0.1-0.6-0.6
		c0-2.2,0-4.4,0-6.5c0-0.8,0-0.8-0.8-0.8c-0.4,0-0.8,0-1.2,0c-0.1,0-0.2,0-0.3,0c-0.5,0-0.4-0.4-0.4-0.7c0.1-0.4-0.4-1.1,0.4-1.2
		c2.3-0.1,4.5,0,6.8,0c0.2,0,0.3,0,0.4,0.2c0,0.5,0,1,0,1.4c0,0.2-0.3,0.2-0.4,0.2c-0.5,0-1.1,0-1.6,0c-0.4,0-0.6,0.1-0.6,0.6
		C175.2,101.6,175.1,102.7,175.1,103.8z"/>
	<path class="st2" d="M295.4,59.9c-1.8,0-2.9-1.2-2.9-3c0-1.8,1.3-3,3.1-3c1.7,0,3,1.3,3,3.1C298.5,58.7,297.3,59.9,295.4,59.9z"/>
	<path class="st3" d="M171.1,17.4c-1.6,0.1-3-1.3-2.9-3c0.1-1.8,1.3-3,3.1-3c1.7,0,2.9,1.3,2.9,3.1C174.2,16.2,173,17.4,171.1,17.4z
		"/>
	<path class="st0" d="M351,102.9c0-1.4,0-2.9,0-4.3c0-0.4,0.1-0.6,0.5-0.5c0.4,0,0.7,0,1.1,0c0.5,0,0.6,0.1,0.6,0.6
		c0,2.2,0,4.4,0,6.5c0,0.8,0,0.8,0.8,0.8c0.9,0,1.7,0,2.6,0c0.3,0,0.5,0.1,0.5,0.5c0,1.7,0.2,1.4-1.3,1.4c-1.4,0-2.8,0-4.2,0
		c-0.4,0-0.5-0.1-0.5-0.5C351,105.8,351,104.4,351,102.9z"/>
	<path class="st0" d="M212.9,102.9c0-1.4,0-2.9,0-4.3c0-0.4,0.1-0.6,0.5-0.5c0.4,0,0.7,0,1.1,0c0.5,0,0.6,0.1,0.6,0.6
		c0,2.2,0,4.4,0,6.5c0,0.8,0,0.8,0.8,0.8c0.9,0,1.7,0,2.6,0c0.3,0,0.5,0.1,0.5,0.5c0,1.7,0.2,1.4-1.3,1.4c-1.4,0-2.8,0-4.2,0
		c-0.4,0-0.5-0.1-0.5-0.5C212.9,105.8,212.9,104.4,212.9,102.9z"/>
	<path class="st3" d="M301,101.8c-0.1,1,0.1,2.3-0.1,3.5c-0.3,1.5-1.3,2.4-2.8,2.5c-0.6,0-1.2,0-1.8-0.1c-0.3-0.1-0.5-0.2-0.4-0.6
		c0.1-0.4,0-0.8,0.2-1.1c0.2-0.4,0.7,0,1.1,0c1,0,1.5-0.5,1.5-1.7c0-1.9,0-3.8,0-5.7c0-0.5,0.2-0.7,0.7-0.7c1.5,0,1.5,0,1.5,1.6
		C301,100.3,301,100.9,301,101.8z"/>
	<path class="st0" d="M116.6,103c0,1.4,0,2.9,0,4.3c0,0.4-0.1,0.6-0.5,0.5c-0.4,0-0.8,0-1.2,0c-0.4,0-0.5-0.1-0.5-0.5
		c0-2.9,0-5.9,0-8.8c0-0.4,0.1-0.5,0.5-0.5c0.4,0,0.8,0,1.2,0c0.4,0,0.5,0.1,0.5,0.5C116.6,100,116.6,101.5,116.6,103z"/>
	<path class="st0" d="M181,102.9c0,1.4,0,2.9,0,4.3c0,0.4-0.1,0.6-0.5,0.5c-0.4,0-0.8,0-1.3,0c-0.3,0-0.4-0.1-0.4-0.4
		c0-3,0-5.9,0-8.9c0-0.3,0.1-0.4,0.4-0.4c0.4,0,0.8,0,1.3,0c0.4,0,0.5,0.1,0.5,0.5C181,100,181,101.5,181,102.9z"/>
	<path class="st0" d="M283.3,103c0,1.4,0,2.8,0,4.2c0,0.4-0.1,0.6-0.6,0.6c-1.6,0-1.6,0-1.6-1.6c0-2.5,0-5,0-7.5
		c0-0.5,0.1-0.7,0.6-0.7c1.6,0,1.6,0,1.6,1.6C283.3,100.7,283.3,101.8,283.3,103z"/>
	<path class="st0" d="M271.6,102.9c0,1.4,0,2.8,0,4.2c0,0.5-0.1,0.6-0.6,0.6c-1.6,0-1.6,0-1.6-1.6c0-2.5,0-5,0-7.5
		c0-0.5,0.1-0.6,0.6-0.6c1.6,0,1.6,0,1.6,1.6C271.6,100.7,271.6,101.8,271.6,102.9z"/>
	<path class="st0" d="M241.8,102.9c0,1.4,0,2.9,0,4.3c0,0.4-0.1,0.6-0.5,0.5c-0.4,0-0.8,0-1.3,0c-0.3,0-0.4-0.1-0.4-0.4
		c0-3,0-5.9,0-8.9c0-0.3,0.1-0.4,0.4-0.4c0.4,0,0.8,0,1.3,0c0.4,0,0.5,0.1,0.5,0.5C241.8,100,241.8,101.5,241.8,102.9z"/>
	<path class="st4" d="M30,102.9c0.3,0,0.5,0.1,0.2,0.4c-0.5,0.5-0.9,0.9-1.3,1.5c-0.3,0-0.6-0.2-0.8-0.4c0.5-0.4,1.1-0.8,1.6-1.3
		C30,103.3,29.9,103.1,30,102.9C30,102.9,30,102.9,30,102.9z"/>
	<path class="st4" d="M52.2,13.2c-0.9,0.9-2,1.6-3,2.4c-1.6,1.3-3.2,2.5-4.8,3.8c-0.2-0.3-0.2-0.5,0-0.8c0.8-1.1,1.8-2,2.9-2.9
		c1.4-1.1,3-2,4.6-3c0.3-0.2,0.4-0.1,0.6,0.1C52.5,13.1,52.4,13.2,52.2,13.2C52.2,13.2,52.1,13.2,52.2,13.2
		C52.1,13.2,52.2,13.2,52.2,13.2z"/>
	<path class="st0" d="M67,67.2c-2.3-1.8-4.6-3.6-6.9-5.4C51.4,54.9,42.7,48.1,34,41.2c-0.1,0-0.1-0.1-0.2-0.1
		c-0.6-0.4-0.6-0.4,0-0.9c8.5-6.7,16.9-13.4,25.4-20.1c2.7-2.1,5.3-4.2,8-6.3c0,0.8,0.1,1.4,0,2.1C66.8,16,67,16.4,67,16.7
		c0,16.5,0,33,0,49.5C67,66.5,67,66.9,67,67.2z"/>
	<path class="st3" d="M67,67.2c0-0.3,0-0.7,0-1c0-16.5,0-33,0-49.5c0-0.3-0.2-0.6,0.2-0.8c0,0.2,0,0.5,0,0.7c0,16.7,0,33.5,0,50.2
		c0,0.1,0,0.3,0,0.4C67.2,67.6,67.1,67.2,67,67.2z"/>
	<path class="st3" d="M30,103c0,0.1,0,0.3-0.2,0.2C29.8,103.1,29.9,103,30,103z"/>
	<path class="st0" d="M52.2,13.2C52.2,13.2,52.1,13.2,52.2,13.2C52.1,13.2,52.2,13.2,52.2,13.2C52.2,13.2,52.2,13.2,52.2,13.2z"/>
</g>
</svg>
