<?xml version="1.0" encoding="utf-8"?>
<!-- Generator: Adobe Illustrator 28.0.0, SVG Export Plug-In . SVG Version: 6.00 Build 0)  -->
<svg version="1.1" id="Layer_1" xmlns="http://www.w3.org/2000/svg" xmlns:xlink="http://www.w3.org/1999/xlink" x="0px" y="0px"
	 viewBox="0 0 360 120" style="enable-background:new 0 0 360 120;" xml:space="preserve">
<style type="text/css">
	.st0{fill:#19457D;}
	.st1{fill:#4A4E4B;}
	.st2{fill:#E16026;}
</style>
<g>
	<path class="st0" d="M75.7,13.6c0,0.7,0.6,0.5,0.9,0.6c7,2.4,11.4,7.1,12.9,14.3c1.2,5.8-1.1,10.5-5.1,14.6
		c-0.1,0.1-0.3,0.3-0.4,0.4c-5.3,3.7-5.8,9.1-4.9,14.8c0.6,3.8,2.3,7.2,5,10c0.6,0.7,1.2,1.4,1.9,2.1C90,74.6,90.7,79.6,89,85
		c-1.7,5.1-5.1,8.9-10,11.2c-3.7,1.8-7.5,2.1-11.4,0.5c-6.9-2.8-11.2-7.9-12.1-15.4c-0.5-4,0.6-7.6,3.5-10.5
		c1.2-1.2,2.3-2.5,3.3-3.8c8-9.4,4.6-21-4.3-26.9C51,35.5,43,36,36.6,41.3c-1.2,1-2.4,2.1-3.6,3.2c-4.1,3.9-8.9,4.8-14.1,3.1
		C12,45.2,7.3,40.5,6,33.2c-0.9-5.2,1.1-9.6,4.6-13.3c2.8-3,6.1-4.9,10.1-5.8c0.3-0.1,0.7,0.1,0.6-0.5c0.5,0,0.9,0,1.4,0
		c0.4,0.3,0.8,0.4,1.2,0c0.5,0,0.9,0,1.4,0c0,0.6,0.5,0.4,0.8,0.5c2.1,0.3,4,1.2,5.7,2.5c1.1,1,2.3,1.9,3.3,2.9
		c4.7,4.5,10.4,6.1,16.8,5.3c3-0.4,5.6-1.6,7.5-4.2c2.4-3.2,5.6-5.4,9.5-6.5c0.3-0.1,0.8,0.1,0.7-0.5c0.2,0,0.5,0,0.7,0
		c0,0.1,0,0.1,0,0.1c0.1,0,0.2,0,0.2-0.1c1.4,0,2.8,0,4.2,0c0,0.1,0.1,0.2,0.2,0.1c0,0,0-0.1,0-0.1C75.2,13.6,75.4,13.6,75.7,13.6z"
		/>
	<path class="st1" d="M165.6,13.6c1.3,1.5,1.1,3.3,1.4,5.1c1.3,10.5,2.5,21,3.8,31.5c0.4,3.3,0.8,6.7,1.2,10
		c0.2,2.1-0.2,2.6-2.3,2.6c-2.5,0-5.1,0-7.6,0c-1.7,0-2.1-0.3-2.3-2c-0.5-4.1-0.9-8.3-1.3-12.4c-0.5-4.5-0.9-9-1.4-13.5
		c-0.6,0.2-0.5,0.7-0.6,1c-2.2,7.8-4.4,15.7-6.7,23.5c-0.1,0.5-0.3,1-0.5,1.5c-0.3,0.8-0.8,1.3-1.6,1.3c-3,0-6,0-9,0
		c-1.1,0-1.6-0.8-1.9-1.8c-1.1-4-2.3-8-3.4-12c-1.2-4.1-2.3-8.3-3.5-12.4c-0.1-0.3-0.2-0.6-0.3-0.8c-0.3,0-0.3,0.2-0.4,0.4
		c-0.8,7.6-1.6,15.3-2.4,22.9c-0.1,1-0.2,1.9-0.4,2.9c-0.1,1-0.7,1.5-1.7,1.5c-3,0-6,0.1-9,0c-1.3,0-1.7-0.7-1.6-2.1
		c1.1-8.9,2.1-17.7,3.2-26.6c0.7-6,1.5-12,2.1-18c0.1-1,0.6-1.6,1-2.4c4.3,0,8.6,0,12.9,0c1,0.9,1.4,2.2,1.7,3.5
		c2.5,8.7,5,17.3,7.5,26c0.1,0.5,0.2,1,0.6,1.4c0.4-0.2,0.4-0.7,0.5-1c2.5-8.6,4.9-17.2,7.4-25.7c0.4-1.4,0.7-3,1.8-4.1
		C157,13.6,161.3,13.6,165.6,13.6z"/>
	<path class="st2" d="M0,87.6c0.2-1.2,0.4-2.5,0.7-3.7c1.3-5.1,4.1-8.8,9.2-10.4c1.9-0.6,3.9-0.6,5.9-0.6c6.1-0.2,10.7-2.9,14.3-7.6
		c1.4-1.9,2.2-4,2.2-6.4c0-2.3,0-4.5,0.3-6.8c0.5-3.9,2.7-6.8,5.9-8.8c5-3,10.3-3.4,15.7-1.1c5.4,2.3,8,6.8,8.5,12.5
		c0.3,3.1-0.2,6.1-1.6,8.9c-2.3,4.5-5.8,7.4-11,7.6c-2.1,0.1-4.3,0-6.4,0.3c-3.9,0.4-6.7,2.8-9.1,5.8c-2.5,3.2-3.8,6.8-3.9,10.9
		c0,1.4-0.1,2.9-0.3,4.3c-0.6,3.9-2.8,6.7-6.1,8.6c-5,2.9-10.3,3.3-15.6,1.1c-5.4-2.2-7.9-6.6-8.5-12.2c0-0.4,0.2-0.8-0.2-1.1
		C0,88.4,0,88,0,87.6z"/>
	<path class="st1" d="M342.2,13.6c0.3,0.6,0.8,0.4,1.2,0.5c4.5,0.7,8.4,2.3,10.9,6.4c2.3,3.9,2.8,10.4-0.6,14.3
		c-0.2,0.2-0.3,0.4-0.5,0.5c-1.3,1.4-1.3,1.4,0.2,2.5c3.9,3,5.2,7.1,4.8,11.8c-0.8,8.3-6.8,12.4-14.4,12.8c-7,0.3-14.1,0.1-21.2,0.1
		c-1.3,0-1.6-0.3-1.6-1.6c0-15.2,0-30.3,0-45.5c0-0.8,0.4-1.3,0.7-1.9C328.6,13.6,335.4,13.6,342.2,13.6z M338.1,51.8
		c1.1,0,2.1,0,3.2,0c3.1-0.1,4.9-1.8,5-4.7c0.1-3.1-1.7-5-4.8-5.1c-2.4-0.1-4.8,0-7.3,0c-0.8,0-1.1,0.4-1.1,1.1c0,2.5,0,5.1,0,7.6
		c0,0.8,0.3,1.1,1.1,1.1C335.5,51.8,336.8,51.8,338.1,51.8z M333.1,28.8c0,1.1,0,2.2,0,3.3c0,0.7,0.3,1,1,1c2,0,4,0.1,6,0
		c2.5-0.1,4-1.7,4-4.1c0-2.5-1.5-4.1-4-4.2c-2-0.1-4,0-6,0c-0.7,0-1,0.3-1,1C333.1,26.7,333.1,27.7,333.1,28.8z"/>
	<path class="st1" d="M217.4,13.6c2.6,2.8,3.2,6.4,4.5,9.7c4.9,12.1,9.6,24.2,14.3,36.4c1,2.6,0.7,3.1-2,3.1c-2.5,0-5.1,0-7.6,0
		c-1.7,0-2.4-0.5-3-2.1c-0.5-1.5-1.1-2.9-1.5-4.4c-0.3-1.1-0.9-1.5-2.1-1.5c-4.7,0.1-9.4,0.1-14.1,0c-1.1,0-1.6,0.3-1.9,1.4
		c-0.5,1.6-1.1,3.2-1.7,4.9c-0.4,1.2-1.2,1.7-2.4,1.8c-3,0-6,0-9,0c-1.6,0-2-0.8-1.4-2.3c2.6-6.8,5.3-13.5,8-20.3
		c2.8-7.2,5.7-14.4,8.5-21.6c0.7-1.8,1.2-3.7,2.8-5C211.7,13.6,214.5,13.6,217.4,13.6z M213.1,30c-0.2,0.4-0.4,0.5-0.4,0.7
		c-1.5,4.3-3,8.7-4.5,13c-0.3,0.9,0.1,1,0.8,1c2.6,0,5.1,0,7.7,0c1.1,0,1.3-0.3,0.9-1.3c-1.2-3.5-2.4-6.9-3.6-10.4
		C213.8,32.1,213.5,31.2,213.1,30z"/>
	<path class="st1" d="M282.2,13.6c1.6,1.2,2,3.1,2.7,4.8c5.4,13.8,10.8,27.6,16.3,41.4c0,0.1,0.1,0.2,0.1,0.3
		c0.8,2.1,0.4,2.7-1.9,2.7c-2.7,0-5.3,0-8,0c-1.6,0-2.3-0.5-2.9-2c-0.6-1.6-1.1-3.2-1.7-4.9c-0.2-0.8-0.7-1.1-1.5-1.1
		c-5,0-9.9,0-14.9,0c-0.8,0-1.2,0.3-1.4,1.1c-0.5,1.7-1.1,3.3-1.7,5c-0.5,1.4-1.2,1.9-2.7,1.9c-2.7,0-5.4,0-8.1,0
		c-2.3,0-2.7-0.6-1.9-2.8c3.6-9.1,7.1-18.1,10.7-27.2c2.2-5.5,4.3-10.9,6.4-16.4c0.4-1.1,1.3-1.8,1.9-2.7
		C276.6,13.6,279.4,13.6,282.2,13.6z M278,30.3c-0.1,0.1-0.2,0.2-0.2,0.2c-1.5,4.4-3,8.8-4.6,13.3c-0.3,0.9,0.2,1,0.9,1
		c2.5,0,5.1,0,7.6,0c1.3,0,1.4-0.1,1-1.3c-1.4-4.1-2.8-8.2-4.2-12.3C278.4,30.8,278.3,30.5,278,30.3z"/>
	<path class="st1" d="M196.7,104c-0.1-0.5-0.6-0.5-1-0.7c-5.3-1.9-8.2-6.8-7.2-12.4c0.9-5.1,5.6-8.8,11.1-8.7
		c5.3,0.1,9.8,4,10.6,9.2c0.8,5.1-2.2,10.1-7.2,11.9c-0.4,0.1-1,0.1-1.2,0.7C200.2,104,198.5,104,196.7,104z M193.5,93.1
		c0,3.2,2.7,5.9,5.8,6c3.3,0,6-2.7,6-6c0-3.3-2.6-5.9-5.9-5.9C196.1,87.1,193.5,89.7,193.5,93.1z"/>
	<path class="st1" d="M317.1,104c-0.1-0.5-0.7-0.5-1-0.6c-5.5-2-8.5-7.4-7.1-13c1.3-5.1,6.6-8.8,11.9-8.1c5.8,0.7,10,5.4,9.8,11.2
		c-0.1,4.4-3,8.2-7.3,9.8c-0.4,0.2-1,0.1-1.1,0.7C320.6,104,318.9,104,317.1,104z M313.8,93c0,3.4,2.6,6,5.9,6
		c3.3,0,5.8-2.6,5.9-5.9c0-3.4-2.6-6-5.9-6C316.4,87.2,313.9,89.7,313.8,93z"/>
	<path class="st1" d="M249,104c-0.1-0.6-0.7-0.6-1.1-0.7c-2.3-1.1-3.6-2.9-3.8-5.4c-0.2-3.7,2.2-6.1,6.4-6.2c2.1-0.1,4.3,0,6.4,0
		c0.9,0,1.2-0.3,1.2-1.2c-0.1-2.2-1.6-3.8-3.9-3.9c-1.9-0.1-3.8,0.2-5.6,1.1c-1,0.5-1.5,0.3-2.1-0.7c-1.1-2.2-1-2.7,1.3-3.5
		c3.1-1.1,6.3-1.5,9.5-0.6c3.8,1.1,5.8,3.8,5.8,7.7c0,3.8,0,7.6,0,11.5c0,1.1-0.4,1.5-1.4,1.4c-0.3,0-0.7,0-1.1,0
		c-1.1,0.1-1.7-0.2-1.8-1.4c0-0.6-0.2-1-0.8-0.4c-0.9,1-2.1,1.6-3.4,2c-0.2,0.1-0.4,0.2-0.5,0.5C252.6,104,250.8,104,249,104z
		 M254.6,94.9C254.6,95,254.6,95,254.6,94.9c-1.1,0.1-2.1,0-3.2,0.1c-1,0.1-1.9,0.5-2.2,1.6c-0.2,1.1,0.3,2,1.4,2.7
		c2.1,1.2,5.2,0.5,6.7-1.4c0.4-0.5,0.7-1.1,0.8-1.7c0.1-0.8-0.1-1.4-1.1-1.3C256.2,95,255.4,94.9,254.6,94.9z"/>
	<path class="st1" d="M360,103.1c-1.3,0.4-2.6,0.2-3.9,0.2c-1.1,0.1-1.5-0.4-1.5-1.4c0-3.3,0-6.6,0-9.8c0-3-1.6-4.9-4.3-4.9
		c-2.9-0.1-4.9,1.7-5,4.7c-0.1,2.9,0,5.8,0,8.7c0,0.5,0,0.9,0,1.4c0.1,1-0.3,1.5-1.4,1.4c-0.8-0.1-1.6,0-2.5,0
		c-0.8,0-1.1-0.3-1.1-1.1c0-6.1,0-12.2,0-18.3c0-0.7,0.3-1.1,1-1.1c0.5,0,1,0,1.5,0c1.1-0.1,1.8,0.2,2,1.5c0.1,1.1,0.6,0.5,1,0.1
		c3.1-2.9,7.9-3.1,11-0.5c1.5,1.3,2.2,3,2.6,4.8c0.1,0.4,0,0.9,0.5,1.1C360,94.3,360,98.7,360,103.1z"/>
	<path class="st1" d="M159.7,93.1c0-3,0-5.9,0-8.9c0-1,0.4-1.4,1.4-1.4c0.4,0,0.9,0,1.3,0c1.1-0.1,1.7,0.2,1.9,1.5
		c0.1,1.3,0.7,0.5,1.1,0.1c3.6-3.3,9.2-3,12,0.8c1.3,1.8,1.8,3.8,1.8,5.9c0.1,3.6,0,7.2,0,10.8c0,1-0.3,1.5-1.4,1.4
		c-0.8,0-1.6,0-2.5,0c-1,0.1-1.4-0.4-1.4-1.4c0-3.4,0-6.7,0-10.1c0-2.7-1.5-4.5-3.9-4.7c-2.8-0.3-4.8,1.3-5.3,4
		c-0.3,1.5-0.1,3-0.1,4.6c0,2.1,0,4.3,0,6.4c0,0.9-0.3,1.3-1.2,1.2c-4.5-0.1-3.7,0.6-3.7-3.6C159.7,97.5,159.7,95.3,159.7,93.1z"/>
	<path class="st1" d="M129.5,93c0-2.9,0-5.8,0-8.7c0-1.2,0.4-1.6,1.6-1.5c0.4,0,0.8,0,1.2,0c1.1-0.1,1.7,0.3,1.8,1.4
		c0.1,1,0.5,0.8,1,0.3c2.6-2.5,5.6-3,8.9-1.8c3.1,1.1,4.6,3.7,4.9,6.8c0.5,4.2,0.1,8.4,0.2,12.6c0,0.8-0.4,1.1-1.2,1.1
		c-0.9,0-1.7,0-2.6,0c-1,0.1-1.4-0.4-1.4-1.4c0-3.5,0-6.9,0-10.4c0-2.2-1.4-3.9-3.4-4.3c-2.3-0.5-4.6,0.6-5.5,2.6
		c-0.4,0.8-0.5,1.7-0.5,2.6c0,3.2,0,6.3,0,9.5c0,1.1-0.4,1.5-1.4,1.4c-0.8-0.1-1.6,0-2.3,0c-0.9,0-1.2-0.4-1.2-1.3
		C129.5,99,129.5,96,129.5,93z"/>
	<path class="st1" d="M227.1,96.6c1-2.7,2-5.3,2.9-7.9c0.6-1.6,1.2-3.1,1.7-4.7c0.3-0.8,0.7-1.1,1.6-1.1c1,0,2,0,2.9,0
		c1.2,0,1.4,0.2,0.9,1.4c-1.8,4.3-3.6,8.5-5.5,12.8c-0.7,1.6-1.4,3.2-2,4.9c-0.4,1-0.9,1.4-2,1.4c-3.1-0.1-2.6,0.3-3.8-2.5
		c-2.3-5.5-4.7-10.9-7-16.4c-0.6-1.4-0.5-1.6,1-1.6c4.8,0.1,3.5-0.7,5.3,3.7c1.1,2.9,2.2,5.8,3.3,8.8
		C226.5,95.7,226.6,96.1,227.1,96.6z"/>
	<path class="st1" d="M279.7,95.5c0,2.2,0,4.4,0,6.6c0,0.9-0.3,1.4-1.3,1.3c-0.8-0.1-1.6-0.1-2.5,0c-1,0.1-1.3-0.4-1.3-1.3
		c0-4.2,0-8.3,0-12.5c0-1.8,0-1.8-1.8-1.8c-0.9,0-1.3-0.3-1.3-1.2c0-0.3,0-0.7,0-1.1c0-2.2,0-2.2,2.1-2.5c0.7-0.1,0.9-0.5,0.9-1.1
		c0-1.4,0-2.9,0-4.3c0-0.7,0.3-1.2,1-1.4c0.9-0.3,1.8-0.7,2.7-1.1c1.1-0.4,1.3-0.2,1.3,0.9c0,1.9,0,3.7,0,5.6c0,1,0.4,1.4,1.4,1.4
		c1.1-0.1,2.1,0,3.2,0c0.7,0,1.1,0.3,1.1,1c0,0.8,0,1.6,0,2.5c0,0.9-0.3,1.3-1.2,1.3c-0.9,0-1.9,0-2.8,0c-1.5,0-1.6,0.1-1.6,1.6
		C279.7,91.3,279.7,93.4,279.7,95.5z"/>
	<path class="st1" d="M118.3,93.1c0,2.9,0,5.8,0,8.8c0,1.1-0.3,1.5-1.4,1.4c-0.9-0.1-1.7,0-2.6,0c-0.8,0-1.1-0.4-1.1-1.1
		c0-6.1,0-12.2,0-18.2c0-0.8,0.4-1.2,1.1-1.2c0.1,0,0.2,0,0.2,0c4.5,0,3.7-0.4,3.7,3.6C118.3,88.6,118.3,90.9,118.3,93.1z"/>
	<path class="st1" d="M299.1,93.1c0,2.9,0,5.9,0,8.8c0,1.1-0.4,1.5-1.4,1.4c-0.8-0.1-1.6,0-2.5,0c-0.9,0-1.3-0.4-1.3-1.2
		c0-2.6,0-5.1,0-7.7c0-3.4,0-6.7,0-10.1c0-1,0.3-1.4,1.3-1.5c3.8-0.3,3.8-0.3,3.8,3.4C299.1,88.5,299.1,90.8,299.1,93.1z"/>
	<path class="st1" d="M115.9,70.3c1.7,0,3.1,1.6,3,3.2c-0.1,1.6-1.5,3-3.2,3c-1.8,0-3.2-1.5-3.1-3.3
		C112.7,71.6,114.1,70.2,115.9,70.3z"/>
	<path class="st1" d="M293.5,73.4c0-1.7,1.4-3.1,3.2-3.1c1.7,0,3.1,1.5,3.1,3.2c0,1.7-1.5,3.1-3.2,3.1
		C294.8,76.5,293.4,75.1,293.5,73.4z"/>
</g>
</svg>
